<svg viewBox="0 0 800 600" fill="none" xmlns="http://www.w3.org/2000/svg">
  <!-- Room outline -->
  <rect x="150" y="150" width="500" height="300" stroke="#FFFFFF" stroke-width="2" fill="none" />
  
  <!-- Interior walls -->
  <line x1="400" y1="150" x2="400" y2="450" stroke="#FFFFFF" stroke-width="1.5" />
  <line x1="150" y1="300" x2="400" y2="300" stroke="#FFFFFF" stroke-width="1.5" />
  
  <!-- Light fixtures -->
  <circle cx="275" cy="225" r="8" stroke="#FFFF00" stroke-width="2" fill="none" />
  <line x1="271" y1="221" x2="279" y2="229" stroke="#FFFF00" stroke-width="1" />
  <line x1="271" y1="229" x2="279" y2="221" stroke="#FFFF00" stroke-width="1" />
  
  <circle cx="275" cy="375" r="8" stroke="#FFFF00" stroke-width="2" fill="none" />
  <line x1="271" y1="371" x2="279" y2="379" stroke="#FFFF00" stroke-width="1" />
  <line x1="271" y1="379" x2="279" y2="371" stroke="#FFFF00" stroke-width="1" />
  
  <circle cx="525" cy="300" r="8" stroke="#FFFF00" stroke-width="2" fill="none" />
  <line x1="521" y1="296" x2="529" y2="304" stroke="#FFFF00" stroke-width="1" />
  <line x1="521" y1="304" x2="529" y2="296" stroke="#FFFF00" stroke-width="1" />
  
  <!-- Switches -->
  <rect x="380" y="220" width="12" height="8" stroke="#00FF00" stroke-width="1.5" fill="none" />
  <line x1="386" y1="220" x2="386" y2="228" stroke="#00FF00" stroke-width="1" />
  
  <rect x="380" y="370" width="12" height="8" stroke="#00FF00" stroke-width="1.5" fill="none" />
  <line x1="386" y1="370" x2="386" y2="378" stroke="#00FF00" stroke-width="1" />
  
  <rect x="505" y="295" width="12" height="8" stroke="#00FF00" stroke-width="1.5" fill="none" />
  <line x1="511" y1="295" x2="511" y2="303" stroke="#00FF00" stroke-width="1" />
  
  <!-- Outlets -->
  <circle cx="200" cy="280" r="6" stroke="#FF6600" stroke-width="1.5" fill="none" />
  <line x1="197" y1="280" x2="203" y2="280" stroke="#FF6600" stroke-width="1" />
  <line x1="200" y1="277" x2="200" y2="283" stroke="#FF6600" stroke-width="1" />
  
  <circle cx="350" cy="280" r="6" stroke="#FF6600" stroke-width="1.5" fill="none" />
  <line x1="347" y1="280" x2="353" y2="280" stroke="#FF6600" stroke-width="1" />
  <line x1="350" y1="277" x2="350" y2="283" stroke="#FF6600" stroke-width="1" />
  
  <circle cx="450" cy="430" r="6" stroke="#FF6600" stroke-width="1.5" fill="none" />
  <line x1="447" y1="430" x2="453" y2="430" stroke="#FF6600" stroke-width="1" />
  <line x1="450" y1="427" x2="450" y2="433" stroke="#FF6600" stroke-width="1" />
  
  <circle cx="600" cy="430" r="6" stroke="#FF6600" stroke-width="1.5" fill="none" />
  <line x1="597" y1="430" x2="603" y2="430" stroke="#FF6600" stroke-width="1" />
  <line x1="600" y1="427" x2="600" y2="433" stroke="#FF6600" stroke-width="1" />
  
  <!-- Wiring (dashed lines) -->
  <line x1="275" y1="225" x2="386" y2="224" stroke="#FFFF00" stroke-width="1" stroke-dasharray="3,3" />
  <line x1="275" y1="375" x2="386" y2="374" stroke="#FFFF00" stroke-width="1" stroke-dasharray="3,3" />
  <line x1="525" y1="300" x2="511" y2="299" stroke="#FFFF00" stroke-width="1" stroke-dasharray="3,3" />
  
  <!-- Panel box -->
  <rect x="160" y="160" width="30" height="40" stroke="#FF0000" stroke-width="2" fill="rgba(255,0,0,0.1)" />
  <text x="165" y="185" fill="#FF0000" font-size="10" font-family="Arial">P</text>
  
  <!-- Legend -->
  <text x="160" y="480" fill="#AAAAAA" font-size="12" font-family="Arial">LEGEND:</text>
  <circle cx="170" cy="500" r="6" stroke="#FFFF00" stroke-width="2" fill="none" />
  <text x="185" y="505" fill="#AAAAAA" font-size="11" font-family="Arial">Light Fixture</text>
  
  <rect x="164" y="515" width="12" height="8" stroke="#00FF00" stroke-width="1.5" fill="none" />
  <text x="185" y="523" fill="#AAAAAA" font-size="11" font-family="Arial">Switch</text>
  
  <circle cx="170" cy="540" r="6" stroke="#FF6600" stroke-width="1.5" fill="none" />
  <text x="185" y="545" fill="#AAAAAA" font-size="11" font-family="Arial">Outlet</text>
</svg>
