<svg width="16" height="16" viewBox="0 0 16 16" fill="none" xmlns="http://www.w3.org/2000/svg">
<path d="M12.7016 10.5C12.6016 9.1 12.2016 7.1 10.5016 5.5C8.60156 3.6 6.80156 3.4 5.60156 3.4" stroke="#CFCFCF" stroke-miterlimit="10"/>
<path d="M5.5 9.3H7L5.9 11.5C5.9 11.7 5.8 13.3 5.8 14H4.6C4.6 13.8 4.5 13.5 4.5 13.3C4 13.7 3.5 14 2.9 14C2.3 14 1.9 13.8 1.5 13.5C1.2 13.2 1 12.7 1 12.1C1 11.3 1.2 10.7 1.7 10.1C2.2 9.5 2.8 9.2 3.6 9.2C4.2 9.2 4.8 9.4 5.2 9.9L5.5 9.3ZM2.2 11.8C2.2 12.1 2.3 12.4 2.4 12.5C2.5 12.6 2.7 12.7 3 12.7C3.3 12.7 3.6 12.5 3.8 12.2C4 11.9 4.1 11.5 4.1 11.1C4.1 10.8 4 10.6 3.9 10.5C3.8 10.4 3.6 10.3 3.3 10.3C3 10.3 2.7 10.5 2.5 10.8C2.3 11.1 2.2 11.4 2.2 11.8Z" fill="#EF7C28"/>
<path d="M4 1.4C3.2 1.4 2.5 2.1 2.5 2.9C2.5 3.7 3.2 4.4 4 4.4C4.8 4.4 5.5 3.7 5.5 2.9C5.5 2.1 4.8 1.4 4 1.4Z" stroke="#CFCFCF" stroke-miterlimit="10"/>
<path d="M12 10.5C11.2 10.5 10.5 11.2 10.5 12C10.5 12.8 11.2 13.5 12 13.5C12.8 13.5 13.5 12.8 13.5 12C13.5 11.2 12.8 10.5 12 10.5Z" stroke="#CFCFCF" stroke-miterlimit="10"/>
</svg>
