<svg width="16" height="16" viewBox="0 0 16 16" fill="none" xmlns="http://www.w3.org/2000/svg">
<path d="M13 12C13 12 13.5 8.5 10.5 5.5C7.5 2.5 5 3 5 3" stroke="#CFCFCF" stroke-miterlimit="10"/>
<path d="M6 9L9 11.5L6 14V9Z" fill="#EF7C28"/>
<path d="M6.5 11.8C3.5 11.6 2.5 9.60001 2.5 7.60001" stroke="#EF7C28" stroke-miterlimit="10"/>
<path d="M13 11.5C12.2 11.5 11.5 12.2 11.5 13C11.5 13.8 12.2 14.5 13 14.5C13.8 14.5 14.5 13.8 14.5 13C14.5 12.2 13.8 11.5 13 11.5Z" stroke="#EF7C28" stroke-miterlimit="10"/>
<path d="M4 1.5C3.2 1.5 2.5 2.2 2.5 3C2.5 3.8 3.2 4.5 4 4.5C4.8 4.5 5.5 3.8 5.5 3C5.5 2.2 4.8 1.5 4 1.5Z" stroke="#EF7C28" stroke-miterlimit="10"/>
</svg>
