<svg width="16" height="16" viewBox="0 0 16 16" fill="none" xmlns="http://www.w3.org/2000/svg">
<path d="M12.5992 11.6C12.5992 11.6 12.9992 9 9.99922 6C7.99922 4 5.19922 3.6 5.19922 3.6" stroke="#CFCFCF" stroke-miterlimit="10"/>
<path d="M12 6L15 3.5L12 1V6Z" fill="#EF7C28"/>
<path d="M12 11.5C11.2 11.5 10.5 12.2 10.5 13C10.5 13.8 11.2 14.5 12 14.5C12.8 14.5 13.5 13.8 13.5 13C13.5 12.2 12.8 11.5 12 11.5Z" stroke="#CFCFCF" stroke-miterlimit="10"/>
<path d="M4 2.5C3.2 2.5 2.5 3.2 2.5 4C2.5 4.8 3.2 5.5 4 5.5C4.8 5.5 5.5 4.8 5.5 4C5.5 3.2 4.8 2.5 4 2.5Z" stroke="#EF7C28" stroke-miterlimit="10"/>
<path d="M5.39844 3.5H12.4984" stroke="#EF7C28" stroke-miterlimit="10"/>
</svg>
