<svg width="16" height="16" viewBox="0 0 16 16" fill="none" xmlns="http://www.w3.org/2000/svg">
<path d="M11.9016 4.10001L9.10156 6.90001" stroke="#EF7C28" stroke-miterlimit="10" stroke-linecap="round" stroke-linejoin="round"/>
<path d="M8 6.5C7.2 6.5 6.5 7.2 6.5 8C6.5 8.8 7.2 9.5 8 9.5C8.8 9.5 9.5 8.8 9.5 8C9.5 7.2 8.8 6.5 8 6.5Z" stroke="#EF7C28" stroke-miterlimit="10"/>
<path d="M13 4.6C13.6 5.6 14 6.7 14 8C14 11.3 11.3 14 8 14C4.7 14 2 11.3 2 8C2 4.7 4.7 2 8 2C9.2 2 10.4 2.4 11.3 3" stroke="#CFCFCF" stroke-miterlimit="10"/>
<path d="M13 1.5C12.2 1.5 11.5 2.2 11.5 3C11.5 3.8 12.2 4.5 13 4.5C13.8 4.5 14.5 3.8 14.5 3C14.5 2.2 13.8 1.5 13 1.5Z" stroke="#EF7C28" stroke-miterlimit="10"/>
</svg>
