<svg width="16" height="16" viewBox="0 0 16 16" fill="none" xmlns="http://www.w3.org/2000/svg">
<path d="M13.8992 9.3C13.3992 11.6 11.4992 13.4 9.19922 13.9" stroke="#CFCFCF" stroke-miterlimit="10"/>
<path d="M9.19922 2.10001C11.3992 2.60001 13.1992 4.20001 13.7992 6.40001" stroke="#CFCFCF" stroke-miterlimit="10"/>
<path d="M6.7 13.9C4.1 13.2 2 10.8 2 8C2 5.3 3.9 2.5 6.8 2.1" stroke="#CFCFCF" stroke-miterlimit="10"/>
<path d="M8 0.5C7.2 0.5 6.5 1.2 6.5 2C6.5 2.8 7.2 3.5 8 3.5C8.8 3.5 9.5 2.8 9.5 2C9.5 1.2 8.8 0.5 8 0.5Z" stroke="#EF7C28" stroke-miterlimit="10"/>
<path d="M8 12.5C7.2 12.5 6.5 13.2 6.5 14C6.5 14.8 7.2 15.5 8 15.5C8.8 15.5 9.5 14.8 9.5 14C9.5 13.2 8.8 12.5 8 12.5Z" stroke="#EF7C28" stroke-miterlimit="10"/>
<path d="M14 6.5C13.2 6.5 12.5 7.2 12.5 8C12.5 8.8 13.2 9.5 14 9.5C14.8 9.5 15.5 8.8 15.5 8C15.5 7.2 14.8 6.5 14 6.5Z" stroke="#EF7C28" stroke-miterlimit="10"/>
</svg>
