<svg width="16" height="16" viewBox="0 0 16 16" fill="none" xmlns="http://www.w3.org/2000/svg">
<g clip-path="url(#clip0_3264_5083)">
<path d="M2 3V2C2 2 2 0 4 0H6V1H4.1C4.1 1 3 1 3 2V3H5.2L2.6 6L0 3H2Z" fill="#EF7C28"/>
<path d="M15 1V5H9V1H15ZM16 0H8V6H16V0Z" fill="#CFCFCF"/>
<path d="M16 0H15V1H16V0Z" fill="#616161"/>
<path d="M9 5H8V6H9V5Z" fill="#616161"/>
<path d="M9 0H8V1H9V0Z" fill="#616161"/>
<path d="M16 5H15V6H16V5Z" fill="#616161"/>
<path d="M13.9 11.5C14.1 11.4 14.2 11.2 14.4 11.1C14.8 10.7 15 10.1 15 9.5C15 8.1 13.8 7 12.3 7C11.4 7 10.7 7.4 10.2 8C9.6 7.4 8.8 7 7.9 7C7 7 6.3 7.4 5.8 8.1C5.3 7.5 4.5 7.1 3.7 7.1C2.2 7.1 1 8.2 1 9.6C1 10.2 1 11 2.2 11.6C1.6 12.1 1.1 12.8 1.1 13.6C1.1 15 2.3 16.1 3.8 16.1C4.7 16.1 5.5 15.7 5.9 15.1C6.4 15.7 7.2 16.1 8 16.1C8.9 16.1 9.7 15.7 10.2 15.1C10.7 15.7 11.5 16.1 12.3 16.1C13.8 16.1 15 15 15 13.6C15 12.7 14.6 11.9 13.9 11.5ZM12.3 15C11.4 15 10.8 14.3 10.7 13.6C10.7 13.4 10.4 13.2 10.2 13.2C9.9 13.2 9.7 13.4 9.7 13.6C9.6 14.4 8.9 15 8.1 15C7.2 15 6.5 14.3 6.5 13.5C6.5 13.2 6.3 13 6 13C5.7 13 5.5 13.2 5.5 13.5C5.5 14.3 4.8 15 3.9 15C3 15 2.3 14.3 2.3 13.5C2.3 12.7 3 12 3.9 12H4C4.3 12 4.5 11.8 4.5 11.5C4.5 11.2 4.3 11 4 11H3.8H3.7C2.8 11 2.1 10.3 2.1 9.5C2.1 8.7 2.8 8 3.7 8C4.6 8 5.3 8.7 5.3 9.6C5.3 9.9 5.5 10 5.8 10C6.1 10 6.3 9.7 6.3 9.5C6.3 8.8 7.1 8 7.9 8C8.8 8 9.5 8.7 9.5 9.5V9.6C9.5 9.9 9.7 10.1 10 10.1C10.3 10.1 10.5 9.9 10.5 9.6V9.5C10.5 8.7 11.2 8 12.1 8C13 8 13.7 8.7 13.7 9.5C13.7 10.4 13.1 11 12.2 11C12.1 11 11.6 11 11.8 11.6C11.9 11.8 12 12.1 12.3 12.1C13.2 12.2 13.8 12.8 13.8 13.6C13.9 14.4 13.2 15 12.3 15Z" fill="#EF7C28"/>
</g>
<defs>
<clipPath id="clip0_3264_5083">
<rect width="16" height="16" fill="white"/>
</clipPath>
</defs>
</svg>
