<svg width="16" height="16" viewBox="0 0 16 16" fill="none" xmlns="http://www.w3.org/2000/svg">
<path d="M4 11C4.1 4.29999 7.6 0.499989 11.5 1.49999C15.5 2.49999 12.5 9.49999 12 11" stroke="#CFCFCF" stroke-miterlimit="10"/>
<path d="M9.5 4V9" stroke="#EF7C28" stroke-miterlimit="10"/>
<path d="M12 6.5H7" stroke="#EF7C28" stroke-miterlimit="10"/>
<path d="M12 10.5C11.2 10.5 10.5 11.2 10.5 12C10.5 12.8 11.2 13.5 12 13.5C12.8 13.5 13.5 12.8 13.5 12C13.5 11.2 12.8 10.5 12 10.5Z" stroke="#CFCFCF" stroke-miterlimit="10"/>
<path d="M4 10.5C3.2 10.5 2.5 11.2 2.5 12C2.5 12.8 3.2 13.5 4 13.5C4.8 13.5 5.5 12.8 5.5 12C5.5 11.2 4.8 10.5 4 10.5Z" stroke="#CFCFCF" stroke-miterlimit="10"/>
</svg>
