<svg width="16" height="16" viewBox="0 0 16 16" fill="none" xmlns="http://www.w3.org/2000/svg">
<path d="M13.4 9.59999C14.5 9.59999 15.5 8.79999 15.5 7.89999C15.5 6.99999 14.6 6.19999 13.4 6.19999C13.3 6.19999 13.2 6.19999 13.2 6.19999C13.2 6.09999 13.1 5.99999 13.1 5.99999C13.2 5.99999 13.2 5.89999 13.3 5.89999C14.1 5.19999 14.1 4.19999 13.3 3.59999C12.5 2.99999 11.2 2.89999 10.5 3.59999C10.4 3.69999 10.4 3.69999 10.3 3.79999C10.2 3.79999 10.1 3.69999 10 3.69999C10 3.59999 10 3.49999 10 3.49999C10 2.59999 9.1 1.79999 7.9 1.79999C6.7 1.79999 5.9 2.59999 5.9 3.49999C5.9 3.59999 5.9 3.69999 5.9 3.79999C5.8 3.79999 5.7 3.89999 5.6 3.89999C5.6 3.69999 5.6 3.69999 5.5 3.59999C4.8 2.99999 3.5 2.99999 2.8 3.59999C2.1 4.19999 2 5.29999 2.8 5.99999C2.8 5.99999 2.9 6.09999 3 6.19999C3 6.29999 2.9 6.29999 2.9 6.39999C2.8 6.39999 2.7 6.39999 2.6 6.39999C1.4 6.29999 0.5 6.99999 0.5 7.99999C0.5 8.99999 1.4 9.69999 2.6 9.69999C2.7 9.69999 2.8 9.69999 2.9 9.69999C2.9 9.79999 3 9.89999 3 9.89999C2.9 9.89999 2.9 9.99999 2.8 10.1C2.1 10.8 2.1 11.8 2.8 12.4C3.5 13.1 4.9 13.1 5.6 12.4C5.7 12.4 5.7 12.3 5.8 12.2C5.9 12.2 6 12.3 6.1 12.3C6.1 12.4 6.1 12.4 6.1 12.5C6.1 13.4 7 14.2 8.2 14.2C9.4 14.2 10.3 13.4 10.3 12.5C10.3 12.4 10.3 12.4 10.3 12.3C10.4 12.3 10.5 12.2 10.6 12.2L10.7 12.3C11.5 13 12.8 13 13.5 12.3C14.2 11.6 14.2 10.6 13.5 9.99999C13.4 9.99999 13.4 9.89999 13.3 9.89999C13.3 9.79999 13.4 9.69999 13.4 9.59999Z" stroke="#EF7C28" stroke-miterlimit="10" stroke-linecap="round" stroke-linejoin="round"/>
</svg>
