<svg width="16" height="16" viewBox="0 0 16 16" fill="none" xmlns="http://www.w3.org/2000/svg">
<g clip-path="url(#clip0_3264_5161)">
<path d="M12.8 4.40002C12.5 4.40002 12.3 4.40002 12 4.50002C12.3 4.10002 12.5 3.60002 12.5 3.10002C12.5 1.90002 11.5 0.900024 10.3 0.900024C9.1 0.900024 8.1 1.90002 8.1 3.10002C8.1 3.40002 8.2 3.70002 8.3 3.90002C8 3.80002 7.6 3.70002 7.1 3.70002C5.9 3.70002 4.9 4.70002 4.9 5.90002C4.5 5.30002 3.9 5.00002 3.2 5.00002C2 5.00002 1 6.00002 1 7.20002C1 8.40002 2 9.40002 3.2 9.40002C3.3 9.40002 3.5 9.40002 3.6 9.40002C3.6 9.50002 3.7 9.60002 3.7 9.70002C3.7 9.70002 3.7 9.80002 3.8 9.80002C3.6 10.1 3.4 10.6 3.4 11C3.4 12.2 4.4 13.2 5.6 13.2C5.9 13.2 6.2 13.1 6.4 13C6.4 14.2 7.4 15.1 8.6 15.1C9.8 15.1 10.8 14.1 10.8 12.9C10.8 12 10.3 11.3 9.6 10.9C10.7 10.7 11.5 9.90002 11.5 8.80002C11.6 8.70002 11.7 8.60002 11.8 8.50002C12.1 8.70002 12.5 8.80002 12.9 8.80002C14.1 8.80002 15.1 7.80002 15.1 6.60002C15 5.40002 14 4.40002 12.8 4.40002Z" stroke="#EF7C28" stroke-miterlimit="10" stroke-linejoin="round"/>
</g>
<defs>
<clipPath id="clip0_3264_5161">
<rect width="16" height="16" fill="white"/>
</clipPath>
</defs>
</svg>
