<svg width="16" height="16" viewBox="0 0 16 16" fill="none" xmlns="http://www.w3.org/2000/svg">
<path d="M3.1 11.2L1 13" stroke="#CFCFCF" stroke-miterlimit="10"/>
<path d="M9.5 5.09998L5.5 8.79998" stroke="#CFCFCF" stroke-miterlimit="10"/>
<path d="M13.9992 1L12.1992 2.7" stroke="#CFCFCF" stroke-miterlimit="10"/>
<path d="M12.2 14V10.5C12.2 10.3 12.2 10.2 12.1 10.1C12.1 10 12 9.9 12 9.9C11.9 9.8 11.8 9.8 11.8 9.8C11.7 9.8 11.6 9.8 11.6 9.8C11.5 9.8 11.5 9.8 11.4 9.8C11.3 9.8 11.2 9.9 11.2 9.9C11.1 10 11.1 10 11 10.1C10.9 10.2 10.9 10.3 10.9 10.5V14H9V8H10.7V8.6C10.9 8.4 11.1 8.3 11.3 8.2C11.5 8.1 11.8 8.1 12 8.1C12.3 8.1 12.5 8.1 12.7 8.2C12.9 8.3 13.1 8.4 13.3 8.6C13.6 8.9 13.7 9.1 13.8 9.4C14 9.7 14 10 14 10.3V14H12.2Z" fill="#EF7C28"/>
<path d="M4 8.5C3.2 8.5 2.5 9.2 2.5 10C2.5 10.8 3.2 11.5 4 11.5C4.8 11.5 5.5 10.8 5.5 10C5.5 9.2 4.8 8.5 4 8.5Z" stroke="#EF7C28" stroke-miterlimit="10"/>
<path d="M11 2.5C10.2 2.5 9.5 3.2 9.5 4C9.5 4.8 10.2 5.5 11 5.5C11.8 5.5 12.5 4.8 12.5 4C12.5 3.2 11.8 2.5 11 2.5Z" stroke="#EF7C28" stroke-miterlimit="10"/>
</svg>
