<svg width="16" height="16" viewBox="0 0 16 16" fill="none" xmlns="http://www.w3.org/2000/svg">
<path d="M8 14L5 11" stroke="#EF7C28" stroke-miterlimit="10"/>
<path d="M15 8L12 5" stroke="#EF7C28" stroke-miterlimit="10"/>
<path d="M3 11.1L1 13" stroke="#CFCFCF" stroke-miterlimit="10"/>
<path d="M9.79844 4.90002L5.39844 8.90002" stroke="#CFCFCF" stroke-miterlimit="10"/>
<path d="M14 1L12 2.9" stroke="#CFCFCF" stroke-miterlimit="10"/>
<path d="M4 8.5C3.2 8.5 2.5 9.2 2.5 10C2.5 10.8 3.2 11.5 4 11.5C4.8 11.5 5.5 10.8 5.5 10C5.5 9.2 4.8 8.5 4 8.5Z" stroke="#EF7C28" stroke-miterlimit="10"/>
<path d="M11 2.5C10.2 2.5 9.5 3.2 9.5 4C9.5 4.8 10.2 5.5 11 5.5C11.8 5.5 12.5 4.8 12.5 4C12.5 3.2 11.8 2.5 11 2.5Z" stroke="#EF7C28" stroke-miterlimit="10"/>
</svg>
