<svg width="16" height="16" viewBox="0 0 16 16" fill="none" xmlns="http://www.w3.org/2000/svg">
<path d="M2.5 10.5V3.2L4.2 1.5H13L6.7 10.5H2.5Z" fill="#616161"/>
<path d="M12.1 2L6.5 10H3V3.4L4.4 2H12.1ZM14 1H4L2 3V11H7L14 1Z" fill="#EF7C28"/>
<path d="M9 14.5H5.8V6L8 3H3L4 1H14L9 7V14.5Z" fill="#616161"/>
<path d="M13.3992 1.80005V9.00005L8.99922 15L8.69922 6.30005L13.3992 1.80005Z" fill="#616161"/>
<path d="M13 2V8.6L8.5 14H6V6.4L7.7 4.7L9.4 3H7H3.9L4.6 2H13ZM14 1H4L2 4H7L5 6V15H9L14 9V1Z" fill="#EF7C28"/>
<path d="M8.5 15V6.5L13.5 1.5" stroke="#EF7C28" stroke-miterlimit="10"/>
</svg>
