<svg width="16" height="16" viewBox="0 0 16 16" fill="none" xmlns="http://www.w3.org/2000/svg">
<g clip-path="url(#clip0_3264_5154)">
<path d="M4.80156 6.00005L4.10156 5.30005L2.10156 7.10005L2.80156 7.80005L4.80156 6.00005Z" fill="#CFCFCF"/>
<path d="M10.0016 0L6.50156 3.2L6.80156 4.2L9.90156 1.4L14.6016 6.9L6.10156 14.6L2.50156 10.4L1.60156 10.8L6.00156 16L16.0016 7L10.0016 0Z" fill="#CFCFCF"/>
<path d="M8 7C8.6 7 9 7.4 9 8C9 8.6 8.6 9 8 9C7.4 9 7 8.6 7 8C7 7.4 7.4 7 8 7ZM8 6C6.9 6 6 6.9 6 8C6 9.1 6.9 10 8 10C9.1 10 10 9.1 10 8C10 6.9 9.1 6 8 6Z" fill="#EF7C28"/>
<path d="M5 3C5.6 3 6 3.4 6 4C6 4.6 5.6 5 5 5C4.4 5 4 4.6 4 4C4 3.4 4.4 3 5 3ZM5 2C3.9 2 3 2.9 3 4C3 5.1 3.9 6 5 6C6.1 6 7 5.1 7 4C7 2.9 6.1 2 5 2Z" fill="#EF7C28"/>
<path d="M2 8C2.6 8 3 8.4 3 9C3 9.6 2.6 10 2 10C1.4 10 1 9.6 1 9C1 8.4 1.4 8 2 8ZM2 7C0.9 7 0 7.9 0 9C0 10.1 0.9 11 2 11C3.1 11 4 10.1 4 9C4 7.9 3.1 7 2 7Z" fill="#EF7C28"/>
</g>
<defs>
<clipPath id="clip0_3264_5154">
<rect width="16" height="16" fill="white"/>
</clipPath>
</defs>
</svg>
