<svg width="16" height="16" viewBox="0 0 16 16" fill="none" xmlns="http://www.w3.org/2000/svg">
<path d="M2 5H1V13H13V12H2V5Z" fill="#CFCFCF"/>
<path d="M3 4V5H14V11H15V4H3Z" fill="#CFCFCF"/>
<path d="M2 2.5C1.2 2.5 0.5 3.2 0.5 4C0.5 4.8 1.2 5.5 2 5.5C2.8 5.5 3.5 4.8 3.5 4C3.5 3.2 2.8 2.5 2 2.5Z" stroke="#EF7C28" stroke-miterlimit="10"/>
<path d="M14 10.5C13.2 10.5 12.5 11.2 12.5 12C12.5 12.8 13.2 13.5 14 13.5C14.8 13.5 15.5 12.8 15.5 12C15.5 11.2 14.8 10.5 14 10.5Z" stroke="#EF7C28" stroke-miterlimit="10"/>
</svg>
