<svg width="16" height="16" viewBox="0 0 16 16" fill="none" xmlns="http://www.w3.org/2000/svg">
<g clip-path="url(#clip0_3264_5119)">
<path d="M10.5984 14H4.39844V15H10.5984V14Z" fill="#CFCFCF"/>
<path d="M12.6 1H5L2.5 12.5H3.5L5.8 2H12.6V1Z" fill="#CFCFCF"/>
<path d="M13.5 3.5L11.5 12.6H12.5L14.5 3.5H13.5Z" fill="#CFCFCF"/>
<path d="M13.9998 1C14.5998 1 14.9998 1.4 14.9998 2C14.9998 2.6 14.5998 3 13.9998 3C13.3998 3 12.9998 2.6 12.9998 2C12.9998 1.4 13.3998 1 13.9998 1ZM13.8998 0C12.7998 0 11.8998 1 11.9998 2.1C11.9998 3.2 12.9998 4.1 14.0998 4C15.1998 3.9 16.0998 3 15.9998 1.9C15.8998 0.8 14.9998 0 13.8998 0Z" fill="#EF7C28"/>
<path d="M12 13C12.6 13 13 13.4 13 14C13 14.6 12.6 15 12 15C11.4 15 11 14.6 11 14C11 13.4 11.4 13 12 13ZM12 12C10.9 12 10 12.9 10 14C10 15.1 10.9 16 12 16C13.1 16 14 15.1 14 14C14 12.9 13.1 12 12 12Z" fill="#EF7C28"/>
<path d="M3 13C3.6 13 4 13.4 4 14C4 14.6 3.6 15 3 15C2.4 15 2 14.6 2 14C2 13.4 2.4 13 3 13ZM3 12C1.9 12 1 12.9 1 14C1 15.1 1.9 16 3 16C4.1 16 5 15.1 5 14C5 12.9 4.1 12 3 12Z" fill="#EF7C28"/>
</g>
<defs>
<clipPath id="clip0_3264_5119">
<rect width="16" height="16" fill="white"/>
</clipPath>
</defs>
</svg>
