<svg width="16" height="16" viewBox="0 0 16 16" fill="none" xmlns="http://www.w3.org/2000/svg">
<path d="M4.00161 10.4C3.80161 8 5.00161 5 8.40161 8.6C12.3016 12.7 12.0016 8.4 12.0016 5.5" stroke="#CFCFCF" stroke-miterlimit="10"/>
<path d="M12 2.5C11.2 2.5 10.5 3.2 10.5 4C10.5 4.8 11.2 5.5 12 5.5C12.8 5.5 13.5 4.8 13.5 4C13.5 3.2 12.8 2.5 12 2.5Z" stroke="#EF7C28" stroke-miterlimit="10"/>
<path d="M4 10.5C3.2 10.5 2.5 11.2 2.5 12C2.5 12.8 3.2 13.5 4 13.5C4.8 13.5 5.5 12.8 5.5 12C5.5 11.2 4.8 10.5 4 10.5Z" stroke="#EF7C28" stroke-miterlimit="10"/>
</svg>
