<svg width="20" height="20" viewBox="0 0 20 20" fill="none" xmlns="http://www.w3.org/2000/svg">
<path d="M15.2501 4.75811C14.9251 4.43311 14.4001 4.43311 14.0751 4.75811L10.0001 8.82478L5.9251 4.74978C5.6001 4.42478 5.0751 4.42478 4.7501 4.74978C4.4251 5.07478 4.4251 5.59978 4.7501 5.92478L8.8251 9.99978L4.7501 14.0748C4.4251 14.3998 4.4251 14.9248 4.7501 15.2498C5.0751 15.5748 5.6001 15.5748 5.9251 15.2498L10.0001 11.1748L14.0751 15.2498C14.4001 15.5748 14.9251 15.5748 15.2501 15.2498C15.5751 14.9248 15.5751 14.3998 15.2501 14.0748L11.1751 9.99978L15.2501 5.92478C15.5668 5.60811 15.5668 5.07478 15.2501 4.75811Z" fill="black"/>
</svg>
