<svg width="16" height="16" viewBox="0 0 16 16" fill="none" xmlns="http://www.w3.org/2000/svg">
<path d="M7 5.2002H5.5C3.67746 5.2002 2.2002 6.67746 2.2002 8.5C2.2002 10.3225 3.67746 11.7998 5.5 11.7998H7V13H5.5C3.01472 13 1 10.9853 1 8.5C1 6.09234 2.89083 4.12632 5.26855 4.00586L5.5 4H7V5.2002ZM10.7314 4.00586C13.1092 4.12632 15 6.09234 15 8.5C15 10.9853 12.9853 13 10.5 13H9V11.7998H10.5C12.3225 11.7998 13.7998 10.3225 13.7998 8.5C13.7998 6.67746 12.3225 5.2002 10.5 5.2002H9V4H10.5L10.7314 4.00586Z" fill="#EFEFEF"/>
<path d="M10.9997 8H5.19971V9.2H10.9997V8Z" fill="#EFEFEF"/>
</svg>
