<svg width="20" height="20" viewBox="0 0 20 20" fill="none" xmlns="http://www.w3.org/2000/svg">
<path d="M10.2999 4.59998V3.29999L11.4 4.59998H10.2999ZM10.5 2H2V11.3V11.5C2 13 3.19995 14.3 4.69995 14.3H9.69995L8.5 15.6L9.19995 16.2L11.4 13.8L9 11.5L8.40002 12.2L9.69995 13.3H5C3.9 13.3 3.00002 12.4 2.90002 11.2V2.79999H9.5V5.39996H11.7999V7.09998H12.7V4.39996L10.5 2Z" fill="#D8D8D9"/>
<path d="M17.1 10.0999H12.7L11.9 9.09991H17.1V10.0999ZM11.2999 8.09991L10.1 6.3999H4.69995V12.0999H5.59998V7.29993H9.69995L12.2999 10.8999H17.2V17.0999H5.59998V15.2999H4.69995V17.8999H18V10.4999V9.99994V8.09991H11.2999Z" fill="#D8D8D9"/>
</svg>
