<svg width="20" height="20" viewBox="0 0 20 20" fill="none" xmlns="http://www.w3.org/2000/svg">
<path d="M14.2 12.1C13.4 12.1 12.6 12.5 12.2 13.1L8.19998 10.8C8.29998 10.5 8.29998 10.2 8.29998 9.9C8.29998 9.6 8.19998 9.3 8.19998 9L12.2 6.7C12.7 7.3 13.4 7.7 14.2 7.7C15.6 7.7 16.8 6.5 16.8 5.1C16.8 3.7 15.6 2.5 14.2 2.5C12.8 2.5 11.6 3.7 11.6 5.1C11.6 5.4 11.7 5.7 11.7 6L7.69998 8.3C7.19998 7.7 6.49998 7.3 5.69998 7.3C4.29998 7.3 3.09998 8.5 3.09998 9.9C3.09998 11.3 4.29998 12.5 5.69998 12.5C6.49998 12.5 7.29998 12.1 7.69998 11.5L11.7 13.8C11.6 14.1 11.6 14.4 11.6 14.7C11.6 16.2 12.8 17.3 14.2 17.3C15.6 17.3 16.8 16.1 16.8 14.7C16.8 13.3 15.6 12.1 14.2 12.1ZM14.2 3.5C15.2 3.5 16 4.3 16 5.3C16 6.3 15.2 7.1 14.2 7.1C13.2 7.1 12.4 6.3 12.4 5.3C12.4 4.3 13.2 3.5 14.2 3.5ZM5.79998 11.8C4.79998 11.8 3.99998 11 3.99998 10C3.99998 9 4.79998 8.2 5.79998 8.2C6.79998 8.2 7.59998 9 7.59998 10C7.59998 11 6.79998 11.8 5.79998 11.8ZM14.2 16.5C13.2 16.5 12.4 15.7 12.4 14.7C12.4 13.7 13.2 12.9 14.2 12.9C15.2 12.9 16 13.7 16 14.7C16 15.7 15.2 16.5 14.2 16.5Z" fill="#D8D8D9"/>
</svg>
