<svg width="68" height="68" viewBox="0 0 68 68" fill="none" xmlns="http://www.w3.org/2000/svg">
<path d="M16.9482 11.46V56.54H51.0522V23.416L39.2922 11.46H16.9482ZM18.5162 13.028H37.9202V24.592H49.2882V54.972H18.5162V13.028ZM39.6842 14.204L48.3082 22.828H39.6842V14.204Z" fill="#EFEFEF"/>
<path d="M33.2159 31.4521C33.0199 31.4521 32.8239 31.4521 32.8239 31.4521L25.3759 34.784C25.1799 34.784 24.9839 35.1761 24.9839 35.3721V44.78C24.9839 44.976 25.1799 45.172 25.3759 45.368L32.6279 49.288C32.8239 49.484 33.0199 49.484 33.4119 49.288L40.6639 45.368C40.8599 45.172 41.0559 44.976 41.0559 44.78V35.568C41.0559 35.176 40.8599 34.98 40.6639 34.784L33.2159 31.4521ZM33.0199 32.824L38.8999 35.3721L33.0199 38.508L27.1399 35.3721L33.0199 32.824ZM39.6839 44.388L33.6079 47.72V39.88L39.6839 36.548V44.388Z" fill="#EFEFEF"/>
</svg>
