<svg preserveAspectRatio="none" width="100%" height="100%" overflow="visible" style="display: block;" viewBox="0 0 61 80" fill="none" xmlns="http://www.w3.org/2000/svg">
<g id="CAD-File">
<path id="Fill-1" d="M0 0V79.553H60.1835V21.0988L39.4306 0H0ZM2.76707 2.76702H37.0094V23.1742H57.0706V76.7859H2.76707V2.76702ZM40.1223 4.84233L55.3412 20.0611H40.1223V4.84233Z" fill="var(--fill-0, #646464)"/>
<path id="Fill-2" d="M28.7086 35.2801C28.3627 35.2801 28.0168 35.2801 28.0168 35.2801L14.8733 41.1601C14.5274 41.1601 14.1815 41.8519 14.1815 42.1978V58.8001C14.1815 59.146 14.5274 59.4918 14.8733 59.8377L27.6709 66.7554C28.0168 67.1012 28.3627 67.1012 29.0544 66.7554L41.8521 59.8377C42.198 59.4918 42.5439 59.146 42.5439 58.8001V42.5436C42.5439 41.8518 42.198 41.506 41.8521 41.1601L28.7086 35.2801ZM28.3627 37.7013L38.7392 42.1978L28.3627 47.7318L17.9862 42.1978L28.3627 37.7013ZM40.1227 58.1083L29.4004 63.9883V50.153L40.1227 44.273V58.1083Z" fill="var(--fill-0, #646464)"/>
</g>
</svg>
