<svg width="26" height="26" viewBox="0 0 26 26" fill="none" xmlns="http://www.w3.org/2000/svg">
<path d="M3.98682 1.08594V24.9143H22.0135V7.40563L15.7974 1.08594H3.98682ZM4.81563 1.91475H15.0722V8.02724H21.0811V24.0855H4.81563V1.91475ZM16.0046 2.53636L20.5631 7.09482H16.0046V2.53636Z" fill="#EFEFEF"/>
<path d="M12.5856 11.6533C12.482 11.6533 12.3784 11.6533 12.3784 11.6533L8.44158 13.4145C8.33798 13.4145 8.23438 13.6217 8.23438 13.7253V18.6982C8.23438 18.8018 8.33798 18.9054 8.44158 19.009L12.2748 21.081C12.3784 21.1846 12.482 21.1846 12.6892 21.081L16.5225 19.009C16.6261 18.9054 16.7297 18.8018 16.7297 18.6982V13.8289C16.7297 13.6217 16.6261 13.5181 16.5225 13.4145L12.5856 11.6533ZM12.482 12.3785L15.5901 13.7253L12.482 15.3829L9.37399 13.7253L12.482 12.3785ZM16.0045 18.491L12.7928 20.2522V16.1081L16.0045 14.3469V18.491Z" fill="#EFEFEF"/>
</svg>
