<svg width="26" height="26" viewBox="0 0 26 26" fill="none" xmlns="http://www.w3.org/2000/svg">
<mask id="mask0_9886_1878" style="mask-type:luminance" maskUnits="userSpaceOnUse" x="3" y="4" width="20" height="18">
<path d="M23 4.11133H3V21.8891H23V4.11133Z" fill="white"/>
</mask>
<g mask="url(#mask0_9886_1878)">
<mask id="mask1_9886_1878" style="mask-type:luminance" maskUnits="userSpaceOnUse" x="3" y="4" width="20" height="18">
<path d="M23 4.11133H3V21.8891H23V4.11133Z" fill="white"/>
</mask>
<g mask="url(#mask1_9886_1878)">
<path d="M10.6297 11.561C9.95247 11.561 9.35986 12.1536 9.35986 12.8309V13.4235C9.35986 14.1008 9.95247 14.6933 10.6297 14.6933C11.307 14.6933 11.8996 14.1008 11.8996 13.4235V12.8309C11.8996 12.069 11.307 11.561 10.6297 11.561Z" fill="#EFEFEF"/>
<path d="M16.3016 12.5771C15.6243 12.5771 15.0317 13.1698 15.0317 13.847V14.4396C15.0317 15.1168 15.6243 15.7094 16.3016 15.7094C16.9788 15.7094 17.5715 15.1168 17.5715 14.4396V13.847C17.4868 13.0851 16.9788 12.5771 16.3016 12.5771Z" fill="#EFEFEF"/>
<path d="M11.6452 6.65107L10.1214 4.53467H3.43359V21.5505H22.4812V6.65107H11.6452ZM8.85157 14.6087C8.85157 14.6934 8.7669 14.778 8.68223 14.778C7.83571 15.2013 7.32777 15.8786 7.32777 16.5558V18.3336C7.32777 18.5029 7.15846 18.6722 6.98915 18.6722C6.81983 18.5875 6.65052 18.5029 6.65052 18.2489V16.4712C6.65052 15.5399 7.32777 14.6934 8.4283 14.1008C8.59757 14.0162 8.7669 14.1008 8.85157 14.2701C8.85157 14.4394 8.85157 14.5241 8.85157 14.6087ZM10.6293 15.286C9.61345 15.286 8.7669 14.4394 8.7669 13.4235V12.8309C8.7669 11.8151 9.61345 10.9685 10.6293 10.9685C11.6452 10.9685 12.4918 11.8151 12.4918 12.8309V13.4235C12.5764 14.4394 11.7298 15.286 10.6293 15.286ZM12.9151 14.1854C13.2537 14.3548 13.5923 14.5241 13.8463 14.778L14.0156 14.9474L13.423 15.286L13.3383 15.2013C13.169 15.032 12.9151 14.8627 12.6611 14.778C12.4918 14.6934 12.4071 14.5241 12.4918 14.3548C12.5764 14.1854 12.7457 14.1854 12.9151 14.1854ZM14.2696 15.7939C13.423 16.2172 12.9151 16.8944 12.9151 17.5717V18.5875C12.9151 18.7569 12.7457 18.9262 12.5764 18.9262C12.4071 18.9262 12.2378 18.7569 12.2378 18.5875V17.5717C12.2378 16.6405 12.9151 15.7939 14.0156 15.2013C14.1849 15.1167 14.3542 15.2013 14.4388 15.3707C14.5235 15.5399 14.4388 15.7093 14.2696 15.7939ZM16.3013 16.2172C15.2854 16.2172 14.4388 15.3707 14.4388 14.3548V13.7622C14.4388 12.7463 15.2854 11.8997 16.3013 11.8997C17.3172 11.8997 18.1637 12.7463 18.1637 13.7622V14.3548C18.1637 15.4553 17.3172 16.2172 16.3013 16.2172ZM19.9415 17.8257C19.7722 17.8257 19.6029 17.6564 19.6029 17.487C19.6029 16.8098 19.095 16.1325 18.2484 15.7093C18.0791 15.6246 17.9944 15.4553 18.0791 15.286C18.1637 15.1167 18.3331 15.032 18.5023 15.1167C19.6029 15.6246 20.2801 16.4712 20.2801 17.487C20.1955 17.741 20.1108 17.8257 19.9415 17.8257ZM21.4653 9.02144H13.423L12.4071 7.58229H21.55V9.02144H21.4653Z" fill="#EFEFEF"/>
</g>
</g>
</svg>
