<svg width="16" height="16" viewBox="0 0 16 16" fill="none" xmlns="http://www.w3.org/2000/svg">
<path d="M11.3333 10.2888C10.9111 10.2888 10.5333 10.4555 10.2444 10.7166L6.28333 8.41106C6.31111 8.28328 6.33333 8.1555 6.33333 8.02217C6.33333 7.88884 6.31111 7.76106 6.28333 7.63328L10.2 5.34995C10.5 5.62772 10.8944 5.79995 11.3333 5.79995C12.2556 5.79995 13 5.0555 13 4.13328C13 3.21106 12.2556 2.46661 11.3333 2.46661C10.4111 2.46661 9.66667 3.21106 9.66667 4.13328C9.66667 4.26661 9.68889 4.39439 9.71667 4.52217L5.8 6.8055C5.5 6.52772 5.10556 6.3555 4.66667 6.3555C3.74444 6.3555 3 7.09995 3 8.02217C3 8.94439 3.74444 9.68884 4.66667 9.68884C5.10556 9.68884 5.5 9.51661 5.8 9.23884L9.75556 11.5499C9.72778 11.6666 9.71111 11.7888 9.71111 11.9111C9.71111 12.8055 10.4389 13.5333 11.3333 13.5333C12.2278 13.5333 12.9556 12.8055 12.9556 11.9111C12.9556 11.0166 12.2278 10.2888 11.3333 10.2888Z" fill="#605E5E"/>
</svg>
