<svg width="16" height="16" viewBox="0 0 16 16" fill="none" xmlns="http://www.w3.org/2000/svg">
<path d="M3.59971 10.8C4.92519 10.8 5.99971 9.72548 5.99971 8.4C5.99971 7.07452 4.92519 6 3.59971 6C2.27422 6 1.19971 7.07452 1.19971 8.4C1.19971 9.72548 2.27422 10.8 3.59971 10.8Z" fill="#EFEFEF"/>
<path d="M8.62842 10.6753C8.44601 10.9551 8.31181 11.2689 8.23877 11.606L6.11084 10.3775C6.31692 10.1162 6.48585 9.82428 6.60303 9.50635L8.62842 10.6753ZM8.32373 4.65381C8.43261 4.97517 8.59667 5.27079 8.80713 5.52783L6.42725 6.90186C6.2683 6.6025 6.06352 6.33154 5.82178 6.09815L8.32373 4.65381Z" fill="#EFEFEF"/>
<path d="M11.3741 5.75557C12.6996 5.75557 13.7741 4.68105 13.7741 3.35557C13.7741 2.03008 12.6996 0.955566 11.3741 0.955566C10.0486 0.955566 8.97412 2.03008 8.97412 3.35557C8.97412 4.68105 10.0486 5.75557 11.3741 5.75557Z" fill="#EFEFEF"/>
<path d="M11.3741 15.0017C12.6996 15.0017 13.7741 13.9271 13.7741 12.6017C13.7741 11.2762 12.6996 10.2017 11.3741 10.2017C10.0486 10.2017 8.97412 11.2762 8.97412 12.6017C8.97412 13.9271 10.0486 15.0017 11.3741 15.0017Z" fill="#EFEFEF"/>
</svg>
