<svg width="36" height="32" viewBox="0 0 36 32" fill="none" xmlns="http://www.w3.org/2000/svg">
<g clip-path="url(#clip0_9736_2570)">
<mask id="mask0_9736_2570" style="mask-type:luminance" maskUnits="userSpaceOnUse" x="0" y="0" width="36" height="32">
<path d="M36 0H0V32H36V0Z" fill="white"/>
</mask>
<g mask="url(#mask0_9736_2570)">
<path d="M13.7335 13.4092C12.5145 13.4092 11.4478 14.4759 11.4478 15.6949V16.7616C11.4478 17.9807 12.5145 19.0473 13.7335 19.0473C14.9526 19.0473 16.0193 17.9807 16.0193 16.7616V15.6949C16.0193 14.3235 14.9526 13.4092 13.7335 13.4092Z" fill="#EFEFEF"/>
<path d="M23.9429 15.2378C22.7239 15.2378 21.6572 16.3045 21.6572 17.5235V18.5902C21.6572 19.8092 22.7239 20.8759 23.9429 20.8759C25.162 20.8759 26.2287 19.8092 26.2287 18.5902V17.5235C26.0763 16.1521 25.162 15.2378 23.9429 15.2378Z" fill="#EFEFEF"/>
<path d="M15.5622 4.57124L12.8193 0.761719H0.78125V31.3903H35.0669V4.57124H15.5622ZM10.5336 18.895C10.5336 19.0474 10.3812 19.1998 10.2288 19.1998C8.70506 19.9617 7.79077 21.1808 7.79077 22.3998V25.5998C7.79077 25.9046 7.48601 26.2093 7.18125 26.2093C6.87648 26.0569 6.57172 25.9046 6.57172 25.4474V22.2474C6.57172 20.5712 7.79077 19.0474 9.77172 17.9808C10.0764 17.8284 10.3812 17.9808 10.5336 18.2855C10.5336 18.5903 10.5336 18.7427 10.5336 18.895ZM13.7336 20.1141C11.905 20.1141 10.3812 18.5903 10.3812 16.7617V15.695C10.3812 13.8665 11.905 12.3427 13.7336 12.3427C15.5622 12.3427 17.086 13.8665 17.086 15.695V16.7617C17.2383 18.5903 15.7145 20.1141 13.7336 20.1141ZM17.8479 18.1331C18.4574 18.4379 19.0669 18.7427 19.5241 19.1998L19.8288 19.5046L18.7622 20.1141L18.6098 19.9617C18.305 19.6569 17.8479 19.3522 17.3907 19.1998C17.086 19.0474 16.9336 18.7427 17.086 18.4379C17.2383 18.1331 17.5431 18.1331 17.8479 18.1331ZM20.286 21.0284C18.7622 21.7903 17.8479 23.0093 17.8479 24.2284V26.0569C17.8479 26.3617 17.5431 26.6665 17.2383 26.6665C16.9336 26.6665 16.6288 26.3617 16.6288 26.0569V24.2284C16.6288 22.5522 17.8479 21.0284 19.8288 19.9617C20.1336 19.8093 20.4383 19.9617 20.5907 20.2665C20.7431 20.5712 20.5907 20.876 20.286 21.0284ZM23.9431 21.7903C22.1145 21.7903 20.5907 20.2665 20.5907 18.4379V17.3712C20.5907 15.5427 22.1145 14.0188 23.9431 14.0188C25.7717 14.0188 27.2955 15.5427 27.2955 17.3712V18.4379C27.2955 20.4188 25.7717 21.7903 23.9431 21.7903ZM30.4955 24.6855C30.1907 24.6855 29.886 24.3808 29.886 24.076C29.886 22.8569 28.9717 21.6379 27.4479 20.876C27.1431 20.7236 26.9907 20.4188 27.1431 20.1141C27.2955 19.8093 27.6003 19.6569 27.905 19.8093C29.886 20.7236 31.105 22.2474 31.105 24.076C30.9526 24.5331 30.8003 24.6855 30.4955 24.6855ZM33.2383 8.83791H18.7622L16.9336 6.24743H33.3907V8.83791H33.2383Z" fill="#EFEFEF"/>
</g>
</g>
<defs>
<clipPath id="clip0_9736_2570">
<rect width="36" height="32" fill="white"/>
</clipPath>
</defs>
</svg>
