<svg width="16" height="16" viewBox="0 0 16 16" fill="none" xmlns="http://www.w3.org/2000/svg">
<g clip-path="url(#clip0_5461_4005)">
<path d="M8 16C12.4183 16 16 12.4183 16 8C16 3.58172 12.4183 0 8 0C3.58172 0 0 3.58172 0 8C0 12.4183 3.58172 16 8 16Z" fill="#1E2023"/>
<path d="M8 7.5C9.38071 7.5 10.5 6.38071 10.5 5C10.5 3.61929 9.38071 2.5 8 2.5C6.61929 2.5 5.5 3.61929 5.5 5C5.5 6.38071 6.61929 7.5 8 7.5Z" fill="#B2B2B2"/>
<path d="M4 13C4 10.7908 5.79085 9 8 9C10.2092 9 12 10.7908 12 13" stroke="#B2B2B2" stroke-linecap="round"/>
</g>
<defs>
<clipPath id="clip0_5461_4005">
<rect width="16" height="16" fill="white"/>
</clipPath>
</defs>
</svg>
