<svg width="16" height="16" viewBox="0 0 16 16" fill="none" xmlns="http://www.w3.org/2000/svg">
<path d="M7.99951 1.09619C9.56398 1.09619 10.8461 2.37744 10.8462 3.94189V5.56494C10.8462 6.54298 10.285 7.41264 9.53564 8.0122L9.44287 8.08544L9.40576 8.19775L9.24365 8.68505L9.14697 8.97509L9.40088 9.14404L13.9478 12.1753C13.9164 12.2208 13.8822 12.2715 13.8423 12.3247C13.6309 12.6066 13.2986 12.9872 12.8218 13.3687C11.8731 14.1275 10.3367 14.9038 7.99951 14.9038C5.66219 14.9038 4.12585 14.1275 3.17725 13.3687C2.70039 12.9872 2.36812 12.6066 2.15674 12.3247C2.11666 12.2713 2.08176 12.2209 2.05029 12.1753L6.59814 9.14404L6.85303 8.97509L6.75635 8.68505L6.59424 8.19775L6.55615 8.08544L6.46436 8.0122L6.32568 7.89697C5.64647 7.30385 5.15381 6.48192 5.15381 5.56494V3.94189C5.15388 2.37752 6.43516 1.09633 7.99951 1.09619Z" fill="#EFEFEF" stroke="#EFEFEF" stroke-width="0.8"/>
</svg>
