<svg width="16" height="16" viewBox="0 0 16 16" fill="none" xmlns="http://www.w3.org/2000/svg">
<path d="M7.99951 1.09641C9.56398 1.09641 10.8461 2.37766 10.8462 3.94211V5.56516C10.8462 6.5432 10.285 7.41286 9.53564 8.01242L9.44287 8.08566L9.40576 8.19797L9.24365 8.68527L9.14697 8.97531L9.40088 9.14426L13.9478 12.1755C13.9164 12.221 13.8822 12.2717 13.8423 12.3249C13.6309 12.6068 13.2986 12.9874 12.8218 13.3689C11.8731 14.1277 10.3367 14.904 7.99951 14.904C5.66219 14.904 4.12585 14.1277 3.17725 13.3689C2.70039 12.9874 2.36812 12.6068 2.15674 12.3249C2.11666 12.2715 2.08176 12.2211 2.05029 12.1755L6.59814 9.14426L6.85303 8.97531L6.75635 8.68527L6.59424 8.19797L6.55615 8.08566L6.46436 8.01242L6.32568 7.89719C5.64647 7.30407 5.15381 6.48214 5.15381 5.56516V3.94211C5.15388 2.37774 6.43516 1.09655 7.99951 1.09641Z" fill="#605E5E" stroke="#605E5E" stroke-width="0.8"/>
</svg>
