<svg width="16" height="16" viewBox="0 0 16 16" fill="none" xmlns="http://www.w3.org/2000/svg">
<g clip-path="url(#clip0_9712_8916)">
<path fill-rule="evenodd" clip-rule="evenodd" d="M13.6445 3.59556C13.8063 3.59556 13.9638 3.57685 14.1148 3.54148V5.72565C13.9638 5.69028 13.8063 5.67157 13.6445 5.67157C13.4515 5.67157 13.2647 5.69819 13.0875 5.74796V3.51916C13.2647 3.56893 13.4515 3.59556 13.6445 3.59556ZM11.6342 7.30012H8.75786L12.6947 3.36329C12.3854 3.20177 12.1224 2.96382 11.9307 2.67452L8.03148 6.57373V3.52906C7.86527 3.57246 7.69085 3.59556 7.51104 3.59556C7.33613 3.59556 7.16633 3.5737 7.00422 3.53257V6.57374L3.19284 2.76235C2.98597 3.04175 2.70992 3.26683 2.39 3.41229L6.27784 7.30012H3.55088C3.57986 7.43755 3.5951 7.58004 3.5951 7.7261C3.5951 7.9353 3.56383 8.1372 3.50571 8.32738H6.27783L2.51595 12.0893C2.82247 12.2549 3.08211 12.4962 3.26985 12.7881L7.00422 9.05376V11.9064C7.16633 11.8653 7.33613 11.8434 7.51104 11.8434C7.69085 11.8434 7.86527 11.8665 8.03148 11.9099V9.05377L11.6252 12.6475C11.8397 12.373 12.1223 12.1544 12.4477 12.0172L8.75787 8.32738H11.6794C11.6213 8.1372 11.59 7.9353 11.59 7.7261C11.59 7.58004 11.6052 7.43755 11.6342 7.30012ZM13.0875 9.70423V11.8627C13.1396 11.8587 13.1922 11.8567 13.2452 11.8567C13.556 11.8567 13.8507 11.9257 14.1148 12.0493V9.72655C13.9638 9.76192 13.8063 9.78062 13.6445 9.78062C13.4515 9.78062 13.2647 9.754 13.0875 9.70423ZM11.59 1.54103C11.59 1.78797 11.6336 2.02474 11.7134 2.24406H9.44213C9.52199 2.02474 9.56556 1.78797 9.56556 1.54103C9.56556 1.43071 9.55687 1.32241 9.54012 1.2168H11.6154C11.5987 1.32241 11.59 1.43071 11.59 1.54103ZM5.57994 2.24406C5.50008 2.02474 5.45651 1.78797 5.45651 1.54103C5.45651 1.43071 5.46521 1.32241 5.48195 1.2168H3.56966C3.5864 1.32241 3.5951 1.43071 3.5951 1.54103C3.5951 1.78797 3.55153 2.02474 3.47166 2.24406H5.57994ZM1.54057 3.59556C1.68012 3.59556 1.81642 3.58164 1.94816 3.55513V5.712C1.81642 5.68548 1.68012 5.67157 1.54057 5.67157C1.32461 5.67157 1.11643 5.70489 0.920898 5.76667V3.50045C1.11643 3.56224 1.32461 3.59556 1.54057 3.59556ZM0.920898 9.68552V11.9385C1.11643 11.8767 1.32461 11.8434 1.54057 11.8434C1.68012 11.8434 1.81642 11.8573 1.94816 11.8839V9.7402C1.81642 9.76671 1.68012 9.78062 1.54057 9.78062C1.32461 9.78062 1.11643 9.7473 0.920898 9.68552ZM5.52101 14.4107H3.5306C3.5727 14.2468 3.5951 14.075 3.5951 13.898C3.5951 13.7203 3.57254 13.5479 3.53014 13.3834H5.52146C5.47906 13.5479 5.45651 13.7203 5.45651 13.898C5.45651 14.075 5.4789 14.2468 5.52101 14.4107ZM9.50106 14.4107H11.2519C11.2119 14.2508 11.1907 14.0835 11.1907 13.9112C11.1907 13.7288 11.2145 13.5519 11.2592 13.3834H9.50061C9.54301 13.5479 9.56556 13.7203 9.56556 13.898C9.56556 14.075 9.54317 14.2468 9.50106 14.4107Z" fill="white"/>
<path d="M1.54089 9.26685C2.39191 9.26685 3.08179 8.57697 3.08179 7.72595C3.08179 6.87494 2.39191 6.18506 1.54089 6.18506C0.689882 6.18506 0 6.87494 0 7.72595C0 8.57697 0.689882 9.26685 1.54089 9.26685Z" fill="white"/>
<path d="M1.54089 15.4387C2.39191 15.4387 3.08179 14.7488 3.08179 13.8978C3.08179 13.0468 2.39191 12.3569 1.54089 12.3569C0.689882 12.3569 0 13.0468 0 13.8978C0 14.7488 0.689882 15.4387 1.54089 15.4387Z" fill="white"/>
<path d="M7.51063 3.08179C8.36164 3.08179 9.05152 2.39191 9.05152 1.54089C9.05152 0.689882 8.36164 0 7.51063 0C6.65961 0 5.96973 0.689882 5.96973 1.54089C5.96973 2.39191 6.65961 3.08179 7.51063 3.08179Z" fill="white"/>
<path d="M7.51063 15.4387C8.36164 15.4387 9.05152 14.7488 9.05152 13.8978C9.05152 13.0468 8.36164 12.3569 7.51063 12.3569C6.65961 12.3569 5.96973 13.0468 5.96973 13.8978C5.96973 14.7488 6.65961 15.4387 7.51063 15.4387Z" fill="white"/>
<path d="M13.6443 3.08179C14.4954 3.08179 15.1852 2.39191 15.1852 1.54089C15.1852 0.689882 14.4954 0 13.6443 0C12.7933 0 12.1035 0.689882 12.1035 1.54089C12.1035 2.39191 12.7933 3.08179 13.6443 3.08179Z" fill="white"/>
<path d="M13.6443 9.26685C14.4954 9.26685 15.1852 8.57697 15.1852 7.72595C15.1852 6.87494 14.4954 6.18506 13.6443 6.18506C12.7933 6.18506 12.1035 6.87494 12.1035 7.72595C12.1035 8.57697 12.7933 9.26685 13.6443 9.26685Z" fill="white"/>
<path d="M13.245 15.4387C14.096 15.4387 14.7859 14.7488 14.7859 13.8978C14.7859 13.0468 14.096 12.3569 13.245 12.3569C12.3939 12.3569 11.7041 13.0468 11.7041 13.8978C11.7041 14.7488 12.3939 15.4387 13.245 15.4387Z" fill="white"/>
<path d="M7.51794 9.0305C8.18988 9.0305 8.7346 8.48578 8.7346 7.81383C8.7346 7.14189 8.18988 6.59717 7.51794 6.59717C6.84599 6.59717 6.30127 7.14189 6.30127 7.81383C6.30127 8.48578 6.84599 9.0305 7.51794 9.0305Z" fill="white"/>
<path d="M1.54089 3.08179C2.39191 3.08179 3.08179 2.39191 3.08179 1.54089C3.08179 0.689882 2.39191 0 1.54089 0C0.689882 0 0 0.689882 0 1.54089C0 2.39191 0.689882 3.08179 1.54089 3.08179Z" fill="white"/>
</g>
<defs>
<clipPath id="clip0_9712_8916">
<rect width="16" height="16" fill="white"/>
</clipPath>
</defs>
</svg>
