<svg width="16" height="16" viewBox="0 0 16 16" fill="none" xmlns="http://www.w3.org/2000/svg">
<g clip-path="url(#clip0_9712_8932)">
<path d="M8.00049 0.833496C8.19059 0.833619 8.3645 0.941384 8.44873 1.11182L10.3921 5.04932L14.7388 5.68506C14.927 5.71257 15.0834 5.84496 15.1421 6.02588C15.2008 6.20684 15.1523 6.40581 15.0161 6.53857L11.8706 9.6001L12.6128 13.9292C12.6449 14.1167 12.5675 14.3066 12.4136 14.4185C12.2596 14.53 12.0555 14.5441 11.8872 14.4556L7.99951 12.4116L4.11279 14.4556C3.94444 14.5441 3.74038 14.5301 3.58643 14.4185C3.4325 14.3066 3.35514 14.1167 3.38721 13.9292L4.12939 9.60107L0.984863 6.53857C0.848554 6.40581 0.799221 6.20688 0.85791 6.02588C0.916617 5.84491 1.07298 5.71257 1.26123 5.68506L5.60791 5.04932L7.55225 1.11182L7.5874 1.05127C7.6797 0.916231 7.83394 0.833496 8.00049 0.833496Z" stroke="white" stroke-linecap="round" stroke-linejoin="round"/>
<path d="M8 10.4331C9.1046 10.4331 10 9.53771 10 8.43311C10 7.32851 9.1046 6.43311 8 6.43311C6.8954 6.43311 6 7.32851 6 8.43311C6 9.53771 6.8954 10.4331 8 10.4331Z" stroke="white"/>
</g>
<defs>
<clipPath id="clip0_9712_8932">
<rect width="16" height="16" fill="white"/>
</clipPath>
</defs>
</svg>
