<svg width="16" height="16" viewBox="0 0 16 16" fill="none" xmlns="http://www.w3.org/2000/svg">
<path d="M0.666504 3H4.6665" stroke="white" stroke-linecap="round" stroke-linejoin="round"/>
<path d="M7.3335 3H15.3335" stroke="white" stroke-linecap="round" stroke-linejoin="round"/>
<path d="M5.99984 4.33317C6.73624 4.33317 7.33317 3.73622 7.33317 2.99984C7.33317 2.26346 6.73624 1.6665 5.99984 1.6665C5.26346 1.6665 4.6665 2.26346 4.6665 2.99984C4.6665 3.73622 5.26346 4.33317 5.99984 4.33317Z" stroke="white"/>
<path d="M0.666504 8H8.6665" stroke="white" stroke-linecap="round" stroke-linejoin="round"/>
<path d="M11.3335 8H15.3335" stroke="white" stroke-linecap="round" stroke-linejoin="round"/>
<path d="M9.99984 9.33317C10.7362 9.33317 11.3332 8.73624 11.3332 7.99984C11.3332 7.26344 10.7362 6.6665 9.99984 6.6665C9.26344 6.6665 8.6665 7.26344 8.6665 7.99984C8.6665 8.73624 9.26344 9.33317 9.99984 9.33317Z" stroke="white"/>
<path d="M0.666504 13H5.99984" stroke="white" stroke-linecap="round" stroke-linejoin="round"/>
<path d="M8.6665 13H15.3332" stroke="white" stroke-linecap="round" stroke-linejoin="round"/>
<path d="M7.33333 14.3332C8.06973 14.3332 8.66667 13.7362 8.66667 12.9998C8.66667 12.2634 8.06973 11.6665 7.33333 11.6665C6.59695 11.6665 6 12.2634 6 12.9998C6 13.7362 6.59695 14.3332 7.33333 14.3332Z" stroke="white"/>
</svg>
