<svg width="32" height="32" viewBox="0 0 32 32" fill="none" xmlns="http://www.w3.org/2000/svg">
<path d="M14.1077 29.8809C14.1077 29.8809 12.5946 26.6486 13.4012 22.0753C14.4551 16.1142 24.5643 11.2364 24.5643 11.2364C10.5751 15.6048 5.03475 21.0974 14.1077 29.8751" fill="#C70A1A"/>
<path d="M14.1018 29.8809C14.1018 29.8809 11.576 24.8743 13.0067 19.4578C14.9909 11.9508 27.4905 6.67479 27.4905 6.67479C9.00307 10.3756 0.866248 19.9614 14.1018 29.8809Z" fill="#9E0F05"/>
<path d="M14.1077 29.8868C13.0892 28.3936 8.96776 23.2113 9.89801 17.2326C11.0932 9.53238 29.8868 2.11321 29.8868 2.11321C6.47725 7.81666 -10.3439 18.152 14.1077 29.8868Z" fill="#ED0000"/>
</svg>

