<svg width="20" height="20" viewBox="0 0 20 20" fill="none" xmlns="http://www.w3.org/2000/svg">
<path d="M13 7.8C13 8.2 12.9 8.5 12.8 8.8C12.7 9.1 12.5 9.3 12.3 9.6L11.2 11C11.1 11.1 11.1 11.2 11 11.3C11 11.4 10.9 11.6 10.9 11.7V13H9.1V11.6C9.1 11.3 9.1 11 9.2 10.8C9.3 10.6 9.4 10.4 9.6 10.1L10.7 8.8C10.8 8.6 10.9 8.5 11 8.3C11.1 8.1 11.1 8 11.1 7.8C11.1 7.5 11 7.2 10.8 7C10.6 6.8 10.3 6.7 10 6.7C9.6 6.7 9.3 6.8 9.1 7C8.9 7.2 8.9 7.5 8.9 7.8H7C7 7.4 7.1 7 7.2 6.6C7.4 6.3 7.6 6 7.9 5.8C8.2 5.6 8.5 5.4 8.8 5.2C9.2 5.1 9.6 5 10 5C10.4 5 10.8 5.1 11.1 5.2C11.5 5.3 11.8 5.5 12.1 5.8C12.4 6 12.6 6.3 12.8 6.7C12.9 7 13 7.4 13 7.8Z" fill="#CFCFCF"/>
<path d="M11 14H9V16H11V14Z" fill="#CFCFCF"/>
</svg>
