<svg width="16" height="16" viewBox="0 0 16 16" fill="none" xmlns="http://www.w3.org/2000/svg">
<path d="M10.8984 8.3C11.4984 9.4 11.6984 10.5 11.8984 11.4" stroke="#CFCFCF" stroke-miterlimit="10"/>
<path d="M5.60156 4.4C6.60156 4.7 8.00156 5.2 9.00156 6" stroke="#CFCFCF" stroke-miterlimit="10"/>
<path d="M12 11.5C11.2 11.5 10.5 12.2 10.5 13C10.5 13.8 11.2 14.5 12 14.5C12.8 14.5 13.5 13.8 13.5 13C13.5 12.2 12.8 11.5 12 11.5Z" stroke="#EF7C28" stroke-miterlimit="10"/>
<path d="M10 5.5C9.2 5.5 8.5 6.2 8.5 7C8.5 7.8 9.2 8.5 10 8.5C10.8 8.5 11.5 7.8 11.5 7C11.5 6.2 10.8 5.5 10 5.5Z" stroke="#EF7C28" stroke-miterlimit="10"/>
<path d="M4 2.5C3.2 2.5 2.5 3.2 2.5 4C2.5 4.8 3.2 5.5 4 5.5C4.8 5.5 5.5 4.8 5.5 4C5.5 3.2 4.8 2.5 4 2.5Z" stroke="#EF7C28" stroke-miterlimit="10"/>
</svg>
