<svg width="16" height="16" viewBox="0 0 16 16" fill="none" xmlns="http://www.w3.org/2000/svg">
<path d="M13 12C13 5 9 1.5 3 1.5" stroke="#CFCFCF" stroke-miterlimit="10"/>
<path d="M5.5 4.3H7L5.9 6.5C5.9 6.7 5.8 8.3 5.8 9H4.6C4.6 8.8 4.5 8.5 4.5 8.3C4 8.7 3.5 9 2.9 9C2.3 9 1.9 8.8 1.5 8.5C1.2 8.2 1 7.7 1 7.1C1 6.3 1.2 5.7 1.7 5.1C2.2 4.5 2.8 4.2 3.6 4.2C4.2 4.2 4.8 4.4 5.2 4.9L5.5 4.3ZM2.2 6.8C2.2 7.1 2.3 7.4 2.4 7.5C2.5 7.6 2.8 7.7 3 7.7C3.3 7.7 3.6 7.5 3.8 7.2C4.1 7 4.2 6.6 4.2 6.2C4.2 5.9 4.1 5.7 4 5.6C3.8 5.4 3.6 5.3 3.4 5.3C3 5.3 2.8 5.5 2.5 5.8C2.3 6.1 2.2 6.4 2.2 6.8Z" fill="#CFCFCF"/>
<path d="M9 15L6 12.5L9 10V15Z" fill="#EF7C28"/>
<path d="M12 12.5H8" stroke="#EF7C28" stroke-miterlimit="10"/>
<path d="M13 11.5C12.2 11.5 11.5 12.2 11.5 13C11.5 13.8 12.2 14.5 13 14.5C13.8 14.5 14.5 13.8 14.5 13C14.5 12.2 13.8 11.5 13 11.5Z" stroke="#EF7C28" stroke-miterlimit="10"/>
<path d="M3 11.5C2.2 11.5 1.5 12.2 1.5 13C1.5 13.8 2.2 14.5 3 14.5C3.8 14.5 4.5 13.8 4.5 13C4.5 12.2 3.8 11.5 3 11.5Z" stroke="#EF7C28" stroke-miterlimit="10"/>
</svg>
