<svg width="16" height="16" viewBox="0 0 16 16" fill="none" xmlns="http://www.w3.org/2000/svg">
<path d="M7 15L10 12.5L7 10V15Z" fill="#EF7C28"/>
<path d="M4 12.5H8" stroke="#EF7C28" stroke-miterlimit="10"/>
<path d="M13 11.5C13 4.5 9 1.5 3 1.5" stroke="#CFCFCF" stroke-miterlimit="10"/>
<path d="M5.5 4.30001H7L5.9 6.50001C5.9 6.70001 5.8 8.30001 5.8 9.00001H4.6C4.6 8.80001 4.5 8.50001 4.5 8.30001C4 8.70001 3.5 9.00001 2.9 9.00001C2.3 9.00001 1.9 8.80001 1.5 8.50001C1.2 8.20001 1 7.70001 1 7.10001C1 6.30001 1.2 5.70001 1.7 5.10001C2.2 4.50001 2.8 4.20001 3.6 4.20001C4.2 4.20001 4.8 4.40001 5.2 4.90001L5.5 4.30001ZM2.2 6.80001C2.2 7.10001 2.3 7.40001 2.4 7.50001C2.5 7.60001 2.8 7.70001 3 7.70001C3.3 7.70001 3.6 7.50001 3.8 7.20001C4.1 7.00001 4.2 6.60001 4.2 6.20001C4.2 5.90001 4.1 5.70001 4 5.60001C3.8 5.40001 3.6 5.30001 3.4 5.30001C3 5.30001 2.8 5.50001 2.5 5.80001C2.3 6.10001 2.2 6.40001 2.2 6.80001Z" fill="#CFCFCF"/>
<path d="M13 11.5C12.2 11.5 11.5 12.2 11.5 13C11.5 13.8 12.2 14.5 13 14.5C13.8 14.5 14.5 13.8 14.5 13C14.5 12.2 13.8 11.5 13 11.5Z" stroke="#EF7C28" stroke-miterlimit="10"/>
<path d="M3 11.5C2.2 11.5 1.5 12.2 1.5 13C1.5 13.8 2.2 14.5 3 14.5C3.8 14.5 4.5 13.8 4.5 13C4.5 12.2 3.8 11.5 3 11.5Z" stroke="#EF7C28" stroke-miterlimit="10"/>
</svg>
