<svg width="16" height="16" viewBox="0 0 16 16" fill="none" xmlns="http://www.w3.org/2000/svg">
<path d="M12.5 11.5C12.5 11.5 12.5 8.5 9.5 5.5C6.5 2.5 3.5 2.5 3.5 2.5" stroke="#CFCFCF" stroke-miterlimit="10"/>
<path d="M4 2H3V5H4V2Z" fill="#EF7C28"/>
<path d="M4 7H3V9H4V7Z" fill="#EF7C28"/>
<path d="M12.8984 11.5C12.0984 11.5 11.3984 12.2 11.3984 13C11.3984 13.8 12.0984 14.5 12.8984 14.5C13.6984 14.5 14.3984 13.8 14.3984 13C14.3984 12.2 13.6984 11.5 12.8984 11.5Z" stroke="#EF7C28" stroke-miterlimit="10"/>
<path d="M4 11.5C3.2 11.5 2.5 12.2 2.5 13C2.5 13.8 3.2 14.5 4 14.5C4.8 14.5 5.5 13.8 5.5 13C5.5 12.2 4.8 11.5 4 11.5Z" stroke="#EF7C28" stroke-miterlimit="10"/>
</svg>
