<svg width="16" height="16" viewBox="0 0 16 16" fill="none" xmlns="http://www.w3.org/2000/svg">
<path d="M12.6 11.6C13.2 6.3 12 3.9 8.5 3.5" stroke="#EF7C28" stroke-miterlimit="10"/>
<path d="M9 1L6 3.5L9 6V1Z" fill="#EF7C28"/>
<path d="M12 11.5C11.2 11.5 10.5 12.2 10.5 13C10.5 13.8 11.2 14.5 12 14.5C12.8 14.5 13.5 13.8 13.5 13C13.5 12.2 12.8 11.5 12 11.5Z" stroke="#EF7C28" stroke-miterlimit="10"/>
<path d="M4.10156 11.5C3.30156 11.5 2.60156 12.2 2.60156 13C2.60156 13.8 3.30156 14.5 4.10156 14.5C4.90156 14.5 5.60156 13.8 5.60156 13C5.60156 12.2 4.90156 11.5 4.10156 11.5Z" stroke="#CFCFCF" stroke-miterlimit="10"/>
<path d="M4.10156 2.5C3.30156 2.5 2.60156 3.2 2.60156 4C2.60156 4.8 3.30156 5.5 4.10156 5.5C4.90156 5.5 5.60156 4.8 5.60156 4C5.60156 3.2 4.90156 2.5 4.10156 2.5Z" stroke="#CFCFCF" stroke-miterlimit="10"/>
</svg>
