<svg width="16" height="16" viewBox="0 0 16 16" fill="none" xmlns="http://www.w3.org/2000/svg">
<path d="M12.5 12C12.5 5 8 1.5 2 1.5" stroke="#CFCFCF" stroke-miterlimit="10"/>
<path d="M9.5 12.5C9.5 8.5 6.5 5.5 3.5 5.5" stroke="#EF7C28" stroke-miterlimit="10"/>
<path d="M4 3L1 5.5L4 8V3Z" fill="#EF7C28"/>
<path d="M10 12H7V13H10V12Z" fill="#EF7C28"/>
<path d="M13 11.5C12.2 11.5 11.5 12.2 11.5 13C11.5 13.8 12.2 14.5 13 14.5C13.8 14.5 14.5 13.8 14.5 13C14.5 12.2 13.8 11.5 13 11.5Z" stroke="#CFCFCF" stroke-miterlimit="10"/>
<path d="M3 11.5C2.2 11.5 1.5 12.2 1.5 13C1.5 13.8 2.2 14.5 3 14.5C3.8 14.5 4.5 13.8 4.5 13C4.5 12.2 3.8 11.5 3 11.5Z" stroke="#EF7C28" stroke-miterlimit="10"/>
</svg>
