<svg width="16" height="16" viewBox="0 0 16 16" fill="none" xmlns="http://www.w3.org/2000/svg">
<path d="M9.19922 2.10001C11.8992 2.70001 13.9992 5.10001 13.9992 8.00001C13.9992 10.9 11.8992 13.3 9.19922 13.9" stroke="#CFCFCF" stroke-miterlimit="10"/>
<path d="M6.7 13.9C4.1 13.2 2 10.8 2 8C2 5.3 3.9 2.5 6.8 2.1" stroke="#CFCFCF" stroke-miterlimit="10"/>
<path d="M8 0.5C7.2 0.5 6.5 1.2 6.5 2C6.5 2.8 7.2 3.5 8 3.5C8.8 3.5 9.5 2.8 9.5 2C9.5 1.2 8.8 0.5 8 0.5Z" stroke="#EF7C28" stroke-miterlimit="10"/>
<path d="M8 12.5C7.2 12.5 6.5 13.2 6.5 14C6.5 14.8 7.2 15.5 8 15.5C8.8 15.5 9.5 14.8 9.5 14C9.5 13.2 8.8 12.5 8 12.5Z" stroke="#EF7C28" stroke-miterlimit="10"/>
</svg>
