<svg width="16" height="16" viewBox="0 0 16 16" fill="none" xmlns="http://www.w3.org/2000/svg">
<g clip-path="url(#clip0_3264_5116)">
<path d="M12.5008 9.40001C11.8008 11.4 10.0008 12.8 7.80078 12.8C5.00078 12.8 2.80078 10.6 2.80078 7.80001C2.80078 7.00001 3.00078 6.20001 3.30078 5.60001" stroke="#CFCFCF" stroke-miterlimit="10"/>
<path d="M4.60156 3.99999C5.50156 3.29999 6.60156 2.79999 7.80156 2.79999C10.1016 2.79999 12.0016 4.39999 12.6016 6.49999" stroke="#CFCFCF" stroke-miterlimit="10"/>
<path d="M8 6.5C7.2 6.5 6.5 7.2 6.5 8C6.5 8.8 7.2 9.5 8 9.5C8.8 9.5 9.5 8.8 9.5 8C9.5 7.2 8.8 6.5 8 6.5Z" stroke="#CFCFCF" stroke-miterlimit="10"/>
<path d="M3 2.5C2.2 2.5 1.5 3.2 1.5 4C1.5 4.8 2.2 5.5 3 5.5C3.8 5.5 4.5 4.8 4.5 4C4.5 3.2 3.8 2.5 3 2.5Z" stroke="#EF7C28" stroke-miterlimit="10"/>
<path d="M3 10.5C2.2 10.5 1.5 11.2 1.5 12C1.5 12.8 2.2 13.5 3 13.5C3.8 13.5 4.5 12.8 4.5 12C4.5 11.2 3.8 10.5 3 10.5Z" stroke="#EF7C28" stroke-miterlimit="10"/>
<path d="M13 6.5C12.2 6.5 11.5 7.2 11.5 8C11.5 8.8 12.2 9.5 13 9.5C13.8 9.5 14.5 8.8 14.5 8C14.5 7.2 13.8 6.5 13 6.5Z" stroke="#EF7C28" stroke-miterlimit="10"/>
<path d="M5.19922 0.299988C6.59922 4.89999 1.49922 7.19999 0.199219 7.19999" stroke="#EF7C28" stroke-miterlimit="10"/>
<path d="M12.3008 6.49999C12.6008 4.99999 13.6008 3.59999 15.2008 2.79999" stroke="#EF7C28" stroke-miterlimit="10"/>
<path d="M15.1984 12.8C13.6984 12 12.6984 10.7 12.3984 9.20001" stroke="#EF7C28" stroke-miterlimit="10"/>
<path d="M4.10156 11C6.10156 12.5 6.20156 14.2 6.20156 15.7" stroke="#EF7C28" stroke-miterlimit="10"/>
<path d="M0.199219 10.2C1.59922 10.2 2.79922 10.4 3.69922 10.8" stroke="#EF7C28" stroke-miterlimit="10"/>
</g>
<defs>
<clipPath id="clip0_3264_5116">
<rect width="16" height="16" fill="white"/>
</clipPath>
</defs>
</svg>
