<svg width="16" height="16" viewBox="0 0 16 16" fill="none" xmlns="http://www.w3.org/2000/svg">
<path d="M4.60156 5.3C5.50156 4.5 6.70156 4 8.00156 4C10.1016 4 11.8016 5.3 12.6016 7.1" stroke="#CFCFCF" stroke-miterlimit="10"/>
<path d="M12.7 10.7C12 12.6 10.1 14 8 14C5.2 14 3 11.8 3 9C3 8.1 3.4 6.9 3.8 6.2" stroke="#CFCFCF" stroke-miterlimit="10"/>
<path d="M13 7.5C12.2 7.5 11.5 8.2 11.5 9C11.5 9.8 12.2 10.5 13 10.5C13.8 10.5 14.5 9.8 14.5 9C14.5 8.2 13.8 7.5 13 7.5Z" stroke="#EF7C28" stroke-miterlimit="10"/>
<path d="M8 7.5C7.2 7.5 6.5 8.2 6.5 9C6.5 9.8 7.2 10.5 8 10.5C8.8 10.5 9.5 9.8 9.5 9C9.5 8.2 8.8 7.5 8 7.5Z" stroke="#CFCFCF" stroke-miterlimit="10"/>
<path d="M3 3.5C2.2 3.5 1.5 4.2 1.5 5C1.5 5.8 2.2 6.5 3 6.5C3.8 6.5 4.5 5.8 4.5 5C4.5 4.2 3.8 3.5 3 3.5Z" stroke="#EF7C28" stroke-miterlimit="10"/>
<path d="M12.6992 7.5C13.0992 6.1 13.9992 4.8 15.4992 4" stroke="#EF7C28" stroke-miterlimit="10"/>
<path d="M15.4992 14C13.9992 13.3 13.0992 12 12.6992 10.5" stroke="#EF7C28" stroke-miterlimit="10"/>
<path d="M5.50156 0C5.50156 4.7 3.70156 7.7 0.101562 8" stroke="#EF7C28" stroke-miterlimit="10"/>
</svg>
