<svg width="16" height="16" viewBox="0 0 16 16" fill="none" xmlns="http://www.w3.org/2000/svg">
<path d="M5.99922 11C5.99922 10.7 5.99922 10.5 6.09922 10.2C5.59922 10.2 5.09922 9.90001 4.99922 9.40001C4.89922 9.10001 4.69922 9.00001 4.49922 9.00001C4.19922 9.00001 4.09922 9.20001 3.99922 9.40001C3.89922 9.70001 3.69922 10 3.49922 10.2C3.19922 10.4 2.79922 10.4 2.39922 10.2C2.19922 10.2 1.99922 10 1.89922 9.70001C1.69922 9.30001 1.69922 8.90001 1.89922 8.60001C2.09922 8.30001 2.39922 8.10001 2.69922 8.00001C2.89922 8.00001 3.09922 7.70001 3.09922 7.50001C3.09922 7.20001 2.89922 7.00001 2.69922 7.00001C2.19922 6.90001 1.79922 6.40001 1.79922 5.90001C1.79922 5.30001 2.39922 4.90001 2.79922 4.80001C2.99922 4.70001 3.19922 4.50001 3.19922 4.30001C3.19922 4.10001 2.99922 3.90001 2.79922 3.80001C2.39922 3.70001 2.09922 3.50001 1.89922 3.10001C1.79922 2.80001 1.79922 2.50001 1.89922 2.20001V2.10001C1.99922 1.80001 2.19922 1.60001 2.39922 1.50001C2.79922 1.30001 3.09922 1.30001 3.49922 1.50001C3.79922 1.70001 4.09922 2.00001 4.19922 2.40001C4.19922 2.60001 4.39922 2.80001 4.69922 2.80001C4.89922 2.80001 5.09922 2.70001 5.19922 2.40001C5.29922 2.00001 5.79922 1.70001 6.29922 1.70001C6.79922 1.70001 7.29922 2.10001 7.39922 2.50001C7.49922 2.70001 7.69922 2.90001 7.89922 2.90001H8.19922C8.39922 2.90001 8.59922 2.80001 8.69922 2.50001C8.79922 2.00001 9.29922 1.70001 9.79922 1.70001C10.2992 1.70001 10.7992 2.00001 10.8992 2.50001C10.9992 2.70001 11.1992 2.90001 11.3992 2.90001C11.5992 2.90001 11.7992 2.70001 11.8992 2.50001C11.8992 2.20001 12.1992 1.80001 12.4992 1.60001C12.6992 1.50001 13.0992 1.30001 13.5992 1.60001C13.6992 1.60001 13.9992 1.80001 14.0992 2.10001C14.1992 2.50001 14.1992 2.90001 13.9992 3.30001C13.7992 3.60001 13.5992 3.80001 13.1992 3.90001C12.9992 3.90001 12.7992 4.20001 12.7992 4.40001C12.7992 4.60001 12.9992 4.80001 13.1992 4.90001C13.6992 5.00001 14.0992 5.50001 14.0992 6.00001C14.0992 6.40001 13.8992 6.70001 13.5992 6.90001C13.8992 7.10001 14.1992 7.30001 14.3992 7.50001C14.7992 7.10001 15.0992 6.60001 15.0992 6.00001C15.0992 5.40001 14.7992 4.80001 14.3992 4.40001C14.5992 4.20001 14.6992 4.10001 14.7992 3.80001C15.0992 3.20001 15.1992 2.50001 14.8992 1.70001C14.5992 1.20001 14.1992 0.800006 13.8992 0.700006C13.2992 0.400006 12.5992 0.400006 11.9992 0.800006C11.6992 0.900006 11.4992 1.10001 11.2992 1.40001C10.8992 1.00001 10.3992 0.800006 9.79922 0.800006C9.09922 0.700006 8.39922 1.00001 7.99922 1.60001C7.59922 1.00001 6.99922 0.700006 6.29922 0.700006C5.69922 0.700006 5.09922 0.900006 4.79922 1.30001C4.59922 1.10001 4.29922 0.800006 3.99922 0.700006C3.39922 0.400006 2.69922 0.400006 2.09922 0.700006C1.49922 0.900006 1.19922 1.30001 0.999219 1.80001C0.799219 2.40001 0.799219 3.00001 0.999219 3.60001C1.09922 3.90001 1.29922 4.10001 1.49922 4.30001C0.999219 4.70001 0.699219 5.30001 0.699219 5.90001C0.699219 6.50001 0.999219 7.10001 1.39922 7.50001C1.29922 7.70001 1.19922 7.80001 1.09922 8.10001C0.699219 8.70001 0.699219 9.40001 0.999219 10.1C1.29922 10.6 1.69922 11 2.09922 11.1C2.79922 11.3 3.49922 11.3 3.99922 11C4.19922 10.9 4.39922 10.7 4.59922 10.5C4.99922 10.9 5.49922 11.1 6.09922 11.1C5.99922 11.1 5.99922 11.1 5.99922 11Z" fill="#CFCFCF"/>
<path d="M15 10.3L13.7 9.9L14.3 8.6L13.4 7.7L12.1 8.3L11.7 7H10.3L9.9 8.3L8.6 7.7L7.7 8.6L8.3 9.9L7 10.3V11.7L8.3 12.1L7.7 13.4L8.6 14.3L9.9 13.7L10.3 15H11.7L12.1 13.7L13.4 14.3L14.3 13.4L13.7 12.1L15 11.7V10.3ZM11 12.3C10.3 12.3 9.7 11.7 9.7 11C9.7 10.3 10.3 9.7 11 9.7C11.7 9.7 12.3 10.3 12.3 11C12.3 11.7 11.7 12.3 11 12.3Z" fill="#EF7C28"/>
</svg>
