<svg width="16" height="16" viewBox="0 0 16 16" fill="none" xmlns="http://www.w3.org/2000/svg">
<g clip-path="url(#clip0_3264_5021)">
<path d="M8 1C4.1 1 1 4.1 1 8C1 11.9 4.1 15 8 15C11.9 15 15 11.9 15 8C15 4.1 11.9 1 8 1ZM8 11C6.3 11 5 9.6 5 8C5 6.3 6.4 5 8 5C9.6 5 11 6.4 11 8C11 9.7 9.7 11 8 11Z" fill="#616161"/>
<path d="M8 15C11.866 15 15 11.866 15 8C15 4.13401 11.866 1 8 1C4.13401 1 1 4.13401 1 8C1 11.866 4.13401 15 8 15Z" stroke="#EF7C28" stroke-miterlimit="10"/>
<path d="M8 11C9.65685 11 11 9.65685 11 8C11 6.34315 9.65685 5 8 5C6.34315 5 5 6.34315 5 8C5 9.65685 6.34315 11 8 11Z" stroke="#CFCFCF" stroke-miterlimit="10"/>
</g>
<defs>
<clipPath id="clip0_3264_5021">
<rect width="16" height="16" fill="white"/>
</clipPath>
</defs>
</svg>
