<svg width="16" height="16" viewBox="0 0 16 16" fill="none" xmlns="http://www.w3.org/2000/svg">
<path d="M6.70312 3.79999C8.20312 2.59999 9.90312 1.89999 11.4031 1.99999" stroke="#CFCFCF" stroke-miterlimit="10"/>
<path d="M13.8016 3.5C15.3016 7.3 7.60159 16.4 3.00159 13.4C1.00159 12 2.30159 8.4 4.70159 5.6" stroke="#CFCFCF" stroke-miterlimit="10"/>
<path d="M13 0.5C12.2 0.5 11.5 1.2 11.5 2C11.5 2.8 12.2 3.5 13 3.5C13.8 3.5 14.5 2.8 14.5 2C14.5 1.2 13.8 0.5 13 0.5Z" stroke="#CFCFCF" stroke-miterlimit="10"/>
<path d="M5 2.5C4.2 2.5 3.5 3.2 3.5 4C3.5 4.8 4.2 5.5 5 5.5C5.8 5.5 6.5 4.8 6.5 4C6.5 3.2 5.8 2.5 5 2.5Z" stroke="#CFCFCF" stroke-miterlimit="10"/>
<path d="M8 6.5C7.2 6.5 6.5 7.2 6.5 8C6.5 8.8 7.2 9.5 8 9.5C8.8 9.5 9.5 8.8 9.5 8C9.5 7.2 8.8 6.5 8 6.5Z" stroke="#EF7C28" stroke-miterlimit="10"/>
</svg>
