<svg width="16" height="16" viewBox="0 0 16 16" fill="none" xmlns="http://www.w3.org/2000/svg">
<path d="M3.69922 5.5C4.19922 3.1 5.99922 1.5 7.99922 1.5C10.0992 1.5 11.7992 3.1 12.3992 5.5" stroke="#CFCFCF" stroke-miterlimit="10"/>
<path d="M6.79766 11.5L4.59766 8.5" stroke="#CFCFCF" stroke-miterlimit="10"/>
<path d="M12 5.5C11.2 5.5 10.5 6.2 10.5 7C10.5 7.8 11.2 8.5 12 8.5C12.8 8.5 13.5 7.8 13.5 7C13.5 6.2 12.8 5.5 12 5.5Z" stroke="#EF7C28" stroke-miterlimit="10"/>
<path d="M4 5.5C3.2 5.5 2.5 6.2 2.5 7C2.5 7.8 3.2 8.5 4 8.5C4.8 8.5 5.5 7.8 5.5 7C5.5 6.2 4.8 5.5 4 5.5Z" stroke="#EF7C28" stroke-miterlimit="10"/>
<path d="M8 11.5C7.2 11.5 6.5 12.2 6.5 13C6.5 13.8 7.2 14.5 8 14.5C8.8 14.5 9.5 13.8 9.5 13C9.5 12.2 8.8 11.5 8 11.5Z" stroke="#EF7C28" stroke-miterlimit="10"/>
</svg>
