<svg width="16" height="16" viewBox="0 0 16 16" fill="none" xmlns="http://www.w3.org/2000/svg">
<g clip-path="url(#clip0_3264_5092)">
<path d="M13.2008 7.40002L7.30078 13.3V14.7L14.6008 7.40002H13.2008Z" fill="#CFCFCF"/>
<path d="M1.39844 11.4L4.59844 14.6V13.2L2.79844 11.4H1.39844Z" fill="#CFCFCF"/>
<path d="M9.99844 0L1.39844 8.6H2.79844L9.99844 1.4L13.1984 4.6H14.5984L9.99844 0Z" fill="#CFCFCF"/>
<path d="M14 5C14.6 5 15 5.4 15 6C15 6.6 14.6 7 14 7C13.4 7 13 6.6 13 6C13 5.4 13.4 5 14 5ZM14 4C12.9 4 12 4.9 12 6C12 7.1 12.9 8 14 8C15.1 8 16 7.1 16 6C16 4.9 15.1 4 14 4Z" fill="#EF7C28"/>
<path d="M2 9C2.6 9 3 9.4 3 10C3 10.6 2.6 11 2 11C1.4 11 1 10.6 1 10C1 9.4 1.4 9 2 9ZM2 8C0.9 8 0 8.9 0 10C0 11.1 0.9 12 2 12C3.1 12 4 11.1 4 10C4 8.9 3.1 8 2 8Z" fill="#EF7C28"/>
<path d="M6 13C6.6 13 7 13.4 7 14C7 14.6 6.6 15 6 15C5.4 15 5 14.6 5 14C5 13.4 5.4 13 6 13ZM6 12C4.9 12 4 12.9 4 14C4 15.1 4.9 16 6 16C7.1 16 8 15.1 8 14C8 12.9 7.1 12 6 12Z" fill="#EF7C28"/>
</g>
<defs>
<clipPath id="clip0_3264_5092">
<rect width="16" height="16" fill="white"/>
</clipPath>
</defs>
</svg>
