<svg width="16" height="16" viewBox="0 0 16 16" fill="none" xmlns="http://www.w3.org/2000/svg">
<path d="M10 3.90002C10 2.80002 10.9 1.90002 12 1.90002C13.1 1.90002 14 2.80002 14 3.90002C14 5.00002 13.2 5.90002 12.1 5.90002C12.1 6.00002 12.1 6.00002 12.1 6.00002C13.1 6.10002 14 6.90002 14 8.00002C14 9.00002 13.2 9.90002 12.2 9.90002C12.2 10 12.2 10 12.2 10C13.3 10.1 14.1 10.9 14.1 12C14.1 13.1 13.2 14 12.1 14C11 14 10.2 13.1 10.1 12.1C10 13.2 9.2 14 8.1 14C7 14 6.1 13.1 6.1 12C6.1 13.1 5.2 14 4.1 14C3 14 2.1 13.1 2.1 12C2.1 10.9 3 10 4.1 10M10 3.90002C10 3.90002 10 3.90002 10 4.00002C10 4.00002 10 4.00002 10 3.90002ZM10 3.90002C10 2.80002 9.1 1.90002 8 1.90002C6.9 1.90002 6 2.90002 6 4.00002M6 4.00002V4.10002C6 4.10002 6 4.10002 6 4.00002ZM6 4.00002C6 2.90002 5.1 2.00002 4 2.00002C2.9 2.00002 2 2.90002 2 4.00002C2 5.10002 2.9 6.00002 4 6.00002C4.1 6.00002 4.1 6.00002 4.2 6.00002H4.1C3 6.00002 2.1 6.90002 2.1 8.00002C2.1 9.10002 3 10 4.1 10M4.1 10C4.1 10 4.1 10 4.2 10C4.2 10 4.2 10 4.1 10Z" stroke="#EF7C28" stroke-miterlimit="10" stroke-linejoin="round"/>
</svg>
