<svg width="16" height="16" viewBox="0 0 16 16" fill="none" xmlns="http://www.w3.org/2000/svg">
<path d="M2 11.5C5.5 -0.5 12.5 16.5 14 3.5" stroke="#CFCFCF" stroke-miterlimit="10"/>
<path d="M4 1C4.6 1 5 1.4 5 2C5 2.6 4.6 3 4 3C3.4 3 3 2.6 3 2C3 1.4 3.4 1 4 1ZM4 0C2.9 0 2 0.9 2 2C2 3.1 2.9 4 4 4C5.1 4 6 3.1 6 2C6 0.9 5.1 0 4 0Z" fill="#EF7C28"/>
<path d="M14 1C14.6 1 15 1.4 15 2C15 2.6 14.6 3 14 3C13.4 3 13 2.6 13 2C13 1.4 13.4 1 14 1ZM14 0C12.9 0 12 0.9 12 2C12 3.1 12.9 4 14 4C15.1 4 16 3.1 16 2C16 0.9 15.1 0 14 0Z" fill="#CFCFCF"/>
<path d="M12 12C12.6 12 13 12.4 13 13C13 13.6 12.6 14 12 14C11.4 14 11 13.6 11 13C11 12.4 11.4 12 12 12ZM12 11C10.9 11 10 11.9 10 13C10 14.1 10.9 15 12 15C13.1 15 14 14.1 14 13C14 11.9 13.1 11 12 11Z" fill="#EF7C28"/>
<path d="M2 12C2.6 12 3 12.4 3 13C3 13.6 2.6 14 2 14C1.4 14 1 13.6 1 13C1 12.4 1.4 12 2 12ZM2 11C0.9 11 0 11.9 0 13C0 14.1 0.9 15 2 15C3.1 15 4 14.1 4 13C4 11.9 3.1 11 2 11Z" fill="#CFCFCF"/>
</svg>
