<svg width="16" height="16" viewBox="0 0 16 16" fill="none" xmlns="http://www.w3.org/2000/svg">
<path d="M12.5 12.5C12.5 12.5 13.5 8.49997 10.5 5.49997C7.5 2.49997 4.5 3.59997 4.5 3.59997" stroke="#1D2021" stroke-miterlimit="10"/>
<path d="M13 14.5C13.8284 14.5 14.5 13.8284 14.5 13C14.5 12.1716 13.8284 11.5 13 11.5C12.1716 11.5 11.5 12.1716 11.5 13C11.5 13.8284 12.1716 14.5 13 14.5Z" fill="#FFD163"/>
<path d="M13 12C13.6 12 14 12.4 14 13C14 13.6 13.6 14 13 14C12.4 14 12 13.6 12 13C12 12.4 12.4 12 13 12ZM13 11C11.9 11 11 11.9 11 13C11 14.1 11.9 15 13 15C14.1 15 15 14.1 15 13C15 11.9 14.1 11 13 11Z" fill="#1D2021"/>
<path d="M4 14.5C4.82843 14.5 5.5 13.8284 5.5 13C5.5 12.1716 4.82843 11.5 4 11.5C3.17157 11.5 2.5 12.1716 2.5 13C2.5 13.8284 3.17157 14.5 4 14.5Z" fill="#FFD163"/>
<path d="M4 12C4.6 12 5 12.4 5 13C5 13.6 4.6 14 4 14C3.4 14 3 13.6 3 13C3 12.4 3.4 12 4 12ZM4 11C2.9 11 2 11.9 2 13C2 14.1 2.9 15 4 15C5.1 15 6 14.1 6 13C6 11.9 5.1 11 4 11Z" fill="#1D2021"/>
<path d="M4 4.5C4.82843 4.5 5.5 3.82843 5.5 3C5.5 2.17157 4.82843 1.5 4 1.5C3.17157 1.5 2.5 2.17157 2.5 3C2.5 3.82843 3.17157 4.5 4 4.5Z" fill="#FFD163"/>
<path d="M4 2C4.6 2 5 2.4 5 3C5 3.6 4.6 4 4 4C3.4 4 3 3.6 3 3C3 2.4 3.4 2 4 2ZM4 1C2.9 1 2 1.9 2 3C2 4.1 2.9 5 4 5C5.1 5 6 4.1 6 3C6 1.9 5.1 1 4 1Z" fill="#1D2021"/>
</svg>
