<svg width="16" height="16" viewBox="0 0 16 16" fill="none" xmlns="http://www.w3.org/2000/svg">
<path d="M12.5 12.5C12.5 12.5 13.5 8.49997 10.5 5.49997C7.5 2.49997 4.5 3.59997 4.5 3.59997" stroke="#1D2021" stroke-miterlimit="10"/>
<path d="M5.5 9.29995H7L5.9 11.5C5.9 11.7 5.8 13.3 5.8 14H4.6C4.6 13.8 4.5 13.5 4.5 13.3C4 13.7 3.5 14 2.9 14C2.3 14 1.9 13.8 1.5 13.5C1.2 13.2 1 12.7 1 12.1C1 11.3 1.2 10.7 1.7 10.1C2.2 9.49995 2.8 9.19995 3.6 9.19995C4.2 9.19995 4.8 9.39995 5.2 9.89995L5.5 9.29995ZM2.2 11.8C2.2 12.1 2.3 12.4 2.4 12.5C2.5 12.6 2.7 12.7 3 12.7C3.3 12.7 3.6 12.5 3.8 12.2C4 11.9 4.1 11.5 4.1 11.1C4.1 10.8 4 10.6 3.9 10.5C3.8 10.4 3.6 10.3 3.3 10.3C3 10.3 2.7 10.5 2.5 10.8C2.3 11.1 2.2 11.4 2.2 11.8Z" fill="#1D2021"/>
<path d="M4 5C4.82843 5 5.5 4.32843 5.5 3.5C5.5 2.67157 4.82843 2 4 2C3.17157 2 2.5 2.67157 2.5 3.5C2.5 4.32843 3.17157 5 4 5Z" fill="#FFD163"/>
<path d="M4 2.5C4.6 2.5 5 2.9 5 3.5C5 4.1 4.6 4.5 4 4.5C3.4 4.5 3 4.1 3 3.5C3 2.9 3.4 2.5 4 2.5ZM4 1.5C2.9 1.5 2 2.4 2 3.5C2 4.6 2.9 5.5 4 5.5C5.1 5.5 6 4.6 6 3.5C6 2.4 5.1 1.5 4 1.5Z" fill="#1D2021"/>
<path d="M12 14C12.8284 14 13.5 13.3284 13.5 12.5C13.5 11.6716 12.8284 11 12 11C11.1716 11 10.5 11.6716 10.5 12.5C10.5 13.3284 11.1716 14 12 14Z" fill="#FFD163"/>
<path d="M12 11.5C12.6 11.5 13 11.9 13 12.5C13 13.1 12.6 13.5 12 13.5C11.4 13.5 11 13.1 11 12.5C11 11.9 11.4 11.5 12 11.5ZM12 10.5C10.9 10.5 10 11.4 10 12.5C10 13.6 10.9 14.5 12 14.5C13.1 14.5 14 13.6 14 12.5C14 11.4 13.1 10.5 12 10.5Z" fill="#1D2021"/>
</svg>
