<svg width="16" height="16" viewBox="0 0 16 16" fill="none" xmlns="http://www.w3.org/2000/svg">
<path d="M12.5 13C12.5 6 8 1.5 2 1.5" stroke="#1D2021" stroke-miterlimit="10"/>
<path d="M9.5 12.5C9.5 8.5 6.5 5.5 3.5 5.5" stroke="#008CDC" stroke-miterlimit="10"/>
<path d="M4 3L1 5.5L4 8V3Z" fill="#008CDC"/>
<path d="M10 12H7V13H10V12Z" fill="#008CDC"/>
<path d="M13 14.5C13.8284 14.5 14.5 13.8284 14.5 13C14.5 12.1716 13.8284 11.5 13 11.5C12.1716 11.5 11.5 12.1716 11.5 13C11.5 13.8284 12.1716 14.5 13 14.5Z" fill="#FFD163"/>
<path d="M13 12C13.6 12 14 12.4 14 13C14 13.6 13.6 14 13 14C12.4 14 12 13.6 12 13C12 12.4 12.4 12 13 12ZM13 11C11.9 11 11 11.9 11 13C11 14.1 11.9 15 13 15C14.1 15 15 14.1 15 13C15 11.9 14.1 11 13 11Z" fill="#1D2021"/>
<path d="M3 14.5C3.82843 14.5 4.5 13.8284 4.5 13C4.5 12.1716 3.82843 11.5 3 11.5C2.17157 11.5 1.5 12.1716 1.5 13C1.5 13.8284 2.17157 14.5 3 14.5Z" fill="#FFD163"/>
<path d="M3 12C3.6 12 4 12.4 4 13C4 13.6 3.6 14 3 14C2.4 14 2 13.6 2 13C2 12.4 2.4 12 3 12ZM3 11C1.9 11 1 11.9 1 13C1 14.1 1.9 15 3 15C4.1 15 5 14.1 5 13C5 11.9 4.1 11 3 11Z" fill="#1D2021"/>
</svg>
