<svg width="16" height="16" viewBox="0 0 16 16" fill="none" xmlns="http://www.w3.org/2000/svg">
<path d="M12.5 12.5C13.5 6.5 12.5 4.5 8.5 3.5" stroke="#1D2021" stroke-miterlimit="10"/>
<path d="M9 1L6 3.5L9 6V1Z" fill="#008CDC"/>
<path d="M4 5.5C4.82843 5.5 5.5 4.82843 5.5 4C5.5 3.17157 4.82843 2.5 4 2.5C3.17157 2.5 2.5 3.17157 2.5 4C2.5 4.82843 3.17157 5.5 4 5.5Z" fill="#FFD163"/>
<path d="M4 3C4.6 3 5 3.4 5 4C5 4.6 4.6 5 4 5C3.4 5 3 4.6 3 4C3 3.4 3.4 3 4 3ZM4 2C2.9 2 2 2.9 2 4C2 5.1 2.9 6 4 6C5.1 6 6 5.1 6 4C6 2.9 5.1 2 4 2Z" fill="#1D2021"/>
<path d="M4 14.5C4.82843 14.5 5.5 13.8284 5.5 13C5.5 12.1716 4.82843 11.5 4 11.5C3.17157 11.5 2.5 12.1716 2.5 13C2.5 13.8284 3.17157 14.5 4 14.5Z" fill="#FFD163"/>
<path d="M4 12C4.6 12 5 12.4 5 13C5 13.6 4.6 14 4 14C3.4 14 3 13.6 3 13C3 12.4 3.4 12 4 12ZM4 11C2.9 11 2 11.9 2 13C2 14.1 2.9 15 4 15C5.1 15 6 14.1 6 13C6 11.9 5.1 11 4 11Z" fill="#1D2021"/>
<path d="M12 14.5C12.8284 14.5 13.5 13.8284 13.5 13C13.5 12.1716 12.8284 11.5 12 11.5C11.1716 11.5 10.5 12.1716 10.5 13C10.5 13.8284 11.1716 14.5 12 14.5Z" fill="#FFD163"/>
<path d="M12 12C12.6 12 13 12.4 13 13C13 13.6 12.6 14 12 14C11.4 14 11 13.6 11 13C11 12.4 11.4 12 12 12ZM12 11C10.9 11 10 11.9 10 13C10 14.1 10.9 15 12 15C13.1 15 14 14.1 14 13C14 11.9 13.1 11 12 11Z" fill="#1D2021"/>
</svg>
