<svg width="16" height="16" viewBox="0 0 16 16" fill="none" xmlns="http://www.w3.org/2000/svg">
<path d="M13.5 2.5L8.5 7.5" stroke="#1D2021" stroke-miterlimit="10" stroke-linecap="round" stroke-linejoin="round"/>
<path d="M8 2C11.3 2 14 4.7 14 8C14 11.3 11.3 14 8 14C4.7 14 2 11.3 2 8C2 4.7 4.7 2 8 2ZM8 1C4.1 1 1 4.1 1 8C1 11.9 4.1 15 8 15C11.9 15 15 11.9 15 8C15 4.1 11.9 1 8 1Z" fill="#1D2021"/>
<path d="M8 9.5C8.82843 9.5 9.5 8.82843 9.5 8C9.5 7.17157 8.82843 6.5 8 6.5C7.17157 6.5 6.5 7.17157 6.5 8C6.5 8.82843 7.17157 9.5 8 9.5Z" fill="#FFD163"/>
<path d="M8 7C8.6 7 9 7.4 9 8C9 8.6 8.6 9 8 9C7.4 9 7 8.6 7 8C7 7.4 7.4 7 8 7ZM8 6C6.9 6 6 6.9 6 8C6 9.1 6.9 10 8 10C9.1 10 10 9.1 10 8C10 6.9 9.1 6 8 6Z" fill="#1D2021"/>
<path d="M13 4.5C13.8284 4.5 14.5 3.82843 14.5 3C14.5 2.17157 13.8284 1.5 13 1.5C12.1716 1.5 11.5 2.17157 11.5 3C11.5 3.82843 12.1716 4.5 13 4.5Z" fill="#FFD163"/>
<path d="M13 2C13.6 2 14 2.4 14 3C14 3.6 13.6 4 13 4C12.4 4 12 3.6 12 3C12 2.4 12.4 2 13 2ZM13 1C11.9 1 11 1.9 11 3C11 4.1 11.9 5 13 5C14.1 5 15 4.1 15 3C15 1.9 14.1 1 13 1Z" fill="#1D2021"/>
</svg>
