<svg width="16" height="16" viewBox="0 0 16 16" fill="none" xmlns="http://www.w3.org/2000/svg">
<g clip-path="url(#clip0_3476_4890)">
<path d="M5.19922 0.199951C6.19922 3.19995 4.59922 7.19995 0.199219 7.19995" stroke="#1D2021" stroke-miterlimit="10"/>
<path d="M0.199219 10.2C4.19922 10.2 6.19922 11.7 6.19922 15.7" stroke="#1D2021" stroke-miterlimit="10"/>
<path d="M15.1992 12.8C11.1992 10.8 11.1992 4.80005 15.1992 2.80005" stroke="#1D2021" stroke-miterlimit="10"/>
<path d="M7.80078 12.8C10.5622 12.8 12.8008 10.5615 12.8008 7.80005C12.8008 5.03863 10.5622 2.80005 7.80078 2.80005C5.03936 2.80005 2.80078 5.03863 2.80078 7.80005C2.80078 10.5615 5.03936 12.8 7.80078 12.8Z" stroke="#1D2021" stroke-miterlimit="10"/>
<path d="M7.80078 9.30005C8.62921 9.30005 9.30078 8.62848 9.30078 7.80005C9.30078 6.97162 8.62921 6.30005 7.80078 6.30005C6.97235 6.30005 6.30078 6.97162 6.30078 7.80005C6.30078 8.62848 6.97235 9.30005 7.80078 9.30005Z" fill="#FFD163"/>
<path d="M7.80078 6.80005C8.40078 6.80005 8.80078 7.20005 8.80078 7.80005C8.80078 8.40005 8.40078 8.80005 7.80078 8.80005C7.20078 8.80005 6.80078 8.40005 6.80078 7.80005C6.80078 7.20005 7.20078 6.80005 7.80078 6.80005ZM7.80078 5.80005C6.70078 5.80005 5.80078 6.70005 5.80078 7.80005C5.80078 8.90005 6.70078 9.80005 7.80078 9.80005C8.90078 9.80005 9.80078 8.90005 9.80078 7.80005C9.80078 6.70005 8.90078 5.80005 7.80078 5.80005Z" fill="#1D2021"/>
<path d="M2.80078 5.30005C3.62921 5.30005 4.30078 4.62848 4.30078 3.80005C4.30078 2.97162 3.62921 2.30005 2.80078 2.30005C1.97235 2.30005 1.30078 2.97162 1.30078 3.80005C1.30078 4.62848 1.97235 5.30005 2.80078 5.30005Z" fill="white"/>
<path d="M2.80078 2.80005C3.40078 2.80005 3.80078 3.20005 3.80078 3.80005C3.80078 4.40005 3.40078 4.80005 2.80078 4.80005C2.20078 4.80005 1.80078 4.40005 1.80078 3.80005C1.80078 3.20005 2.20078 2.80005 2.80078 2.80005ZM2.80078 1.80005C1.70078 1.80005 0.800781 2.70005 0.800781 3.80005C0.800781 4.90005 1.70078 5.80005 2.80078 5.80005C3.90078 5.80005 4.80078 4.90005 4.80078 3.80005C4.80078 2.70005 3.90078 1.80005 2.80078 1.80005Z" fill="#1D2021"/>
<path d="M13.8008 9.30005C14.6292 9.30005 15.3008 8.62848 15.3008 7.80005C15.3008 6.97162 14.6292 6.30005 13.8008 6.30005C12.9724 6.30005 12.3008 6.97162 12.3008 7.80005C12.3008 8.62848 12.9724 9.30005 13.8008 9.30005Z" fill="white"/>
<path d="M13.8008 6.80005C14.4008 6.80005 14.8008 7.20005 14.8008 7.80005C14.8008 8.40005 14.4008 8.80005 13.8008 8.80005C13.2008 8.80005 12.8008 8.40005 12.8008 7.80005C12.8008 7.20005 13.2008 6.80005 13.8008 6.80005ZM13.8008 5.80005C12.7008 5.80005 11.8008 6.70005 11.8008 7.80005C11.8008 8.90005 12.7008 9.80005 13.8008 9.80005C14.9008 9.80005 15.8008 8.90005 15.8008 7.80005C15.8008 6.70005 14.9008 5.80005 13.8008 5.80005Z" fill="#1D2021"/>
<path d="M3.80078 14.3C4.62921 14.3 5.30078 13.6285 5.30078 12.8C5.30078 11.9716 4.62921 11.3 3.80078 11.3C2.97235 11.3 2.30078 11.9716 2.30078 12.8C2.30078 13.6285 2.97235 14.3 3.80078 14.3Z" fill="white"/>
<path d="M3.80078 11.8C4.40078 11.8 4.80078 12.2 4.80078 12.8C4.80078 13.4 4.40078 13.8 3.80078 13.8C3.20078 13.8 2.80078 13.4 2.80078 12.8C2.80078 12.2 3.20078 11.8 3.80078 11.8ZM3.80078 10.8C2.70078 10.8 1.80078 11.7 1.80078 12.8C1.80078 13.9 2.70078 14.8 3.80078 14.8C4.90078 14.8 5.80078 13.9 5.80078 12.8C5.80078 11.7 4.90078 10.8 3.80078 10.8Z" fill="#1D2021"/>
</g>
<defs>
<clipPath id="clip0_3476_4890">
<rect width="16" height="16" fill="white"/>
</clipPath>
</defs>
</svg>
