<svg width="16" height="16" viewBox="0 0 16 16" fill="none" xmlns="http://www.w3.org/2000/svg">
<g clip-path="url(#clip0_3476_4806)">
<path d="M14.5987 5.89998C14.5987 5.09998 13.9987 4.39998 13.2987 4.29998C14.2987 4.09998 14.8987 2.99998 14.4987 1.89998C14.2987 1.49998 13.9987 1.19998 13.6987 1.09998C12.5987 0.599979 11.4987 1.39998 11.3987 2.39998C11.1987 1.69998 10.5987 1.19998 9.79873 1.19998C8.99873 1.19998 8.39873 1.69998 8.19873 2.39998H7.89873C7.69873 1.69998 6.99873 1.19998 6.29873 1.19998C5.49873 1.19998 4.89873 1.69998 4.69873 2.39998C4.49873 1.39998 3.49873 0.599979 2.29873 1.09998C1.89873 1.29998 1.59873 1.59998 1.49873 1.99998C0.99873 2.99998 1.69873 4.09998 2.69873 4.29998C1.89873 4.49998 1.29873 5.09998 1.29873 5.89998C1.29873 6.69998 1.89873 7.39998 2.59873 7.49998C1.59873 7.69998 0.99873 8.79998 1.39873 9.89998C1.59873 10.3 1.89873 10.6 2.19873 10.7C3.29873 11.1 4.29873 10.5 4.49873 9.49998C4.69873 10.2 5.29873 10.7 6.09873 10.7C6.89873 10.7 7.49873 10.2 7.69873 9.49998H7.99873C8.19873 10.2 8.79873 10.7 9.59873 10.7C10.3987 10.7 10.9987 10.2 11.1987 9.49998C11.3987 10.5 12.3987 11.1 13.4987 10.7C13.8987 10.6 14.1987 10.3 14.2987 9.89998C14.7987 8.79998 14.0987 7.69998 13.0987 7.49998C13.9987 7.39998 14.5987 6.69998 14.5987 5.89998Z" stroke="#1D2021" stroke-miterlimit="10" stroke-linejoin="round"/>
<path d="M11 16C13.7614 16 16 13.7614 16 11C16 8.23858 13.7614 6 11 6C8.23858 6 6 8.23858 6 11C6 13.7614 8.23858 16 11 16Z" fill="white"/>
<path d="M7 11.7V10.3L11 9L15 10.3V11.7L11 13L7 11.7Z" fill="#1D2021"/>
<path d="M11.7 15H10.3L9 11L10.3 7H11.7L13 11L11.7 15Z" fill="#1D2021"/>
<path d="M8.59922 14.3L7.69922 13.4L9.59922 9.59995L13.3992 7.69995L14.2992 8.59995L12.3992 12.4L8.59922 14.3Z" fill="#1D2021"/>
<path d="M7.69922 8.59995L8.59922 7.69995L12.3992 9.59995L14.2992 13.4L13.3992 14.3L9.59922 12.4L7.69922 8.59995Z" fill="#1D2021"/>
<path d="M10.9992 12.3C11.7172 12.3 12.2992 11.7179 12.2992 11C12.2992 10.282 11.7172 9.69995 10.9992 9.69995C10.2812 9.69995 9.69922 10.282 9.69922 11C9.69922 11.7179 10.2812 12.3 10.9992 12.3Z" fill="white"/>
</g>
<defs>
<clipPath id="clip0_3476_4806">
<rect width="16" height="16" fill="white"/>
</clipPath>
</defs>
</svg>
