<svg width="16" height="16" viewBox="0 0 16 16" fill="none" xmlns="http://www.w3.org/2000/svg">
<path d="M4 12.0001C4.1 5.30009 7.6 0.500088 11.5 1.50009C15.5 2.50009 12.5 10.5001 12 12.0001" stroke="#1D2021" stroke-miterlimit="10"/>
<path d="M9.5 4V9" stroke="#1D2021" stroke-miterlimit="10"/>
<path d="M12 6.5H7" stroke="#1D2021" stroke-miterlimit="10"/>
<path d="M4 13.5C4.82843 13.5 5.5 12.8284 5.5 12C5.5 11.1716 4.82843 10.5 4 10.5C3.17157 10.5 2.5 11.1716 2.5 12C2.5 12.8284 3.17157 13.5 4 13.5Z" fill="#FFD163"/>
<path d="M4 11C4.6 11 5 11.4 5 12C5 12.6 4.6 13 4 13C3.4 13 3 12.6 3 12C3 11.4 3.4 11 4 11ZM4 10C2.9 10 2 10.9 2 12C2 13.1 2.9 14 4 14C5.1 14 6 13.1 6 12C6 10.9 5.1 10 4 10Z" fill="#1D2021"/>
<path d="M12 13.5C12.8284 13.5 13.5 12.8284 13.5 12C13.5 11.1716 12.8284 10.5 12 10.5C11.1716 10.5 10.5 11.1716 10.5 12C10.5 12.8284 11.1716 13.5 12 13.5Z" fill="#FFD163"/>
<path d="M12 11C12.6 11 13 11.4 13 12C13 12.6 12.6 13 12 13C11.4 13 11 12.6 11 12C11 11.4 11.4 11 12 11ZM12 10C10.9 10 10 10.9 10 12C10 13.1 10.9 14 12 14C13.1 14 14 13.1 14 12C14 10.9 13.1 10 12 10Z" fill="#1D2021"/>
</svg>
