<svg width="16" height="16" viewBox="0 0 16 16" fill="none" xmlns="http://www.w3.org/2000/svg">
<path d="M13.4 9.60005C14.5 9.60005 15.5 8.80005 15.5 7.90005C15.5 7.00005 14.6 6.20005 13.4 6.20005C13.3 6.20005 13.2 6.20005 13.2 6.20005C13.2 6.10005 13.1 6.00005 13.1 6.00005C13.2 6.00005 13.2 5.90005 13.3 5.90005C14.1 5.20005 14.1 4.20005 13.3 3.60005C12.5 3.00005 11.2 2.90005 10.5 3.60005C10.4 3.70005 10.4 3.70005 10.3 3.80005C10.2 3.80005 10.1 3.70005 10 3.70005C10 3.60005 10 3.50005 10 3.50005C10 2.60005 9.1 1.80005 7.9 1.80005C6.7 1.80005 5.9 2.60005 5.9 3.50005C5.9 3.60005 5.9 3.70005 5.9 3.80005C5.8 3.80005 5.7 3.90005 5.6 3.90005C5.6 3.70005 5.6 3.70005 5.5 3.60005C4.8 3.00005 3.5 3.00005 2.8 3.60005C2.1 4.20005 2 5.30005 2.8 6.00005C2.8 6.00005 2.9 6.10005 3 6.20005C3 6.30005 2.9 6.30005 2.9 6.40005C2.8 6.40005 2.7 6.40005 2.6 6.40005C1.4 6.30005 0.5 7.00005 0.5 8.00005C0.5 9.00005 1.4 9.70005 2.6 9.70005C2.7 9.70005 2.8 9.70005 2.9 9.70005C2.9 9.80005 3 9.90005 3 9.90005C2.9 9.90005 2.9 10 2.8 10.1C2.1 10.8 2.1 11.8 2.8 12.4C3.5 13.1 4.9 13.1 5.6 12.4C5.7 12.4 5.7 12.3 5.8 12.2C5.9 12.2 6 12.3 6.1 12.3C6.1 12.4 6.1 12.4 6.1 12.5C6.1 13.4 7 14.2 8.2 14.2C9.4 14.2 10.3 13.4 10.3 12.5C10.3 12.4 10.3 12.4 10.3 12.3C10.4 12.3 10.5 12.2 10.6 12.2L10.7 12.3C11.5 13 12.8 13 13.5 12.3C14.2 11.6 14.2 10.6 13.5 10C13.4 10 13.4 9.90005 13.3 9.90005C13.3 9.80005 13.4 9.70005 13.4 9.60005Z" fill="#FAFBFC" stroke="#1D2021" stroke-miterlimit="10" stroke-linecap="round" stroke-linejoin="round"/>
</svg>
