<svg width="16" height="16" viewBox="0 0 16 16" fill="none" xmlns="http://www.w3.org/2000/svg">
<g clip-path="url(#clip0_3476_4849)">
<path d="M12.8 4.3999C12.5 4.3999 12.3 4.3999 12 4.4999C12.3 4.0999 12.5 3.5999 12.5 3.0999C12.5 1.8999 11.5 0.899902 10.3 0.899902C9.1 0.899902 8.1 1.8999 8.1 3.0999C8.1 3.3999 8.2 3.6999 8.3 3.8999C8 3.7999 7.6 3.6999 7.1 3.6999C5.9 3.6999 4.9 4.6999 4.9 5.8999C4.5 5.2999 3.9 4.9999 3.2 4.9999C2 4.9999 1 5.9999 1 7.1999C1 8.3999 2 9.3999 3.2 9.3999C3.3 9.3999 3.5 9.3999 3.6 9.3999C3.6 9.4999 3.7 9.5999 3.7 9.6999C3.7 9.6999 3.7 9.7999 3.8 9.7999C3.6 10.0999 3.4 10.5999 3.4 10.9999C3.4 12.1999 4.4 13.1999 5.6 13.1999C5.9 13.1999 6.2 13.0999 6.4 12.9999C6.4 14.1999 7.4 15.0999 8.6 15.0999C9.8 15.0999 10.8 14.0999 10.8 12.8999C10.8 11.9999 10.3 11.2999 9.6 10.8999C10.7 10.6999 11.5 9.8999 11.5 8.7999C11.6 8.6999 11.7 8.5999 11.8 8.4999C12.1 8.6999 12.5 8.7999 12.9 8.7999C14.1 8.7999 15.1 7.7999 15.1 6.5999C15 5.3999 14 4.3999 12.8 4.3999Z" stroke="#1D2021" stroke-miterlimit="10" stroke-linejoin="round"/>
</g>
<defs>
<clipPath id="clip0_3476_4849">
<rect width="16" height="16" fill="white"/>
</clipPath>
</defs>
</svg>
