<svg width="16" height="16" viewBox="0 0 16 16" fill="none" xmlns="http://www.w3.org/2000/svg">
<path d="M14 1L1 13" stroke="#1D2021" stroke-miterlimit="10"/>
<path d="M12.2 14V10.5C12.2 10.3 12.2 10.2 12.1 10.1C12.1 10 12 9.9 12 9.9C11.9 9.8 11.8 9.8 11.8 9.8C11.7 9.8 11.6 9.8 11.6 9.8C11.5 9.8 11.5 9.8 11.4 9.8C11.3 9.8 11.2 9.9 11.2 9.9C11.1 10 11.1 10 11 10.1C10.9 10.2 10.9 10.3 10.9 10.5V14H9V8H10.7V8.6C10.9 8.4 11.1 8.3 11.3 8.2C11.5 8.1 11.8 8.1 12 8.1C12.3 8.1 12.5 8.1 12.7 8.2C12.9 8.3 13.1 8.4 13.3 8.6C13.6 8.9 13.7 9.1 13.8 9.4C14 9.7 14 10 14 10.3V14H12.2Z" fill="#1D2021"/>
<path d="M4 11.5C4.82843 11.5 5.5 10.8284 5.5 10C5.5 9.17157 4.82843 8.5 4 8.5C3.17157 8.5 2.5 9.17157 2.5 10C2.5 10.8284 3.17157 11.5 4 11.5Z" fill="#FFD163"/>
<path d="M4 9C4.6 9 5 9.4 5 10C5 10.6 4.6 11 4 11C3.4 11 3 10.6 3 10C3 9.4 3.4 9 4 9ZM4 8C2.9 8 2 8.9 2 10C2 11.1 2.9 12 4 12C5.1 12 6 11.1 6 10C6 8.9 5.1 8 4 8Z" fill="#1D2021"/>
<path d="M11 5.5C11.8284 5.5 12.5 4.82843 12.5 4C12.5 3.17157 11.8284 2.5 11 2.5C10.1716 2.5 9.5 3.17157 9.5 4C9.5 4.82843 10.1716 5.5 11 5.5Z" fill="#FFD163"/>
<path d="M11 3C11.6 3 12 3.4 12 4C12 4.6 11.6 5 11 5C10.4 5 10 4.6 10 4C10 3.4 10.4 3 11 3ZM11 2C9.9 2 9 2.9 9 4C9 5.1 9.9 6 11 6C12.1 6 13 5.1 13 4C13 2.9 12.1 2 11 2Z" fill="#1D2021"/>
</svg>
