<svg width="16" height="16" viewBox="0 0 16 16" fill="none" xmlns="http://www.w3.org/2000/svg">
<path d="M8 13L3.5 7C3.5 3.7 5.5 1.5 8 1.5C10.5 1.5 12.5 3.7 12.5 7" stroke="#1D2021" stroke-miterlimit="10"/>
<path d="M3.5 8.5C4.32843 8.5 5 7.82843 5 7C5 6.17157 4.32843 5.5 3.5 5.5C2.67157 5.5 2 6.17157 2 7C2 7.82843 2.67157 8.5 3.5 8.5Z" fill="#FFD163"/>
<path d="M3.5 6C4.1 6 4.5 6.4 4.5 7C4.5 7.6 4.1 8 3.5 8C2.9 8 2.5 7.6 2.5 7C2.5 6.4 2.9 6 3.5 6ZM3.5 5C2.4 5 1.5 5.9 1.5 7C1.5 8.1 2.4 9 3.5 9C4.6 9 5.5 8.1 5.5 7C5.5 5.9 4.6 5 3.5 5Z" fill="#1D2021"/>
<path d="M12.5 8.5C13.3284 8.5 14 7.82843 14 7C14 6.17157 13.3284 5.5 12.5 5.5C11.6716 5.5 11 6.17157 11 7C11 7.82843 11.6716 8.5 12.5 8.5Z" fill="#FFD163"/>
<path d="M12.5 6C13.1 6 13.5 6.4 13.5 7C13.5 7.6 13.1 8 12.5 8C11.9 8 11.5 7.6 11.5 7C11.5 6.4 11.9 6 12.5 6ZM12.5 5C11.4 5 10.5 5.9 10.5 7C10.5 8.1 11.4 9 12.5 9C13.6 9 14.5 8.1 14.5 7C14.5 5.9 13.6 5 12.5 5Z" fill="#1D2021"/>
<path d="M8 14.5C8.82843 14.5 9.5 13.8284 9.5 13C9.5 12.1716 8.82843 11.5 8 11.5C7.17157 11.5 6.5 12.1716 6.5 13C6.5 13.8284 7.17157 14.5 8 14.5Z" fill="#FFD163"/>
<path d="M8 12C8.6 12 9 12.4 9 13C9 13.6 8.6 14 8 14C7.4 14 7 13.6 7 13C7 12.4 7.4 12 8 12ZM8 11C6.9 11 6 11.9 6 13C6 14.1 6.9 15 8 15C9.1 15 10 14.1 10 13C10 11.9 9.1 11 8 11Z" fill="#1D2021"/>
</svg>
