<svg width="16" height="16" viewBox="0 0 16 16" fill="none" xmlns="http://www.w3.org/2000/svg">
<path d="M4 13.5C4.82843 13.5 5.5 12.8284 5.5 12C5.5 11.1716 4.82843 10.5 4 10.5C3.17157 10.5 2.5 11.1716 2.5 12C2.5 12.8284 3.17157 13.5 4 13.5Z" fill="#FFD163"/>
<path d="M4 11C4.6 11 5 11.4 5 12C5 12.6 4.6 13 4 13C3.4 13 3 12.6 3 12C3 11.4 3.4 11 4 11ZM4 10C2.9 10 2 10.9 2 12C2 13.1 2.9 14 4 14C5.1 14 6 13.1 6 12C6 10.9 5.1 10 4 10Z" fill="#1D2021"/>
<path d="M13 3L6.5 9.5" stroke="#008CDC" stroke-miterlimit="10"/>
<path d="M14 6V2H10L14 6Z" fill="#008CDC"/>
</svg>
