<svg width="16" height="16" viewBox="0 0 16 16" fill="none" xmlns="http://www.w3.org/2000/svg">
<g clip-path="url(#clip0_3476_4885)">
<path d="M13.8 2L11.2 14H3.2L5.8 2H13.8ZM15 1H5L2 15H12L15 1Z" fill="#1D2021"/>
<path d="M14 3.5C14.8284 3.5 15.5 2.82843 15.5 2C15.5 1.17157 14.8284 0.5 14 0.5C13.1716 0.5 12.5 1.17157 12.5 2C12.5 2.82843 13.1716 3.5 14 3.5Z" fill="#FFD163"/>
<path d="M13.9998 1C14.5998 1 14.9998 1.4 14.9998 2C14.9998 2.6 14.5998 3 13.9998 3C13.3998 3 12.9998 2.6 12.9998 2C12.9998 1.4 13.3998 1 13.9998 1ZM13.8998 0C12.7998 0 11.8998 1 11.9998 2.1C11.9998 3.2 12.9998 4.1 14.0998 4C15.1998 3.9 16.0998 3 15.9998 1.9C15.8998 0.8 14.9998 0 13.8998 0Z" fill="#1D2021"/>
<path d="M12 15.5C12.8284 15.5 13.5 14.8284 13.5 14C13.5 13.1716 12.8284 12.5 12 12.5C11.1716 12.5 10.5 13.1716 10.5 14C10.5 14.8284 11.1716 15.5 12 15.5Z" fill="#FFD163"/>
<path d="M12 13C12.6 13 13 13.4 13 14C13 14.6 12.6 15 12 15C11.4 15 11 14.6 11 14C11 13.4 11.4 13 12 13ZM12 12C10.9 12 10 12.9 10 14C10 15.1 10.9 16 12 16C13.1 16 14 15.1 14 14C14 12.9 13.1 12 12 12Z" fill="#1D2021"/>
<path d="M3 15.5C3.82843 15.5 4.5 14.8284 4.5 14C4.5 13.1716 3.82843 12.5 3 12.5C2.17157 12.5 1.5 13.1716 1.5 14C1.5 14.8284 2.17157 15.5 3 15.5Z" fill="#FFD163"/>
<path d="M3 13C3.6 13 4 13.4 4 14C4 14.6 3.6 15 3 15C2.4 15 2 14.6 2 14C2 13.4 2.4 13 3 13ZM3 12C1.9 12 1 12.9 1 14C1 15.1 1.9 16 3 16C4.1 16 5 15.1 5 14C5 12.9 4.1 12 3 12Z" fill="#1D2021"/>
</g>
<defs>
<clipPath id="clip0_3476_4885">
<rect width="16" height="16" fill="white"/>
</clipPath>
</defs>
</svg>
