<svg width="16" height="16" viewBox="0 0 16 16" fill="none" xmlns="http://www.w3.org/2000/svg">
<path d="M10 3.8999C10 2.7999 10.9 1.8999 12 1.8999C13.1 1.8999 14 2.7999 14 3.8999C14 4.9999 13.2 5.8999 12.1 5.8999C12.1 5.9999 12.1 5.9999 12.1 5.9999C13.1 6.0999 14 6.8999 14 7.9999C14 8.9999 13.2 9.8999 12.2 9.8999C12.2 9.9999 12.2 9.9999 12.2 9.9999C13.3 10.0999 14.1 10.8999 14.1 11.9999C14.1 13.0999 13.2 13.9999 12.1 13.9999C11 13.9999 10.2 13.0999 10.1 12.0999C10 13.1999 9.2 13.9999 8.1 13.9999C7 13.9999 6.1 13.0999 6.1 11.9999C6.1 13.0999 5.2 13.9999 4.1 13.9999C3 13.9999 2.1 13.0999 2.1 11.9999C2.1 10.8999 3 9.9999 4.1 9.9999M10 3.8999C10 3.8999 10 3.8999 10 3.9999C10 3.9999 10 3.9999 10 3.8999ZM10 3.8999C10 2.7999 9.1 1.8999 8 1.8999C6.9 1.8999 6 2.8999 6 3.9999M6 3.9999V4.0999C6 4.0999 6 4.0999 6 3.9999ZM6 3.9999C6 2.8999 5.1 1.9999 4 1.9999C2.9 1.9999 2 2.8999 2 3.9999C2 5.0999 2.9 5.9999 4 5.9999C4.1 5.9999 4.1 5.9999 4.2 5.9999H4.1C3 5.9999 2.1 6.8999 2.1 7.9999C2.1 9.0999 3 9.9999 4.1 9.9999M4.1 9.9999C4.1 9.9999 4.1 9.9999 4.2 9.9999C4.2 9.9999 4.2 9.9999 4.1 9.9999Z" stroke="#1D2021" stroke-miterlimit="10" stroke-linejoin="round"/>
</svg>
