<svg width="16" height="16" viewBox="0 0 16 16" fill="none" xmlns="http://www.w3.org/2000/svg">
<path d="M2.59766 13.3999V5.79985L5.79766 2.59985H13.3977V10.1999L10.1977 13.3999H2.59766ZM9.09766 10.4999L10.4977 9.09985V5.49985H6.89766L5.49766 6.89985V10.4999H9.09766Z" fill="#FFD163"/>
<path d="M12.9992 2.99995V9.99995L9.99922 13H2.99922V5.99995L5.99922 2.99995H12.9992ZM4.99922 11H9.19922L10.8992 9.29995V4.99995H6.69922L4.99922 6.69995V11ZM13.7992 2.19995H12.9992H5.99922H5.59922L5.39922 2.39995L2.39922 5.39995L2.19922 5.59995V5.99995V13V13.8H2.99922H9.99922H10.3992L10.5992 13.6L13.5992 10.6L13.7992 10.4V9.99995V2.99995V2.19995ZM7.09922 5.89995H10.0992V8.89995L8.89922 10.1H5.89922V7.09995L7.09922 5.89995Z" fill="#1D2021"/>
</svg>
