<svg width="16" height="16" viewBox="0 0 16 16" fill="none" xmlns="http://www.w3.org/2000/svg">
<path d="M2 12C2 -4.7 14.3 21.6 14 3" stroke="#1D2021" stroke-miterlimit="10"/>
<path d="M14 3.5C14.8284 3.5 15.5 2.82843 15.5 2C15.5 1.17157 14.8284 0.5 14 0.5C13.1716 0.5 12.5 1.17157 12.5 2C12.5 2.82843 13.1716 3.5 14 3.5Z" fill="#FFD163"/>
<path d="M14 1C14.6 1 15 1.4 15 2C15 2.6 14.6 3 14 3C13.4 3 13 2.6 13 2C13 1.4 13.4 1 14 1ZM14 0C12.9 0 12 0.9 12 2C12 3.1 12.9 4 14 4C15.1 4 16 3.1 16 2C16 0.9 15.1 0 14 0Z" fill="#1D2021"/>
<path d="M5 7.5C5.82843 7.5 6.5 6.82843 6.5 6C6.5 5.17157 5.82843 4.5 5 4.5C4.17157 4.5 3.5 5.17157 3.5 6C3.5 6.82843 4.17157 7.5 5 7.5Z" fill="#FFD163"/>
<path d="M5 5C5.6 5 6 5.4 6 6C6 6.6 5.6 7 5 7C4.4 7 4 6.6 4 6C4 5.4 4.4 5 5 5ZM5 4C3.9 4 3 4.9 3 6C3 7.1 3.9 8 5 8C6.1 8 7 7.1 7 6C7 4.9 6.1 4 5 4Z" fill="#1D2021"/>
<path d="M2 14.5C2.82843 14.5 3.5 13.8284 3.5 13C3.5 12.1716 2.82843 11.5 2 11.5C1.17157 11.5 0.5 12.1716 0.5 13C0.5 13.8284 1.17157 14.5 2 14.5Z" fill="#FFD163"/>
<path d="M2 12C2.6 12 3 12.4 3 13C3 13.6 2.6 14 2 14C1.4 14 1 13.6 1 13C1 12.4 1.4 12 2 12ZM2 11C0.9 11 0 11.9 0 13C0 14.1 0.9 15 2 15C3.1 15 4 14.1 4 13C4 11.9 3.1 11 2 11Z" fill="#1D2021"/>
<path d="M12 11.5C12.8284 11.5 13.5 10.8284 13.5 10C13.5 9.17157 12.8284 8.5 12 8.5C11.1716 8.5 10.5 9.17157 10.5 10C10.5 10.8284 11.1716 11.5 12 11.5Z" fill="#FFD163"/>
<path d="M12 9C12.6 9 13 9.4 13 10C13 10.6 12.6 11 12 11C11.4 11 11 10.6 11 10C11 9.4 11.4 9 12 9ZM12 8C10.9 8 10 8.9 10 10C10 11.1 10.9 12 12 12C13.1 12 14 11.1 14 10C14 8.9 13.1 8 12 8Z" fill="#1D2021"/>
</svg>
