<svg width="16" height="16" viewBox="0 0 16 16" fill="none" xmlns="http://www.w3.org/2000/svg">
<rect width="16" height="16" rx="3" fill="white"/>
<path d="M7.48995 14.9996C7.48995 14.9996 6.73337 13.4906 7.15919 11.378C7.67948 8.57542 12.8333 6.3335 12.8333 6.3335C5.69324 8.31687 2.90314 10.8604 7.48995 14.9996Z" fill="#C70A1A"/>
<path d="M7.37259 14.9998C7.37259 14.9998 6.13685 12.6694 6.82332 10.1659C7.7842 6.62685 13.9165 4.1665 13.9165 4.1665C4.85591 5.89315 0.874345 10.3385 7.37259 14.9998Z" fill="#9E0F05"/>
<path d="M7.62841 15C7.14847 14.3066 5.22955 11.8798 5.66545 9.06317C6.18902 5.46663 15 2 15 2C4.05117 4.6434 -3.84347 9.4967 7.62841 15Z" fill="#ED0000"/>
</svg>
