<svg width="16" height="16" viewBox="0 0 16 16" fill="none" xmlns="http://www.w3.org/2000/svg">
<rect width="16" height="16" fill="white"/>
<path d="M7.30348 13.2281C7.30348 13.2281 6.74578 12.0082 7.05966 10.3003C7.44319 8.03461 11.2422 6.22217 11.2422 6.22217C5.97907 7.82559 3.9224 9.88188 7.30348 13.2281Z" fill="#C70A1A"/>
<path d="M7.3034 13.2286C7.3034 13.2286 6.36214 11.3465 6.88502 9.3247C7.61693 6.4665 12.2879 4.47949 12.2879 4.47949C5.38645 5.87395 2.35369 9.46404 7.3034 13.2286Z" fill="#9E0F05"/>
<path d="M7.30331 13.2286C6.91979 12.6709 5.38639 10.7187 5.73472 8.45307C6.1531 5.56003 13.1939 2.77148 13.1939 2.77148C4.44475 4.89783 -1.86384 8.8018 7.30331 13.2286Z" fill="#ED0000"/>
</svg>
