<svg width="16" height="16" viewBox="0 0 16 16" fill="none" xmlns="http://www.w3.org/2000/svg">
<rect width="16" height="16" fill="white"/>
<path d="M8.18435 6.72807C7.38435 6.72807 6.68839 7.17607 6.33639 7.84004C5.98439 7.17607 5.28839 6.72807 4.48839 6.72807C4.01639 6.72807 3.58439 6.88007 3.23239 7.14407V5.38407C3.23239 5.15207 3.04839 4.97607 2.81639 4.97607C2.59239 4.97607 2.40839 5.15207 2.40039 5.38407V8.84805C2.41639 9.98405 3.34439 10.904 4.48839 10.904C5.28839 10.904 5.98439 10.456 6.33639 9.79205C6.68839 10.448 7.38435 10.904 8.18435 10.904C9.33635 10.904 10.2724 9.96805 10.2724 8.81605C10.2724 7.66404 9.33635 6.72807 8.18435 6.72807ZM4.48839 10.064C3.79239 10.064 3.23239 9.50405 3.23239 8.80805C3.23239 8.11205 3.79239 7.55205 4.48839 7.55205C5.18439 7.55205 5.74439 8.11205 5.74439 8.80805C5.74439 9.50405 5.18439 10.064 4.48839 10.064ZM8.18435 10.064C7.48835 10.064 6.92839 9.50405 6.92839 8.80805C6.92839 8.12005 7.48835 7.55205 8.18435 7.55205C8.88035 7.55205 9.44035 8.11205 9.44035 8.80805C9.43235 9.50405 8.87235 10.064 8.18435 10.064Z" fill="#0361D9"/>
<path d="M13.5116 10.2079L12.3756 8.81585L13.5116 7.42385C13.6556 7.23982 13.6156 6.98382 13.4156 6.84782C13.2156 6.71182 12.9356 6.74382 12.7836 6.92782L11.8076 8.12785L10.8316 6.92782C10.6796 6.75182 10.3996 6.71182 10.1996 6.84782C9.9996 6.98382 9.9596 7.23982 10.1036 7.42385L11.2396 8.81585L10.1036 10.2079C9.9596 10.3919 9.9996 10.6479 10.1996 10.7839C10.3996 10.9199 10.6796 10.8879 10.8316 10.7039L11.8076 9.50385L12.7836 10.7039C12.9356 10.8799 13.2156 10.9199 13.4156 10.7839C13.6156 10.6479 13.6556 10.3919 13.5116 10.2079Z" fill="#0361D9"/>
</svg>
