<svg width="16" height="16" viewBox="0 0 16 16" fill="none" xmlns="http://www.w3.org/2000/svg">
<rect width="16" height="16" rx="3" fill="white"/>
<path d="M8.24711 6.79056C7.24913 6.79056 6.38093 7.34943 5.94182 8.17772C5.5027 7.34943 4.63446 6.79056 3.63647 6.79056C3.04766 6.79056 2.50875 6.98018 2.06964 7.30951V5.11395C2.06964 4.82454 1.8401 4.60498 1.55069 4.60498C1.27125 4.60498 1.04172 4.82454 1.03174 5.11395V9.43518C1.0517 10.8523 2.20936 12 3.63647 12C4.63446 12 5.5027 11.4411 5.94182 10.6128C6.38093 11.4311 7.24913 12 8.24711 12C9.68421 12 10.8518 10.8324 10.8518 9.39526C10.8518 7.95817 9.68421 6.79056 8.24711 6.79056ZM3.63647 10.9521C2.76823 10.9521 2.06964 10.2535 2.06964 9.38528C2.06964 8.51704 2.76823 7.81845 3.63647 7.81845C4.50472 7.81845 5.20331 8.51704 5.20331 9.38528C5.20331 10.2535 4.50472 10.9521 3.63647 10.9521ZM8.24711 10.9521C7.37887 10.9521 6.68032 10.2535 6.68032 9.38528C6.68032 8.52702 7.37887 7.81845 8.24711 7.81845C9.11536 7.81845 9.81394 8.51704 9.81394 9.38528C9.80396 10.2535 9.10538 10.9521 8.24711 10.9521Z" fill="#0361D9"/>
<path d="M14.8929 11.1314L13.4758 9.39489L14.8929 7.6584C15.0725 7.42883 15.0226 7.10948 14.7731 6.93982C14.5236 6.77016 14.1743 6.81008 13.9847 7.03962L12.7672 8.53663L11.5496 7.03962C11.36 6.82006 11.0107 6.77016 10.7612 6.93982C10.5117 7.10948 10.4618 7.42883 10.6415 7.6584L12.0586 9.39489L10.6415 11.1314C10.4618 11.3609 10.5117 11.6803 10.7612 11.8499C11.0107 12.0196 11.36 11.9797 11.5496 11.7501L12.7672 10.2532L13.9847 11.7501C14.1743 11.9697 14.5236 12.0196 14.7731 11.8499C15.0226 11.6803 15.0725 11.3609 14.8929 11.1314Z" fill="#0361D9"/>
</svg>
