<svg width="16" height="16" viewBox="0 0 16 16" fill="none" xmlns="http://www.w3.org/2000/svg">
<rect width="16" height="16" rx="3" fill="white"/>
<path d="M2.06001 12.3782L2.68002 13.4482C2.81002 13.6682 2.99002 13.8482 3.21002 13.9782L5.42005 10.1582H1C1 10.4082 1.06 10.6582 1.19 10.8782L2.06001 12.3782Z" fill="#0066DA"/>
<path d="M8.00003 5.66721L5.79005 1.84717C5.57005 1.97717 5.39005 2.14717 5.26005 2.37717L1.19 9.43722C1.07 9.65723 1 9.90723 1 10.1572H5.41005L8.00003 5.66721Z" fill="#00AC47"/>
<path d="M12.7904 13.978C13.0104 13.848 13.1904 13.678 13.3204 13.448L13.5804 13.008L14.8104 10.888C14.9404 10.668 15.0004 10.418 15.0004 10.168H10.5903L11.5303 12.008L12.7904 13.978Z" fill="#EA4335"/>
<path d="M7.99985 5.66727L10.2099 1.84723C9.98987 1.71723 9.73987 1.65723 9.48986 1.65723H6.51981C6.25981 1.65723 6.00981 1.72723 5.7998 1.84723L7.99985 5.66727Z" fill="#00832D"/>
<path d="M10.5888 10.1582H5.40876L3.19873 13.9782C3.41873 14.1082 3.66874 14.1682 3.91874 14.1682H12.0689C12.3289 14.1682 12.5789 14.0982 12.7889 13.9782L10.5888 10.1582Z" fill="#2684FC"/>
<path d="M12.7701 5.90721L10.73 2.37717C10.6 2.15717 10.42 1.97717 10.2 1.84717L8 5.66721L10.59 10.1572H14.9901C14.9901 9.90723 14.9301 9.65723 14.8001 9.43722L12.7701 5.90721Z" fill="#FFBA00"/>
</svg>
