<svg width="16" height="16" viewBox="0 0 16 16" fill="none" xmlns="http://www.w3.org/2000/svg">
<rect width="16" height="16" fill="white"/>
<path d="M3.24839 11.4083L3.74439 12.2643C3.84839 12.4403 3.99239 12.5843 4.16839 12.6883L5.93639 9.63232H2.40039C2.40039 9.83232 2.44839 10.0323 2.55239 10.2083L3.24839 11.4083Z" fill="#0066DA"/>
<path d="M8.00035 6.03989L6.23239 2.98389C6.05639 3.08789 5.91239 3.22389 5.80839 3.40789L2.55239 9.05586C2.45639 9.23186 2.40039 9.43187 2.40039 9.63187H5.92839L8.00035 6.03989Z" fill="#00AC47"/>
<path d="M11.8323 12.6881C12.0083 12.5841 12.1523 12.4481 12.2563 12.2641L12.4643 11.9121L13.4483 10.2161C13.5523 10.0401 13.6003 9.84014 13.6003 9.64014H10.0723L10.8243 11.1121L11.8323 12.6881Z" fill="#EA4335"/>
<path d="M8.00025 6.04003L9.76825 2.98403C9.59225 2.88003 9.39225 2.83203 9.19225 2.83203H6.81623C6.60823 2.83203 6.40823 2.88803 6.24023 2.98403L8.00025 6.04003Z" fill="#00832D"/>
<path d="M10.0717 9.63232H5.92767L4.15967 12.6883C4.33567 12.7923 4.53567 12.8403 4.73567 12.8403H11.2557C11.4637 12.8403 11.6637 12.7843 11.8317 12.6883L10.0717 9.63232Z" fill="#2684FC"/>
<path d="M11.816 6.23189L10.184 3.40789C10.08 3.23189 9.936 3.08789 9.76 2.98389L8 6.03989L10.072 9.63187H13.592C13.592 9.43187 13.544 9.23186 13.44 9.05586L11.816 6.23189Z" fill="#FFBA00"/>
</svg>
