<svg width="16" height="16" viewBox="0 0 16 16" fill="none" xmlns="http://www.w3.org/2000/svg">
<rect width="16" height="16" rx="3" fill="white"/>
<path d="M10.2559 13.6162H12.9902C13.1255 13.6162 13.2449 13.5235 13.2767 13.391L15.8572 2.70928C15.8997 2.52914 15.7643 2.35693 15.5786 2.35693H12.5285C12.3932 2.35693 12.2764 2.45098 12.2485 2.58344L9.96933 13.2611C9.93079 13.444 10.0701 13.6162 10.2572 13.6162H10.2559Z" fill="url(#paint0_linear_9714_9015)"/>
<path opacity="0.25" d="M9.97114 13.3407L12.2503 2.66292C12.2782 2.53178 12.395 2.43641 12.5303 2.43641H15.5804C15.7276 2.43641 15.8417 2.54636 15.8616 2.68146C15.8855 2.51192 15.7555 2.35693 15.5804 2.35693H12.5303C12.395 2.35693 12.2782 2.45098 12.2503 2.58344L9.97114 13.2611C9.96321 13.2957 9.96452 13.3301 9.96845 13.3619C9.96845 13.3552 9.96845 13.3472 9.97114 13.3407Z" fill="white"/>
<path d="M12.221 7.73116C10.9818 5.02364 9.04355 4.61963 7.99809 4.61963C6.95266 4.61963 5.01438 5.02364 3.77526 7.73116C3.11059 9.18294 2.74574 11.1024 2.7139 13.2999C2.71125 13.4734 2.85056 13.6165 3.02436 13.6165H5.73345C5.90194 13.6165 6.04124 13.4813 6.0439 13.3131C6.07177 11.6109 6.33974 10.1287 6.8041 9.11276C7.15965 8.33654 7.56028 7.94447 7.99809 7.94447C8.43591 7.94447 8.83657 8.33785 9.19213 9.11276C9.65918 10.1328 9.92711 11.6242 9.95228 13.337C9.95497 13.492 10.0823 13.6165 10.2376 13.6165H12.9958C13.155 13.6165 13.2836 13.488 13.2823 13.329C13.2531 11.1195 12.887 9.18956 12.2196 7.73116H12.221Z" fill="url(#paint1_linear_9714_9015)"/>
<path opacity="0.4" d="M3.7762 7.81065C5.01532 5.10311 6.95361 4.69911 7.99903 4.69911C9.04448 4.69911 10.9827 5.10311 12.2219 7.81065C12.8826 9.2545 13.2474 11.162 13.2832 13.3449C13.2832 13.3396 13.2846 13.3344 13.2846 13.329C13.2554 11.1195 12.8893 9.18956 12.2219 7.73116C10.9827 5.02364 9.04448 4.61963 7.99903 4.61963C6.95361 4.61963 5.01532 5.02364 3.7762 7.73116C3.11153 9.18294 2.74668 11.1024 2.71484 13.2999C2.71484 13.3052 2.71484 13.3118 2.71617 13.3171C2.75465 11.1461 3.11816 9.24788 3.7762 7.81065Z" fill="white"/>
<path d="M5.75356 13.6162H3.002C2.86933 13.6162 2.75523 13.5262 2.72339 13.3976L0.142985 2.70928C0.0992037 2.52914 0.235853 2.35693 0.421589 2.35693H3.47165C3.60697 2.35693 3.72372 2.45098 3.75158 2.58344L6.03349 13.2718C6.07195 13.4494 5.93531 13.6175 5.75356 13.6175V13.6162Z" fill="url(#paint2_linear_9714_9015)"/>
<path opacity="0.5" d="M0.41908 2.43641H3.46914C3.60446 2.43641 3.72121 2.53046 3.74907 2.66292L6.03098 13.3512C6.03098 13.3512 6.03098 13.3646 6.0323 13.3712C6.03628 13.3393 6.03761 13.3062 6.03098 13.2718L3.74907 2.58344C3.72121 2.45098 3.60446 2.35693 3.47046 2.35693H0.41908C0.243957 2.35693 0.115267 2.51192 0.137822 2.68146C0.157722 2.54636 0.271817 2.43641 0.41908 2.43641Z" fill="white"/>
<defs>
<linearGradient id="paint0_linear_9714_9015" x1="10.1431" y1="13.5936" x2="15.423" y2="2.25525" gradientUnits="userSpaceOnUse">
<stop stop-color="#0563EB"/>
<stop offset="1" stop-color="#6040FF"/>
</linearGradient>
<linearGradient id="paint1_linear_9714_9015" x1="2.7139" y1="9.11807" x2="13.2836" y2="9.11807" gradientUnits="userSpaceOnUse">
<stop stop-color="#00BEFF"/>
<stop offset="1" stop-color="#0093FF"/>
</linearGradient>
<linearGradient id="paint2_linear_9714_9015" x1="0.563545" y1="2.26157" x2="5.84347" y2="13.604" gradientUnits="userSpaceOnUse">
<stop stop-color="#00E355"/>
<stop offset="1" stop-color="#00CF62"/>
</linearGradient>
</defs>
</svg>
