<svg width="16" height="16" viewBox="0 0 16 16" fill="none" xmlns="http://www.w3.org/2000/svg">
<rect width="16" height="16" fill="white"/>
<path d="M3.75 9.25004C4.44036 9.25004 5 8.69033 5 8C5 7.30967 4.44036 6.75 3.75 6.75C3.05964 6.75 2.5 7.30967 2.5 8C2.5 8.69033 3.05964 9.25004 3.75 9.25004Z" stroke="#0082C9" stroke-width="1.03125"/>
<path d="M8 10.2188C9.22538 10.2188 10.2188 9.22538 10.2188 8C10.2188 6.77462 9.22538 5.78125 8 5.78125C6.77462 5.78125 5.78125 6.77462 5.78125 8C5.78125 9.22538 6.77462 10.2188 8 10.2188Z" stroke="#0082C9" stroke-width="1.03125"/>
<path d="M12.25 9.25004C12.9404 9.25004 13.5 8.69033 13.5 8C13.5 7.30967 12.9404 6.75 12.25 6.75C11.5596 6.75 11 7.30967 11 8C11 8.69033 11.5596 9.25004 12.25 9.25004Z" stroke="#0082C9" stroke-width="1.03125"/>
</svg>
