<svg width="16" height="16" viewBox="0 0 16 16" fill="none" xmlns="http://www.w3.org/2000/svg">
<rect width="16" height="16" rx="3" fill="white"/>
<path d="M2.59091 9.41429C3.46954 9.41429 4.18182 8.70193 4.18182 7.82333C4.18182 6.94473 3.46954 6.23242 2.59091 6.23242C1.71227 6.23242 1 6.94473 1 7.82333C1 8.70193 1.71227 9.41429 2.59091 9.41429Z" stroke="#0082C9" stroke-width="1.3125"/>
<path d="M7.99964 10.6477C9.55922 10.6477 10.8235 9.38344 10.8235 7.82386C10.8235 6.26429 9.55922 5 7.99964 5C6.44007 5 5.17578 6.26429 5.17578 7.82386C5.17578 9.38344 6.44007 10.6477 7.99964 10.6477Z" stroke="#0082C9" stroke-width="1.3125"/>
<path d="M13.4093 9.41429C14.2879 9.41429 15.0002 8.70193 15.0002 7.82333C15.0002 6.94473 14.2879 6.23242 13.4093 6.23242C12.5306 6.23242 11.8184 6.94473 11.8184 7.82333C11.8184 8.70193 12.5306 9.41429 13.4093 9.41429Z" stroke="#0082C9" stroke-width="1.3125"/>
</svg>
