<svg width="16" height="16" viewBox="0 0 16 16" fill="none" xmlns="http://www.w3.org/2000/svg">
<rect width="16" height="16" fill="white"/>
<path d="M6.47977 6.17573L9.16775 7.78375L10.7678 7.11173C11.0958 6.96773 11.4478 6.89573 11.7998 6.89573C11.8558 6.89573 11.9198 6.89573 11.9758 6.90373C11.4238 4.76773 9.24775 3.47173 7.11177 4.02373C6.14377 4.27173 5.31177 4.87173 4.75977 5.70373H4.79977C5.39177 5.69573 5.97577 5.86373 6.47977 6.17573Z" fill="#0364B8"/>
<path d="M6.47991 6.17589C5.97591 5.86389 5.39191 5.69589 4.79991 5.70389H4.75991C2.99191 5.72789 1.57591 7.17589 1.59991 8.94385C1.60791 9.58385 1.80791 10.2079 2.17591 10.7359L4.54391 9.73585L5.59991 9.28785L7.9439 8.30385L9.1679 7.79185L6.47991 6.17589Z" fill="#0078D4"/>
<path d="M11.976 6.904C11.92 6.896 11.856 6.896 11.8 6.896C11.448 6.896 11.096 6.968 10.768 7.112L9.16797 7.78397L9.63197 8.06397L11.152 8.97597L11.816 9.37597L14.088 10.736C14.768 9.47197 14.296 7.89597 13.032 7.216C12.704 7.04 12.344 6.936 11.976 6.904Z" fill="#1490DF"/>
<path d="M11.8158 9.37618L11.1518 8.97618L9.63175 8.06418L9.16775 7.78418L7.94375 8.29618L5.59978 9.28818L4.54378 9.72818L2.17578 10.7282C2.77578 11.5842 3.75178 12.0962 4.79978 12.0962H11.7998C12.7598 12.0962 13.6318 11.5682 14.0878 10.7282L11.8158 9.37618Z" fill="#28A8EA"/>
</svg>
