<svg width="16" height="16" viewBox="0 0 16 16" fill="none" xmlns="http://www.w3.org/2000/svg">
<rect width="16" height="16" rx="3" fill="white"/>
<path d="M6.20187 5.80844L9.51396 7.78982L11.4854 6.96176C11.8896 6.78433 12.3233 6.69561 12.7571 6.69561C12.8261 6.69561 12.9049 6.69561 12.9739 6.70547C12.2938 4.07353 9.61253 2.47662 6.98061 3.15679C5.78786 3.46237 4.76268 4.20168 4.08252 5.22685H4.13181C4.86126 5.217 5.58085 5.424 6.20187 5.80844Z" fill="#0364B8"/>
<path d="M6.20238 5.80898C5.58136 5.42454 4.86177 5.21753 4.13232 5.22739H4.08303C1.90453 5.25696 0.159763 7.04116 0.189335 9.21961C0.199193 10.0082 0.445629 10.7771 0.899072 11.4277L3.81688 10.1955L5.11806 9.64348L8.00628 8.43102L9.51447 7.80014L6.20238 5.80898Z" fill="#0078D4"/>
<path d="M12.9746 6.70566C12.9056 6.6958 12.8268 6.6958 12.7578 6.6958C12.324 6.6958 11.8903 6.78452 11.4861 6.96195L9.51465 7.78995L10.0864 8.13496L11.9593 9.25871L12.7775 9.75158L15.577 11.4274C16.4149 9.86987 15.8333 7.92796 14.2758 7.0901C13.8716 6.87324 13.4281 6.74509 12.9746 6.70566Z" fill="#1490DF"/>
<path d="M12.7766 9.75216L11.9585 9.25929L10.0856 8.13554L9.51382 7.79053L8.00563 8.4214L5.11743 9.64373L3.81624 10.1859L0.898438 11.4181C1.63775 12.4728 2.84036 13.1037 4.13168 13.1037H12.7569C13.9398 13.1037 15.0143 12.4531 15.5762 11.4181L12.7766 9.75216Z" fill="#28A8EA"/>
</svg>
