<svg width="16" height="16" viewBox="0 0 16 16" fill="none" xmlns="http://www.w3.org/2000/svg">
<rect width="16" height="16" fill="white"/>
<path d="M10.6804 2.10429L8.36835 0.800293L2.40039 4.18429V7.22429L4.76839 8.60029V5.47229L10.6804 2.10429Z" fill="#68BE4B"/>
<path d="M2.40039 8.21582V10.9918L8.40035 14.3998L11.0324 12.9118V10.0638L8.36835 11.7678L2.40039 8.21582Z" fill="#68BE4B"/>
<path d="M11.9199 5.61632L9.12793 4.03232L11.5999 2.63232L14.3999 4.20832V11.0003L11.9199 12.4083V5.61632Z" fill="#68BE4B"/>
<path d="M9.15224 5.07961L8.14424 4.49561L5.51221 6.01561V7.35962L6.55221 7.97562V6.58361L9.15224 5.07961Z" fill="#373737"/>
<path d="M5.51221 7.91211V9.15211L8.24024 10.7841L9.36024 10.0961V8.84811L8.24024 9.56811L5.51221 7.91211Z" fill="#373737"/>
<path d="M9.80787 6.71968L8.56787 6.00768L9.65587 5.36768L10.8959 6.08768V9.1197L9.80787 9.80771V6.71968Z" fill="#373737"/>
</svg>
