<svg width="16" height="16" viewBox="0 0 16 16" fill="none" xmlns="http://www.w3.org/2000/svg">
<rect width="16" height="16" rx="3" fill="#42952E"/>
<path fill-rule="evenodd" clip-rule="evenodd" d="M3.58796 3.00969C3.7756 2.99736 3.96578 2.9954 4.15323 3.01204C4.72556 3.0328 5.30612 3.12937 5.82811 3.37499C6.25137 3.57497 6.62474 3.88326 6.88776 4.27187C7.2858 4.84695 7.4644 5.54091 7.5604 6.22547C7.58547 6.43407 7.61382 6.64286 7.61774 6.8532C7.64984 7.02952 7.61838 7.20976 7.64573 7.38635C7.64892 7.56148 7.65102 7.7368 7.64455 7.91193C7.61838 8.0784 7.64847 8.24798 7.62185 8.41472C7.58638 8.9631 7.51436 9.51466 7.35044 10.0416C7.18269 10.5859 6.90071 11.11 6.46821 11.4893C6.30387 11.6389 6.11466 11.7564 5.92153 11.8647C5.41423 12.1181 4.847 12.2322 4.28407 12.2629C4.04257 12.2721 3.7989 12.2967 3.55779 12.2651C3.30022 12.2665 3.04344 12.2341 2.79018 12.1889C2.21256 12.0888 1.63965 11.8663 1.20306 11.4657C1.11217 11.3677 1.00817 11.281 0.926691 11.1745C0.529463 10.6905 0.318911 10.0829 0.196098 9.4761C0.130868 9.1365 0.0840618 8.79252 0.0685906 8.44681C0.0439024 8.29657 0.05683 8.14404 0.0521349 7.99261C0.0284312 7.79806 0.0423436 7.60141 0.0403834 7.40595C0.0587903 7.28907 0.0505668 7.17074 0.0523264 7.05304C0.0850374 6.47951 0.147132 5.90287 0.308919 5.34935C0.478929 4.75391 0.778607 4.17727 1.25614 3.77201C1.47707 3.59064 1.71898 3.43002 1.98614 3.32524C2.42646 3.13387 2.90614 3.05572 3.38151 3.01851C3.45027 3.01675 3.5196 3.02165 3.58796 3.00969ZM3.64436 4.94351C3.36897 4.96877 3.08496 5.06377 2.89928 5.27805C2.6711 5.54365 2.57962 5.89269 2.51929 6.22977C2.47836 6.4564 2.46465 6.68615 2.44251 6.91474C2.44173 7.05222 2.44251 7.19016 2.42371 7.32663C2.42215 7.53586 2.42215 7.745 2.42371 7.95423C2.44173 8.09718 2.44251 8.2415 2.4433 8.38555C2.47014 8.71767 2.50284 9.05226 2.58668 9.37636C2.66306 9.6402 2.77294 9.91097 2.98801 10.0925C3.17115 10.2463 3.40912 10.3181 3.64436 10.3374C3.89879 10.352 4.16067 10.3532 4.40472 10.2697C4.58375 10.2163 4.73731 10.0976 4.85562 9.95519C5.00644 9.76027 5.08988 9.52387 5.14687 9.28674C5.21073 9.02327 5.23698 8.75277 5.26282 8.48365C5.26263 8.3912 5.26577 8.29876 5.28065 8.2075C5.28418 7.87492 5.28398 7.54234 5.28182 7.20976C5.28653 7.13728 5.2783 7.06535 5.26851 6.99387C5.25656 6.63718 5.21778 6.27972 5.12944 5.93323C5.05305 5.63962 4.92299 5.34131 4.6762 5.15171C4.37926 4.93821 3.99653 4.91981 3.64436 4.94351ZM11.6027 5.4798C11.722 5.46452 11.8435 5.46706 11.9625 5.48372C12.2097 5.48724 12.4555 5.52896 12.6929 5.59751C12.9344 5.67214 13.1736 5.77457 13.3663 5.94186C13.635 6.15319 13.8059 6.47148 13.8746 6.80324C13.8985 6.9306 13.9089 7.05988 13.9181 7.18897C13.92 8.28089 13.9171 9.37308 13.9195 10.4653C14.613 10.4682 15.3064 10.4648 16 10.4668C15.809 10.82 15.598 11.1622 15.4018 11.5123C15.2776 11.7226 15.1591 11.936 15.0328 12.1449C13.9504 12.1456 12.868 12.1452 11.7857 12.145C11.785 10.6172 11.7857 9.08946 11.7855 7.56166C11.7788 7.45007 11.732 7.31861 11.6164 7.27959C11.5167 7.23145 11.4033 7.24969 11.2969 7.25005C10.9908 7.29472 10.6982 7.42063 10.4506 7.60533C10.4479 9.11827 10.4494 10.6311 10.4496 12.144C9.73941 12.1466 9.02921 12.1446 8.31874 12.1452C8.31855 9.96476 8.31819 7.78457 8.31901 5.60418C8.83429 5.60378 9.34939 5.60496 9.86476 5.60359C9.9222 5.73757 9.95392 5.88114 10.0066 6.01706C10.476 5.69643 11.0347 5.50624 11.6027 5.4798Z" fill="white"/>
</svg>
