<svg width="16" height="16" viewBox="0 0 16 16" fill="none" xmlns="http://www.w3.org/2000/svg">
<rect width="16" height="16" rx="3" fill="white"/>
<path d="M10.5487 1.85782L7.96461 0.400391L1.29443 4.18257V7.58027L3.94106 9.11817V5.62212L10.5487 1.85782Z" fill="#68BE4B"/>
<path d="M1.29443 8.68848V11.7911L8.00038 15.6001L10.9421 13.937V10.7539L7.96461 12.6584L1.29443 8.68848Z" fill="#68BE4B"/>
<path d="M11.9345 5.78286L8.81396 4.01248L11.5768 2.44775L14.7063 4.20919V11.8003L11.9345 13.374V5.78286Z" fill="#68BE4B"/>
<path d="M8.84079 5.18299L7.71419 4.53027L4.77246 6.22912V7.73128L5.93483 8.41976V6.86396L8.84079 5.18299Z" fill="#373737"/>
<path d="M4.77246 8.34912V9.73503L7.82148 11.5591L9.07327 10.7901V9.39526L7.82148 10.2L4.77246 8.34912Z" fill="#373737"/>
<path d="M9.57389 7.01645L8.18799 6.22068L9.40401 5.50537L10.7899 6.31009V9.69888L9.57389 10.4678V7.01645Z" fill="#373737"/>
</svg>
