<svg width="16" height="16" viewBox="0 0 16 16" fill="none" xmlns="http://www.w3.org/2000/svg">
<rect width="16" height="16" fill="#3FC272"/>
<path fill-rule="evenodd" clip-rule="evenodd" d="M5.23068 4.48152C5.37386 4.47211 5.51898 4.47061 5.66201 4.48331C6.09872 4.49915 6.54171 4.57284 6.94002 4.76026C7.26299 4.91285 7.54789 5.14809 7.74858 5.44461C8.0523 5.88342 8.18858 6.41295 8.26183 6.9353C8.28096 7.09447 8.3026 7.25379 8.30559 7.41428C8.33008 7.54882 8.30608 7.68635 8.32695 7.8211C8.32938 7.95473 8.33098 8.08851 8.32604 8.22214C8.30608 8.34917 8.32903 8.47856 8.30872 8.6058C8.28166 9.02423 8.2267 9.4451 8.10162 9.84719C7.97362 10.2625 7.75846 10.6624 7.42844 10.9518C7.30304 11.066 7.15867 11.1556 7.0113 11.2383C6.62421 11.4317 6.19139 11.5187 5.76185 11.5421C5.57757 11.5492 5.39164 11.5679 5.20766 11.5438C5.01113 11.5449 4.81519 11.5202 4.62194 11.4857C4.18119 11.4093 3.74404 11.2395 3.4109 10.9339C3.34155 10.859 3.26219 10.7929 3.20002 10.7116C2.89692 10.3423 2.73625 9.8787 2.64254 9.41567C2.59277 9.15654 2.55705 8.89407 2.54525 8.63028C2.52641 8.51564 2.53628 8.39926 2.53269 8.28371C2.51461 8.13526 2.52522 7.9852 2.52373 7.83606C2.53777 7.74687 2.5315 7.65658 2.53284 7.56677C2.5578 7.12914 2.60518 6.68914 2.72863 6.26678C2.85836 5.81243 3.08702 5.37243 3.4514 5.0632C3.61998 4.92481 3.80457 4.80225 4.00842 4.7223C4.34441 4.57627 4.71042 4.51664 5.07315 4.48824C5.12562 4.4869 5.17852 4.49064 5.23068 4.48152ZM5.27372 5.95711C5.06359 5.97638 4.84688 6.04887 4.70519 6.21238C4.53108 6.41504 4.46128 6.68137 4.41525 6.93858C4.38401 7.11151 4.37355 7.28682 4.35666 7.46124C4.35606 7.56614 4.35666 7.6714 4.34231 7.77553C4.34112 7.93519 4.34112 8.09477 4.34231 8.25442C4.35606 8.3635 4.35666 8.47362 4.35726 8.58353C4.37774 8.83696 4.40269 9.09226 4.46666 9.33957C4.52494 9.54089 4.60879 9.7475 4.77289 9.886C4.91264 10.0034 5.09422 10.0582 5.27372 10.0729C5.46786 10.0841 5.66769 10.085 5.85391 10.0212C5.99052 9.98047 6.10769 9.8899 6.19797 9.78124C6.31305 9.63251 6.37671 9.45213 6.42021 9.27119C6.46893 9.07014 6.48896 8.86374 6.50868 8.65839C6.50853 8.58785 6.51093 8.51731 6.52229 8.44767C6.52498 8.1939 6.52482 7.94013 6.52318 7.68635C6.52677 7.63105 6.52049 7.57616 6.51302 7.52162C6.5039 7.24945 6.47431 6.9767 6.4069 6.71231C6.34862 6.48827 6.24937 6.26065 6.06106 6.11597C5.83448 5.95307 5.54245 5.93902 5.27372 5.95711ZM11.3463 6.36632C11.4373 6.35466 11.53 6.3566 11.6209 6.36931C11.8095 6.37199 11.997 6.40383 12.1781 6.45614C12.3624 6.51308 12.545 6.59124 12.692 6.71889C12.897 6.88015 13.0274 7.12301 13.0799 7.37616C13.0981 7.47334 13.106 7.57199 13.113 7.67049C13.1145 8.50367 13.1123 9.33706 13.1141 10.1705C13.6433 10.1727 14.1724 10.1701 14.7016 10.1716C14.5559 10.4411 14.3949 10.7022 14.2451 10.9694C14.1504 11.1298 14.06 11.2927 13.9636 11.4521C13.1377 11.4526 12.3118 11.4523 11.4859 11.4522C11.4854 10.2864 11.4859 9.12065 11.4858 7.95487C11.4807 7.86973 11.4449 7.76941 11.3567 7.73964C11.2807 7.70291 11.1941 7.71682 11.113 7.7171C10.8794 7.75119 10.6561 7.84726 10.4672 7.9882C10.4651 9.14263 10.4663 10.297 10.4664 11.4514C9.92451 11.4534 9.3826 11.4518 8.84048 11.4523C8.84034 9.78854 8.84006 8.12496 8.84069 6.46122C9.23387 6.46092 9.62691 6.46182 10.0202 6.46077C10.064 6.56301 10.0882 6.67256 10.1284 6.77627C10.4866 6.53162 10.9129 6.38649 11.3463 6.36632Z" fill="white"/>
</svg>
