<svg width="16" height="16" viewBox="0 0 16 16" fill="none" xmlns="http://www.w3.org/2000/svg">
<rect width="16" height="16" fill="white"/>
<path d="M2.4957 4.9917C2.4957 4.9917 2.5597 5.1837 2.4957 5.4077C2.4317 5.5997 1.5357 9.63169 1.1837 11.1037C1.1197 11.3597 0.991699 11.5197 0.991699 11.5197H3.5837C4.5117 11.5197 5.3757 10.8797 5.9517 9.91969C5.7917 10.5277 5.5357 11.5197 5.5357 11.5197H6.7837L7.1357 10.2077H8.83169L9.15169 11.5197H10.8477C10.9117 11.5197 8.95969 5.5037 8.95969 5.3757C8.89569 5.2157 8.95969 5.0237 8.95969 5.0237H7.1037C7.1037 5.0237 7.2317 5.2157 7.1677 5.3757C7.1677 5.4397 6.9757 6.1437 6.7517 7.0397C6.6557 4.9597 4.6717 5.0557 4.8637 5.0557H2.4957V4.9917ZM9.59969 4.9917C9.59969 4.9917 9.75969 5.0877 9.79169 5.3437C9.85569 5.5037 11.6157 11.0397 11.6157 11.1357V11.4877H13.3437C13.3437 11.4877 13.1517 11.1357 13.1517 10.9437C13.1517 10.7517 13.2797 10.3357 13.2797 10.3357C13.2797 10.3357 14.9117 5.4397 14.9117 5.3437C14.9117 5.2797 15.0077 4.9917 15.0077 4.9917H13.6637C13.6637 4.9917 13.8237 5.2157 13.8237 5.3437C13.7597 5.5037 12.6077 9.40769 12.6077 9.40769L11.5197 4.9917H9.59969ZM3.9997 5.9517H4.5117C4.6717 5.9517 5.3437 5.9837 5.3437 7.32769C5.3437 8.67169 4.3517 10.5277 3.5837 10.5277H2.8477L3.9997 5.9517ZM7.99969 7.1997L8.67169 9.24769H7.32769L7.99969 7.1997Z" fill="black"/>
</svg>
