<svg width="16" height="16" viewBox="0 0 16 16" fill="none" xmlns="http://www.w3.org/2000/svg">
<g clip-path="url(#clip0_9714_9033)">
<rect width="16" height="16" rx="3" fill="white"/>
<path d="M1.72107 4C1.72107 4 1.79431 4.21971 1.72107 4.47604C1.64784 4.69575 0.622516 9.30969 0.219712 10.9941C0.146474 11.2871 0 11.4702 0 11.4702H2.96611C4.02805 11.4702 5.01675 10.7378 5.67588 9.63926C5.49279 10.335 5.19984 11.4702 5.19984 11.4702H6.62797L7.03077 9.96882H8.97155L9.33774 11.4702H11.2785C11.3518 11.4702 9.11802 4.5859 9.11802 4.43942C9.04479 4.25633 9.11802 4.03662 9.11802 4.03662H6.99415C6.99415 4.03662 7.14063 4.25633 7.06739 4.43942C7.06739 4.51266 6.84768 5.31827 6.59135 6.34359C6.48149 3.96338 4.21114 4.07324 4.43085 4.07324H1.72107V4ZM9.8504 4C9.8504 4 10.0335 4.10986 10.0701 4.4028C10.1433 4.5859 12.1574 10.9209 12.1574 11.0308V11.4336H14.1348C14.1348 11.4336 13.9151 11.0308 13.9151 10.8111C13.9151 10.5913 14.0615 10.1153 14.0615 10.1153C14.0615 10.1153 15.9291 4.51266 15.9291 4.4028C15.9291 4.32957 16.0389 4 16.0389 4H14.501C14.501 4 14.6841 4.25633 14.6841 4.4028C14.6108 4.5859 13.2925 9.05336 13.2925 9.05336L12.0475 4H9.8504ZM3.44215 5.09856H4.02805C4.21114 5.09856 4.98013 5.13518 4.98013 6.67315C4.98013 8.21113 3.84495 10.335 2.96611 10.335H2.12388L3.44215 5.09856ZM8.01947 6.52668L8.78846 8.87027H7.25048L8.01947 6.52668Z" fill="black"/>
</g>
<defs>
<clipPath id="clip0_9714_9033">
<rect width="16" height="16" rx="3" fill="white"/>
</clipPath>
</defs>
</svg>
