<svg width="110" height="36" viewBox="0 0 110 36" fill="none" xmlns="http://www.w3.org/2000/svg">
<path d="M33.9601 23.534L33.2177 21.3668H28.959L28.2161 23.534H26.4738L30.4288 12.7432H31.7479L35.703 23.534H33.9601ZM31.1262 15.1834L29.4439 19.9726H32.7628L31.1262 15.1834Z" fill="white"/>
<path d="M43.1916 23.534L40.9182 18.9872H38.8717V23.534H37.2351V12.7432H41.4192C43.4652 12.7432 44.7687 14.0618 44.7687 15.8958C44.7687 17.4418 43.8289 18.4267 42.6165 18.7598L45.1018 23.534H43.1916ZM41.2969 14.2136H38.8717V17.5931H41.2969C42.388 17.5931 43.1304 16.9719 43.1304 15.9108C43.1304 14.8498 42.388 14.2136 41.2969 14.2136Z" fill="white"/>
<path d="M47.162 23.534V12.7432H54.0577V14.2136H48.8008V17.3656H53.2869V18.8209H48.7986V22.0642H54.0556V23.534H47.162Z" fill="white"/>
<path d="M59.1679 23.6249C57.5463 23.6249 56.3946 23.2457 55.3491 22.2002L56.422 21.1241C57.2105 21.9121 58.1047 22.1701 59.1958 22.1701C60.6206 22.1701 61.4236 21.5634 61.4236 20.5029C61.4236 20.0175 61.3024 19.6388 60.9993 19.3813C60.7263 19.1388 60.3626 19.0026 59.8192 18.9269L58.5462 18.7445C57.667 18.6083 56.9852 18.3352 56.5153 17.8809C55.9848 17.3981 55.7107 16.7007 55.7107 15.8044C55.7107 13.9269 57.0748 12.6523 59.3176 12.6523C60.7574 12.6523 61.7422 13.016 62.6665 13.8797L61.6355 14.9102C60.9682 14.274 60.1802 14.0771 59.2559 14.0771C57.983 14.0771 57.3006 14.7744 57.3006 15.7593C57.3006 16.1531 57.4079 16.5168 57.6949 16.7592C57.9674 17.0017 58.285 17.1535 58.875 17.242L60.1625 17.4394C61.1479 17.5907 61.6929 17.8181 62.1628 18.244C62.7389 18.7746 63.042 19.517 63.042 20.4568C63.0458 22.4426 61.4392 23.6249 59.1679 23.6249Z" fill="white"/>
<path d="M67.665 18.5365C67.0337 18.5365 66.4166 18.3494 65.8918 17.9986C65.3669 17.6479 64.9578 17.1494 64.7162 16.5662C64.4746 15.983 64.4114 15.3413 64.5346 14.7221C64.6578 14.103 64.9617 13.5343 65.4081 13.0879C65.8545 12.6415 66.4232 12.3376 67.0423 12.2144C67.6615 12.0913 68.3032 12.1545 68.8864 12.396C69.4696 12.6376 69.9681 13.0467 70.3188 13.5716C70.6695 14.0965 70.8567 14.7135 70.8567 15.3448C70.8568 15.764 70.7743 16.179 70.6139 16.5663C70.4535 16.9536 70.2184 17.3055 69.9221 17.6019C69.6257 17.8983 69.2738 18.1334 68.8865 18.2937C68.4992 18.4541 68.0842 18.5366 67.665 18.5365ZM67.665 12.7431C66.237 12.7431 65.1084 13.8895 65.1084 15.3443C65.1084 16.7991 66.2349 17.9449 67.665 17.9449C69.0951 17.9449 70.213 16.7991 70.213 15.3443C70.213 13.8895 69.0919 12.7431 67.665 12.7431ZM68.335 17.0635L67.6296 15.6967H67.1892V17.0635H66.5541V13.617H67.8501C68.5024 13.617 68.9615 14.0998 68.9615 14.6754C68.9615 15.1581 68.6617 15.48 68.2824 15.6098L69.0495 17.0646L68.335 17.0635ZM67.7707 14.1539H67.1892V15.1941H67.7707C68.1059 15.1941 68.335 14.965 68.335 14.6743C68.335 14.3835 68.1059 14.155 67.7707 14.155V14.1539Z" fill="white"/>
<path d="M75.8284 12.7473H77.4108V18.3052H77.4419L81.7446 12.7473H83.6221L80.2732 17.0028L83.9745 23.5375H82.097L79.2486 18.2607L77.4108 20.253V23.5391H75.8284V12.7473Z" fill="white"/>
<path d="M84.9693 15.8544H86.4627V20.4354C86.4627 20.954 86.6038 21.359 86.8859 21.6504C87.1681 21.9419 87.5218 22.0876 87.947 22.0876C88.3761 22.0876 88.7275 21.9419 89.0011 21.6504C89.2746 21.359 89.4132 20.954 89.4168 20.4354V15.8544H90.9107V23.5376H89.4163V22.7158H89.3878C88.8961 23.3237 88.254 23.6277 87.4615 23.6277C86.845 23.6181 86.2887 23.3867 85.7927 22.9336C85.2531 22.4905 84.9784 21.8355 84.9688 20.9687L84.9693 15.8544Z" fill="white"/>
<path d="M97.5574 22.7356C97.066 23.3096 96.4239 23.6064 95.6311 23.6261C95.1823 23.6164 94.7978 23.5202 94.4777 23.3375C94.1497 23.1647 93.8636 22.9218 93.6399 22.6262C93.4342 22.3844 93.2981 22.0561 93.2316 21.6413C93.1508 21.2479 93.1102 20.5962 93.1099 19.686C93.1099 18.763 93.1505 18.1062 93.2316 17.7157C93.2981 17.3224 93.4342 17.0039 93.6399 16.7604C94.0597 16.1166 94.7234 15.783 95.6311 15.7594C95.9986 15.7561 96.3617 15.8393 96.691 16.0024C97.0068 16.1855 97.2979 16.4081 97.5574 16.6649V12.749H99.0513V23.5376H97.5574V22.7356ZM96.0876 17.2979C95.7335 17.2979 95.4635 17.3597 95.2776 17.4835C95.0733 17.6153 94.9153 17.8075 94.8254 18.0333C94.7322 18.2767 94.672 18.5314 94.6462 18.7907C94.6176 19.0825 94.6033 19.382 94.6033 19.6892C94.603 19.9744 94.6173 20.2595 94.6462 20.5432C94.6699 20.8125 94.7301 21.0772 94.8254 21.3302C94.9206 21.5526 95.0775 21.7432 95.2776 21.8795C95.4639 22.0186 95.7339 22.088 96.0876 22.0876C96.4412 22.0872 96.7209 22.013 96.9265 21.865C97.1262 21.7289 97.275 21.5304 97.3498 21.3007C97.4494 21.0508 97.5146 20.7886 97.5434 20.5212C97.5524 20.2391 97.557 19.9619 97.5574 19.6898C97.5574 19.3926 97.5527 19.1079 97.5434 18.8358C97.513 18.5758 97.4478 18.3211 97.3498 18.0784C97.2753 17.8484 97.1264 17.6499 96.9265 17.514C96.7209 17.3699 96.4412 17.2979 96.0876 17.2979Z" fill="white"/>
<path d="M100.607 19.6893C100.607 18.8786 100.672 18.2558 100.8 17.8209C100.921 17.4207 101.132 17.0535 101.417 16.7481C101.623 16.4927 101.909 16.2644 102.276 16.0631C102.639 15.8721 103.105 15.7716 103.674 15.7616C104.261 15.7713 104.737 15.8723 105.1 16.0647C105.458 16.2674 105.735 16.497 105.932 16.7534C106.231 17.0505 106.448 17.4202 106.561 17.8263C106.68 18.2608 106.739 18.8825 106.739 19.6915C106.739 20.5004 106.68 21.1167 106.562 21.5405C106.444 21.9537 106.228 22.3322 105.931 22.6434C105.826 22.7659 105.708 22.8773 105.58 22.976C105.439 23.1102 105.276 23.2181 105.097 23.2946C104.734 23.5067 104.259 23.6176 103.671 23.6272C103.103 23.6176 102.638 23.5067 102.277 23.2946C101.909 23.1019 101.623 22.8848 101.418 22.6434C101.136 22.3241 100.925 21.948 100.8 21.5405C100.672 21.1157 100.607 20.4986 100.607 19.6893ZM105.247 19.7038C105.247 19.1545 105.223 18.7536 105.176 18.5011C105.131 18.2672 105.03 18.0478 104.881 17.8622C104.762 17.6812 104.592 17.5393 104.392 17.454C104.169 17.346 103.922 17.2925 103.674 17.2979C103.43 17.2956 103.19 17.349 102.97 17.454C102.771 17.547 102.599 17.6872 102.467 17.8622C102.333 18.0551 102.238 18.2721 102.187 18.5011C102.129 18.7532 102.1 19.1493 102.101 19.6893C102.101 20.2293 102.13 20.6204 102.187 20.8625C102.238 21.1007 102.333 21.3273 102.467 21.5309C102.61 21.6903 102.781 21.8235 102.97 21.9246C103.188 22.0331 103.43 22.0883 103.674 22.0855C103.923 22.0915 104.17 22.0362 104.392 21.9246C104.582 21.8313 104.749 21.6968 104.881 21.5309C105.031 21.3346 105.132 21.1055 105.176 20.8625C105.223 20.6146 105.247 20.2284 105.247 19.7038H105.247Z" fill="white"/>
<path d="M32.0619 31.5372C31.9432 32.2006 31.675 32.7 31.2573 33.0355C30.8396 33.3709 30.3343 33.5383 29.7414 33.5375C29.4129 33.545 29.0863 33.486 28.7812 33.3643C28.5063 33.2476 28.2559 33.0801 28.043 32.8708C27.8941 32.7258 27.7696 32.5577 27.6745 32.373C27.5861 32.1943 27.5231 32.0042 27.4873 31.8081C27.4471 31.5865 27.4234 31.3622 27.4165 31.137C27.4075 30.8942 27.4031 30.6215 27.4031 30.319C27.4031 30.0164 27.4075 29.7438 27.4165 29.5009C27.4235 29.2756 27.4471 29.0511 27.4873 28.8293C27.5232 28.6334 27.5862 28.4435 27.6745 28.265C27.7699 28.0804 27.8943 27.9124 28.043 27.7672C28.2561 27.558 28.5064 27.3906 28.7812 27.2737C29.0864 27.1522 29.4129 27.0933 29.7414 27.1004C30.3343 27.1004 30.8396 27.2678 31.2573 27.6025C31.675 27.9373 31.9432 28.4367 32.0619 29.1008H30.7997C30.7441 28.8588 30.6242 28.6364 30.4527 28.4571C30.2871 28.2875 30.05 28.203 29.7414 28.2033C29.5841 28.2007 29.4281 28.231 29.2832 28.2924C29.156 28.347 29.0423 28.4288 28.9501 28.5322C28.8901 28.5984 28.8405 28.6735 28.8031 28.7548C28.7587 28.8577 28.7273 28.9659 28.7098 29.0766C28.6824 29.2401 28.6645 29.4051 28.6562 29.5707C28.6444 29.7692 28.6385 30.0195 28.6385 30.3217C28.6385 30.6239 28.6444 30.8742 28.6562 31.0727C28.6644 31.2379 28.6824 31.4025 28.7098 31.5656C28.7272 31.6764 28.7586 31.7846 28.8031 31.8875C28.8404 31.9687 28.89 32.0436 28.9501 32.1096C29.0421 32.2132 29.1559 32.2953 29.2832 32.3499C29.428 32.4116 29.5841 32.4419 29.7414 32.4389C30.05 32.4389 30.2885 32.3544 30.4569 32.1852C30.6312 32.0072 30.7528 31.7844 30.8083 31.5415L32.0619 31.5372Z" fill="white"/>
<path d="M33.5731 33.4846V27.1548H34.8069V32.3833H37.6784V33.4857L33.5731 33.4846Z" fill="white"/>
<path d="M43.6832 30.319C43.6832 30.6212 43.679 30.8939 43.6704 31.137C43.6633 31.3624 43.638 31.5868 43.5947 31.8081C43.5558 32.0039 43.4914 32.1938 43.4032 32.373C43.3081 32.5577 43.1836 32.7258 43.0347 32.8708C42.826 33.0812 42.5782 33.2488 42.3052 33.3643C42 33.486 41.6734 33.545 41.345 33.5375C41.0148 33.5449 40.6865 33.4859 40.3794 33.3643C40.1047 33.2496 39.8554 33.0819 39.6456 32.8708C39.4966 32.7258 39.3722 32.5577 39.277 32.373C39.1886 32.1943 39.1256 32.0042 39.0898 31.8081C39.0496 31.5865 39.026 31.3622 39.019 31.137C39.0101 30.8942 39.0056 30.6215 39.0056 30.319C39.0056 30.0164 39.0101 29.7438 39.019 29.5009C39.026 29.2756 39.0497 29.0511 39.0898 28.8293C39.1257 28.6334 39.1887 28.4435 39.277 28.265C39.3724 28.0804 39.4969 27.9124 39.6456 27.7672C39.8555 27.5563 40.1049 27.3886 40.3794 27.2737C40.6865 27.1523 41.0148 27.0934 41.345 27.1004C41.6734 27.0933 41.9999 27.1522 42.3052 27.2737C42.5781 27.3893 42.8258 27.557 43.0347 27.7672C43.1834 27.9124 43.3078 28.0804 43.4032 28.265C43.4913 28.444 43.5557 28.6337 43.5947 28.8293C43.6379 29.0508 43.6632 29.2754 43.6704 29.5009C43.679 29.7438 43.6832 30.0164 43.6832 30.319ZM42.4495 30.319C42.4495 30.0164 42.4436 29.7661 42.4318 29.568C42.4235 29.4024 42.4056 29.2375 42.3781 29.0739C42.361 28.9652 42.3296 28.8591 42.2848 28.7585C42.2466 28.6792 42.1971 28.6059 42.1378 28.5407C42.045 28.4369 41.9315 28.3536 41.8047 28.2961C41.6598 28.2345 41.504 28.2028 41.3466 28.2028C41.1892 28.2028 41.0333 28.2345 40.8885 28.2961C40.7599 28.355 40.6439 28.438 40.5468 28.5407C40.4875 28.6059 40.438 28.6792 40.3998 28.7585C40.355 28.8591 40.3236 28.9652 40.3064 29.0739C40.2793 29.2374 40.2629 29.4024 40.2571 29.568C40.2485 29.7665 40.2442 30.0168 40.2442 30.319C40.2442 30.6212 40.2485 30.8715 40.2571 31.07C40.2627 31.2338 40.2792 31.3971 40.3064 31.5587C40.3238 31.666 40.3552 31.7706 40.3998 31.8698C40.4378 31.9492 40.4874 32.0226 40.5468 32.0876C40.6445 32.1908 40.7603 32.2752 40.8885 32.3365C41.0325 32.4012 41.1887 32.4347 41.3466 32.4347C41.5045 32.4347 41.6606 32.4012 41.8047 32.3365C41.9312 32.2766 42.0445 32.1919 42.1378 32.0876C42.1972 32.0226 42.2467 31.9492 42.2848 31.8698C42.3293 31.7706 42.3607 31.666 42.3781 31.5587C42.4058 31.397 42.4237 31.2338 42.4318 31.07C42.4421 30.8715 42.4473 30.6212 42.4473 30.319H42.4495Z" fill="white"/>
<path d="M49.8253 31.3146C49.8301 31.6295 49.7679 31.9418 49.643 32.2308C49.5272 32.4951 49.3578 32.7326 49.1457 32.9282C48.9305 33.1235 48.68 33.2759 48.4076 33.3772C47.8184 33.5906 47.1729 33.5906 46.5837 33.3772C46.3113 33.2761 46.0607 33.1236 45.8456 32.9282C45.6331 32.7328 45.4636 32.4953 45.3478 32.2308C45.2228 31.9418 45.1607 31.6295 45.1654 31.3146V27.1536H46.3992V31.2706C46.3992 31.6379 46.497 31.924 46.6926 32.1289C46.8882 32.3338 47.155 32.4361 47.493 32.4357C47.8309 32.4357 48.0991 32.3335 48.2976 32.1289C48.4961 31.9244 48.5953 31.6383 48.5953 31.2706V27.1536H49.8221L49.8253 31.3146Z" fill="white"/>
<path d="M55.9702 30.3192C55.9702 30.5802 55.9673 30.8188 55.9616 31.0348C55.9569 31.234 55.9421 31.433 55.9171 31.6307C55.8957 31.8006 55.8554 31.9676 55.7969 32.1285C55.7396 32.2805 55.6634 32.4247 55.57 32.5577C55.3684 32.8577 55.0924 33.1004 54.7691 33.262C54.4608 33.4104 54.0904 33.4846 53.6576 33.4846H51.3735V27.1548H53.6587C54.0911 27.1548 54.4616 27.229 54.7702 27.3774C55.093 27.5383 55.3686 27.7803 55.57 28.0796C55.6634 28.2125 55.7396 28.3567 55.7969 28.5087C55.8555 28.6696 55.8958 28.8366 55.9171 29.0065C55.942 29.2041 55.9569 29.4029 55.9616 29.602C55.9677 29.8194 55.9705 30.0585 55.9702 30.3192ZM54.7364 30.3192C54.7364 30.0688 54.7335 29.8543 54.7278 29.6755C54.724 29.5208 54.7121 29.3665 54.6924 29.2131C54.6782 29.1035 54.6529 28.9956 54.6168 28.8912C54.5847 28.804 54.5381 28.723 54.4789 28.6514C54.2711 28.3907 53.9629 28.2604 53.5541 28.2604H52.6095V32.386H53.552C53.9614 32.386 54.2697 32.2555 54.4768 31.9944C54.5362 31.923 54.5828 31.8419 54.6146 31.7546C54.6509 31.6493 54.6763 31.5406 54.6903 31.4301C54.71 31.2767 54.7218 31.1223 54.7257 30.9677C54.7314 30.7846 54.7342 30.5684 54.7342 30.3192H54.7364Z" fill="white"/>
<path d="M64.6314 31.5372C64.513 32.2006 64.2448 32.7 63.8267 33.0354C63.4087 33.3709 62.9035 33.5383 62.3113 33.5375C61.9827 33.5449 61.6559 33.486 61.3506 33.3643C61.076 33.2474 60.8258 33.08 60.613 32.8708C60.4639 32.7258 60.3393 32.5577 60.2439 32.373C60.1559 32.1942 60.0931 32.0041 60.0573 31.8081C60.0168 31.5865 59.9931 31.3622 59.9865 31.137C59.9772 30.8942 59.9727 30.6215 59.973 30.319C59.9734 30.0164 59.9779 29.7438 59.9865 29.5009C59.9932 29.2756 60.0168 29.0511 60.0573 28.8293C60.0932 28.6335 60.156 28.4436 60.2439 28.265C60.3395 28.0804 60.4641 27.9123 60.613 27.7672C60.8259 27.5581 61.0761 27.3908 61.3506 27.2737C61.656 27.1522 61.9827 27.0933 62.3113 27.1004C62.9042 27.1004 63.4094 27.2678 63.8267 27.6025C64.2441 27.9373 64.5123 28.4367 64.6314 29.1008H63.3692C63.3134 28.8589 63.1935 28.6366 63.0221 28.4571C62.8558 28.2875 62.6187 28.203 62.3108 28.2033C62.1535 28.2006 61.9975 28.2309 61.8527 28.2924C61.7254 28.3471 61.6115 28.4289 61.519 28.5322C61.4593 28.5986 61.4099 28.6736 61.3726 28.7548C61.3281 28.8577 61.2968 28.9659 61.2792 29.0766C61.2518 29.2401 61.2339 29.4051 61.2256 29.5707C61.2134 29.7691 61.2074 30.0195 61.2074 30.3217C61.2074 30.6239 61.2134 30.8742 61.2256 31.0727C61.2339 31.2379 61.2518 31.4025 61.2792 31.5656C61.2966 31.6764 61.328 31.7846 61.3726 31.8875C61.4098 31.9685 61.4592 32.0434 61.519 32.1096C61.6113 32.2131 61.7252 32.2951 61.8527 32.3499C61.9974 32.4116 62.1535 32.4419 62.3108 32.4389C62.6187 32.4389 62.8572 32.3544 63.0264 32.1852C63.2006 32.0071 63.3222 31.7844 63.3777 31.5415L64.6314 31.5372Z" fill="white"/>
<path d="M69.6539 33.4846L69.2784 32.364H67.0313L66.6489 33.4846H65.3615L67.6643 27.1548H68.6336L70.9451 33.4846H69.6539ZM68.1793 29.021L67.3795 31.3239H68.9534L68.1793 29.021Z" fill="white"/>
<path d="M76.7669 30.3191C76.7669 30.5802 76.7641 30.8187 76.7583 31.0347C76.7519 31.2493 76.7374 31.4499 76.7138 31.6307C76.6926 31.8005 76.6525 31.9675 76.5942 32.1285C76.5369 32.2805 76.4607 32.4247 76.3673 32.5576C76.1654 32.8567 75.8897 33.0986 75.5669 33.2598C75.259 33.4082 74.8885 33.4824 74.4555 33.4824H72.1703V27.1526H74.456C74.8887 27.1526 75.2592 27.2268 75.5675 27.3752C75.8903 27.5363 76.1661 27.7782 76.3678 28.0774C76.4612 28.2103 76.5374 28.3545 76.5947 28.5065C76.6531 28.6675 76.6932 28.8344 76.7143 29.0043C76.738 29.1851 76.7524 29.3836 76.7589 29.5998C76.7653 29.8159 76.7669 30.0584 76.7669 30.3191ZM75.5331 30.3191C75.5331 30.0702 75.5331 29.8556 75.5246 29.6754C75.5207 29.5208 75.5089 29.3664 75.4892 29.213C75.475 29.1034 75.4496 28.9956 75.4135 28.8911C75.3815 28.8041 75.335 28.7231 75.2762 28.6514C75.0688 28.3907 74.7605 28.2603 74.3514 28.2603H73.4084V32.386H74.3487C74.7575 32.386 75.0657 32.2554 75.2735 31.9944C75.3326 31.9228 75.379 31.8417 75.4108 31.7546C75.4471 31.6493 75.4725 31.5405 75.4865 31.43C75.5062 31.2766 75.518 31.1223 75.5219 30.9676C75.5288 30.7831 75.5288 30.568 75.5288 30.3191H75.5331Z" fill="white"/>
<path d="M32.0619 31.5372C31.9432 32.2006 31.675 32.7 31.2573 33.0355C30.8396 33.3709 30.3343 33.5383 29.7414 33.5375C29.4129 33.545 29.0863 33.486 28.7812 33.3643C28.5063 33.2476 28.2559 33.0801 28.043 32.8708C27.8941 32.7258 27.7696 32.5577 27.6745 32.373C27.5861 32.1943 27.5231 32.0042 27.4873 31.8081C27.4471 31.5865 27.4234 31.3622 27.4165 31.137C27.4075 30.8942 27.4031 30.6215 27.4031 30.319C27.4031 30.0164 27.4075 29.7438 27.4165 29.5009C27.4235 29.2756 27.4471 29.0511 27.4873 28.8293C27.5232 28.6334 27.5862 28.4435 27.6745 28.265C27.7699 28.0804 27.8943 27.9124 28.043 27.7672C28.2561 27.558 28.5064 27.3906 28.7812 27.2737C29.0864 27.1522 29.4129 27.0933 29.7414 27.1004C30.3343 27.1004 30.8396 27.2678 31.2573 27.6025C31.675 27.9373 31.9432 28.4367 32.0619 29.1008H30.7997C30.7441 28.8588 30.6242 28.6364 30.4527 28.4571C30.2871 28.2875 30.05 28.203 29.7414 28.2033C29.5841 28.2007 29.4281 28.231 29.2832 28.2924C29.156 28.347 29.0423 28.4288 28.9501 28.5322C28.8901 28.5984 28.8405 28.6735 28.8031 28.7548C28.7587 28.8577 28.7273 28.9659 28.7098 29.0766C28.6824 29.2401 28.6645 29.4051 28.6562 29.5707C28.6444 29.7692 28.6385 30.0195 28.6385 30.3217C28.6385 30.6239 28.6444 30.8742 28.6562 31.0727C28.6644 31.2379 28.6824 31.4025 28.7098 31.5656C28.7272 31.6764 28.7586 31.7846 28.8031 31.8875C28.8404 31.9687 28.89 32.0436 28.9501 32.1096C29.0421 32.2132 29.1559 32.2953 29.2832 32.3499C29.428 32.4116 29.5841 32.4419 29.7414 32.4389C30.05 32.4389 30.2885 32.3544 30.4569 32.1852C30.6312 32.0072 30.7528 31.7844 30.8083 31.5415L32.0619 31.5372Z" fill="white"/>
<path d="M33.5731 33.4846V27.1548H34.8069V32.3833H37.6784V33.4857L33.5731 33.4846Z" fill="white"/>
<path d="M43.6832 30.319C43.6832 30.6212 43.679 30.8939 43.6704 31.137C43.6633 31.3624 43.638 31.5868 43.5947 31.8081C43.5558 32.0039 43.4914 32.1938 43.4032 32.373C43.3081 32.5577 43.1836 32.7258 43.0347 32.8708C42.826 33.0812 42.5782 33.2488 42.3052 33.3643C42 33.486 41.6734 33.545 41.345 33.5375C41.0148 33.5449 40.6865 33.4859 40.3794 33.3643C40.1047 33.2496 39.8554 33.0819 39.6456 32.8708C39.4966 32.7258 39.3722 32.5577 39.277 32.373C39.1886 32.1943 39.1256 32.0042 39.0898 31.8081C39.0496 31.5865 39.026 31.3622 39.019 31.137C39.0101 30.8942 39.0056 30.6215 39.0056 30.319C39.0056 30.0164 39.0101 29.7438 39.019 29.5009C39.026 29.2756 39.0497 29.0511 39.0898 28.8293C39.1257 28.6334 39.1887 28.4435 39.277 28.265C39.3724 28.0804 39.4969 27.9124 39.6456 27.7672C39.8555 27.5563 40.1049 27.3886 40.3794 27.2737C40.6865 27.1523 41.0148 27.0934 41.345 27.1004C41.6734 27.0933 41.9999 27.1522 42.3052 27.2737C42.5781 27.3893 42.8258 27.557 43.0347 27.7672C43.1834 27.9124 43.3078 28.0804 43.4032 28.265C43.4913 28.444 43.5557 28.6337 43.5947 28.8293C43.6379 29.0508 43.6632 29.2754 43.6704 29.5009C43.679 29.7438 43.6832 30.0164 43.6832 30.319ZM42.4495 30.319C42.4495 30.0164 42.4436 29.7661 42.4318 29.568C42.4235 29.4024 42.4056 29.2375 42.3781 29.0739C42.361 28.9652 42.3296 28.8591 42.2848 28.7585C42.2466 28.6792 42.1971 28.6059 42.1378 28.5407C42.045 28.4369 41.9315 28.3536 41.8047 28.2961C41.6598 28.2345 41.504 28.2028 41.3466 28.2028C41.1892 28.2028 41.0333 28.2345 40.8885 28.2961C40.7599 28.355 40.6439 28.438 40.5468 28.5407C40.4875 28.6059 40.438 28.6792 40.3998 28.7585C40.355 28.8591 40.3236 28.9652 40.3064 29.0739C40.2793 29.2374 40.2629 29.4024 40.2571 29.568C40.2485 29.7665 40.2442 30.0168 40.2442 30.319C40.2442 30.6212 40.2485 30.8715 40.2571 31.07C40.2627 31.2338 40.2792 31.3971 40.3064 31.5587C40.3238 31.666 40.3552 31.7706 40.3998 31.8698C40.4378 31.9492 40.4874 32.0226 40.5468 32.0876C40.6445 32.1908 40.7603 32.2752 40.8885 32.3365C41.0325 32.4012 41.1887 32.4347 41.3466 32.4347C41.5045 32.4347 41.6606 32.4012 41.8047 32.3365C41.9312 32.2766 42.0445 32.1919 42.1378 32.0876C42.1972 32.0226 42.2467 31.9492 42.2848 31.8698C42.3293 31.7706 42.3607 31.666 42.3781 31.5587C42.4058 31.397 42.4237 31.2338 42.4318 31.07C42.4421 30.8715 42.4473 30.6212 42.4473 30.319H42.4495Z" fill="white"/>
<path d="M49.8253 31.3146C49.8301 31.6295 49.7679 31.9418 49.643 32.2308C49.5272 32.4951 49.3578 32.7326 49.1457 32.9282C48.9305 33.1235 48.68 33.2759 48.4076 33.3772C47.8184 33.5906 47.1729 33.5906 46.5837 33.3772C46.3113 33.2761 46.0607 33.1236 45.8456 32.9282C45.6331 32.7328 45.4636 32.4953 45.3478 32.2308C45.2228 31.9418 45.1607 31.6295 45.1654 31.3146V27.1536H46.3992V31.2706C46.3992 31.6379 46.497 31.924 46.6926 32.1289C46.8882 32.3338 47.155 32.4361 47.493 32.4357C47.8309 32.4357 48.0991 32.3335 48.2976 32.1289C48.4961 31.9244 48.5953 31.6383 48.5953 31.2706V27.1536H49.8221L49.8253 31.3146Z" fill="white"/>
<path d="M55.9702 30.3192C55.9702 30.5802 55.9673 30.8188 55.9616 31.0348C55.9569 31.234 55.9421 31.433 55.9171 31.6307C55.8957 31.8006 55.8554 31.9676 55.7969 32.1285C55.7396 32.2805 55.6634 32.4247 55.57 32.5577C55.3684 32.8577 55.0924 33.1004 54.7691 33.262C54.4608 33.4104 54.0904 33.4846 53.6576 33.4846H51.3735V27.1548H53.6587C54.0911 27.1548 54.4616 27.229 54.7702 27.3774C55.093 27.5383 55.3686 27.7803 55.57 28.0796C55.6634 28.2125 55.7396 28.3567 55.7969 28.5087C55.8555 28.6696 55.8958 28.8366 55.9171 29.0065C55.942 29.2041 55.9569 29.4029 55.9616 29.602C55.9677 29.8194 55.9705 30.0585 55.9702 30.3192ZM54.7364 30.3192C54.7364 30.0688 54.7335 29.8543 54.7278 29.6755C54.724 29.5208 54.7121 29.3665 54.6924 29.2131C54.6782 29.1035 54.6529 28.9956 54.6168 28.8912C54.5847 28.804 54.5381 28.723 54.4789 28.6514C54.2711 28.3907 53.9629 28.2604 53.5541 28.2604H52.6095V32.386H53.552C53.9614 32.386 54.2697 32.2555 54.4768 31.9944C54.5362 31.923 54.5828 31.8419 54.6146 31.7546C54.6509 31.6493 54.6763 31.5406 54.6903 31.4301C54.71 31.2767 54.7218 31.1223 54.7257 30.9677C54.7314 30.7846 54.7342 30.5684 54.7342 30.3192H54.7364Z" fill="white"/>
<path d="M64.6314 31.5372C64.513 32.2006 64.2448 32.7 63.8267 33.0354C63.4087 33.3709 62.9035 33.5383 62.3113 33.5375C61.9827 33.5449 61.6559 33.486 61.3506 33.3643C61.076 33.2474 60.8258 33.08 60.613 32.8708C60.4639 32.7258 60.3393 32.5577 60.2439 32.373C60.1559 32.1942 60.0931 32.0041 60.0573 31.8081C60.0168 31.5865 59.9931 31.3622 59.9865 31.137C59.9772 30.8942 59.9727 30.6215 59.973 30.319C59.9734 30.0164 59.9779 29.7438 59.9865 29.5009C59.9932 29.2756 60.0168 29.0511 60.0573 28.8293C60.0932 28.6335 60.156 28.4436 60.2439 28.265C60.3395 28.0804 60.4641 27.9123 60.613 27.7672C60.8259 27.5581 61.0761 27.3908 61.3506 27.2737C61.656 27.1522 61.9827 27.0933 62.3113 27.1004C62.9042 27.1004 63.4094 27.2678 63.8267 27.6025C64.2441 27.9373 64.5123 28.4367 64.6314 29.1008H63.3692C63.3134 28.8589 63.1935 28.6366 63.0221 28.4571C62.8558 28.2875 62.6187 28.203 62.3108 28.2033C62.1535 28.2006 61.9975 28.2309 61.8527 28.2924C61.7254 28.3471 61.6115 28.4289 61.519 28.5322C61.4593 28.5986 61.4099 28.6736 61.3726 28.7548C61.3281 28.8577 61.2968 28.9659 61.2792 29.0766C61.2518 29.2401 61.2339 29.4051 61.2256 29.5707C61.2134 29.7691 61.2074 30.0195 61.2074 30.3217C61.2074 30.6239 61.2134 30.8742 61.2256 31.0727C61.2339 31.2379 61.2518 31.4025 61.2792 31.5656C61.2966 31.6764 61.328 31.7846 61.3726 31.8875C61.4098 31.9685 61.4592 32.0434 61.519 32.1096C61.6113 32.2131 61.7252 32.2951 61.8527 32.3499C61.9974 32.4116 62.1535 32.4419 62.3108 32.4389C62.6187 32.4389 62.8572 32.3544 63.0264 32.1852C63.2006 32.0071 63.3222 31.7844 63.3777 31.5415L64.6314 31.5372Z" fill="white"/>
<path d="M69.6539 33.4846L69.2784 32.364H67.0313L66.6489 33.4846H65.3615L67.6643 27.1548H68.6336L70.9451 33.4846H69.6539ZM68.1793 29.021L67.3795 31.3239H68.9534L68.1793 29.021Z" fill="white"/>
<path d="M76.7669 30.3191C76.7669 30.5802 76.7641 30.8187 76.7583 31.0347C76.7519 31.2493 76.7374 31.4499 76.7138 31.6307C76.6926 31.8005 76.6525 31.9675 76.5942 32.1285C76.5369 32.2805 76.4607 32.4247 76.3673 32.5576C76.1654 32.8567 75.8897 33.0986 75.5669 33.2598C75.259 33.4082 74.8885 33.4824 74.4555 33.4824H72.1703V27.1526H74.456C74.8887 27.1526 75.2592 27.2268 75.5675 27.3752C75.8903 27.5363 76.1661 27.7782 76.3678 28.0774C76.4612 28.2103 76.5374 28.3545 76.5947 28.5065C76.6531 28.6675 76.6932 28.8344 76.7143 29.0043C76.738 29.1851 76.7524 29.3836 76.7589 29.5998C76.7653 29.8159 76.7669 30.0584 76.7669 30.3191ZM75.5331 30.3191C75.5331 30.0702 75.5331 29.8556 75.5246 29.6754C75.5207 29.5208 75.5089 29.3664 75.4892 29.213C75.475 29.1034 75.4496 28.9956 75.4135 28.8911C75.3815 28.8041 75.335 28.7231 75.2762 28.6514C75.0688 28.3907 74.7605 28.2603 74.3514 28.2603H73.4084V32.386H74.3487C74.7575 32.386 75.0657 32.2554 75.2735 31.9944C75.3326 31.9228 75.379 31.8417 75.4108 31.7546C75.4471 31.6493 75.4725 31.5405 75.4865 31.43C75.5062 31.2766 75.518 31.1223 75.5219 30.9676C75.5288 30.7831 75.5288 30.568 75.5288 30.3191H75.5331Z" fill="white"/>
<path d="M15.5343 33.4941C15.5343 33.4941 13.8548 29.8936 14.7517 24.7965C15.9221 18.1497 27.1222 12.72 27.1222 12.72C11.6195 17.587 5.47632 23.7097 15.5343 33.4941Z" fill="#C70A1A"/>
<path d="M15.5338 33.4943C15.5338 33.4943 12.7315 27.9123 14.3225 21.8754C16.5218 13.5071 30.3783 7.6311 30.3783 7.6311C9.87714 11.753 0.863047 22.4397 15.5338 33.4943Z" fill="#9E0F05"/>
<path d="M15.5352 33.4959C14.4087 31.8282 9.83625 26.0584 10.8683 19.3922C12.1965 10.8094 33.0259 2.54846 33.0259 2.54846C7.08116 8.90296 -11.5623 20.4243 15.5385 33.5002" fill="#ED0000"/>
</svg>
