<svg width="110" height="36" viewBox="0 0 110 36" fill="none" xmlns="http://www.w3.org/2000/svg">
<path d="M33.9599 23.534L33.2175 21.3668H28.9588L28.2159 23.534H26.4736L30.4286 12.7432H31.7477L35.7028 23.534H33.9599ZM31.126 15.1834L29.4437 19.9726H32.7626L31.126 15.1834Z" fill="#010204"/>
<path d="M43.1914 23.534L40.918 18.9872H38.8715V23.534H37.2349V12.7432H41.419C43.465 12.7432 44.7685 14.0618 44.7685 15.8958C44.7685 17.4418 43.8287 18.4267 42.6163 18.7598L45.1016 23.534H43.1914ZM41.2967 14.2136H38.8715V17.5931H41.2967C42.3878 17.5931 43.1302 16.9719 43.1302 15.9108C43.1302 14.8498 42.3878 14.2136 41.2967 14.2136Z" fill="#010204"/>
<path d="M47.1621 23.534V12.7432H54.0578V14.2136H48.8009V17.3656H53.287V18.8209H48.7987V22.0642H54.0557V23.534H47.1621Z" fill="#010204"/>
<path d="M59.1679 23.6249C57.5463 23.6249 56.3946 23.2457 55.3491 22.2002L56.422 21.1241C57.2105 21.9121 58.1047 22.1701 59.1958 22.1701C60.6206 22.1701 61.4236 21.5634 61.4236 20.5029C61.4236 20.0175 61.3024 19.6388 60.9993 19.3813C60.7263 19.1388 60.3626 19.0026 59.8192 18.9269L58.5462 18.7445C57.667 18.6083 56.9852 18.3352 56.5153 17.8809C55.9848 17.3981 55.7107 16.7007 55.7107 15.8044C55.7107 13.9269 57.0748 12.6523 59.3176 12.6523C60.7574 12.6523 61.7422 13.016 62.6665 13.8797L61.6355 14.9102C60.9682 14.274 60.1802 14.0771 59.2559 14.0771C57.983 14.0771 57.3006 14.7744 57.3006 15.7593C57.3006 16.1531 57.4079 16.5168 57.6949 16.7592C57.9674 17.0017 58.285 17.1535 58.875 17.242L60.1625 17.4394C61.1479 17.5907 61.6929 17.8181 62.1628 18.244C62.7389 18.7746 63.042 19.517 63.042 20.4568C63.0458 22.4426 61.4392 23.6249 59.1679 23.6249Z" fill="#010204"/>
<path d="M67.6649 18.5367C67.0336 18.5367 66.4165 18.3496 65.8917 17.9988C65.3668 17.6481 64.9577 17.1496 64.7161 16.5664C64.4745 15.9832 64.4113 15.3415 64.5345 14.7223C64.6577 14.1032 64.9616 13.5345 65.408 13.0881C65.8544 12.6417 66.4231 12.3378 67.0422 12.2146C67.6614 12.0915 68.3031 12.1547 68.8863 12.3962C69.4695 12.6378 69.968 13.0469 70.3187 13.5718C70.6694 14.0967 70.8566 14.7137 70.8566 15.345C70.8567 15.7642 70.7742 16.1792 70.6138 16.5665C70.4534 16.9538 70.2183 17.3057 69.922 17.6021C69.6256 17.8985 69.2737 18.1336 68.8864 18.2939C68.4991 18.4543 68.0841 18.5368 67.6649 18.5367ZM67.6649 12.7433C66.2369 12.7433 65.1083 13.8897 65.1083 15.3445C65.1083 16.7993 66.2348 17.9451 67.6649 17.9451C69.095 17.9451 70.2129 16.7993 70.2129 15.3445C70.2129 13.8897 69.0918 12.7433 67.6649 12.7433ZM68.3349 17.0637L67.6295 15.6969H67.1891V17.0637H66.554V13.6172H67.85C68.5023 13.6172 68.9614 14.1 68.9614 14.6756C68.9614 15.1583 68.6616 15.4802 68.2823 15.61L69.0494 17.0648L68.3349 17.0637ZM67.7706 14.1541H67.1891V15.1943H67.7706C68.1058 15.1943 68.3349 14.9652 68.3349 14.6745C68.3349 14.3837 68.1058 14.1552 67.7706 14.1552V14.1541Z" fill="#010204"/>
<path d="M75.8286 12.7471H77.411V18.305H77.4421L81.7448 12.7471H83.6223L80.2734 17.0026L83.9747 23.5373H82.0972L79.2488 18.2605L77.411 20.2528V23.5389H75.8286V12.7471Z" fill="#010204"/>
<path d="M84.9692 15.8545H86.4626V20.4355C86.4626 20.9541 86.6037 21.3591 86.8858 21.6505C87.168 21.942 87.5217 22.0877 87.9469 22.0877C88.376 22.0877 88.7274 21.942 89.001 21.6505C89.2745 21.3591 89.4131 20.9541 89.4167 20.4355V15.8545H90.9106V23.5377H89.4162V22.7159H89.3877C88.896 23.3238 88.2539 23.6278 87.4614 23.6278C86.8449 23.6182 86.2886 23.3868 85.7926 22.9337C85.253 22.4906 84.9784 21.8356 84.9688 20.9688L84.9692 15.8545Z" fill="#010204"/>
<path d="M97.5574 22.7356C97.066 23.3096 96.4239 23.6064 95.6311 23.6261C95.1823 23.6164 94.7978 23.5202 94.4777 23.3375C94.1497 23.1647 93.8636 22.9218 93.6399 22.6262C93.4342 22.3844 93.2981 22.0561 93.2316 21.6413C93.1508 21.2479 93.1102 20.5962 93.1099 19.686C93.1099 18.763 93.1505 18.1062 93.2316 17.7157C93.2981 17.3224 93.4342 17.0039 93.6399 16.7604C94.0597 16.1166 94.7234 15.783 95.6311 15.7594C95.9986 15.7561 96.3617 15.8393 96.691 16.0024C97.0068 16.1855 97.2979 16.4081 97.5574 16.6649V12.749H99.0513V23.5376H97.5574V22.7356ZM96.0876 17.2979C95.7335 17.2979 95.4635 17.3597 95.2776 17.4835C95.0733 17.6153 94.9153 17.8075 94.8254 18.0333C94.7322 18.2767 94.672 18.5314 94.6462 18.7907C94.6176 19.0825 94.6033 19.382 94.6033 19.6892C94.603 19.9744 94.6173 20.2595 94.6462 20.5432C94.6699 20.8125 94.7301 21.0772 94.8254 21.3302C94.9206 21.5526 95.0775 21.7432 95.2776 21.8795C95.4639 22.0186 95.7339 22.088 96.0876 22.0876C96.4412 22.0872 96.7209 22.013 96.9265 21.865C97.1262 21.7289 97.275 21.5304 97.3498 21.3007C97.4494 21.0508 97.5146 20.7886 97.5434 20.5212C97.5524 20.2391 97.557 19.9619 97.5574 19.6898C97.5574 19.3926 97.5527 19.1079 97.5434 18.8358C97.513 18.5758 97.4478 18.3211 97.3498 18.0784C97.2753 17.8484 97.1264 17.6499 96.9265 17.514C96.7209 17.3699 96.4412 17.2979 96.0876 17.2979Z" fill="#010204"/>
<path d="M100.607 19.6894C100.607 18.8787 100.672 18.2559 100.8 17.821C100.921 17.4208 101.132 17.0536 101.417 16.7482C101.623 16.4928 101.909 16.2645 102.276 16.0632C102.639 15.8722 103.105 15.7717 103.674 15.7617C104.261 15.7714 104.737 15.8724 105.1 16.0648C105.458 16.2675 105.735 16.4971 105.932 16.7535C106.231 17.0506 106.448 17.4203 106.561 17.8264C106.68 18.2609 106.739 18.8826 106.739 19.6916C106.739 20.5005 106.68 21.1168 106.562 21.5406C106.444 21.9538 106.228 22.3323 105.931 22.6435C105.826 22.766 105.708 22.8774 105.58 22.9761C105.439 23.1103 105.276 23.2182 105.097 23.2947C104.734 23.5068 104.259 23.6177 103.671 23.6273C103.103 23.6177 102.638 23.5068 102.277 23.2947C101.909 23.102 101.623 22.8849 101.418 22.6435C101.136 22.3242 100.925 21.9481 100.8 21.5406C100.672 21.1158 100.607 20.4987 100.607 19.6894ZM105.247 19.7039C105.247 19.1546 105.223 18.7537 105.176 18.5012C105.131 18.2673 105.03 18.0479 104.881 17.8623C104.762 17.6813 104.592 17.5394 104.392 17.4541C104.169 17.3461 103.922 17.2926 103.674 17.298C103.43 17.2957 103.19 17.3491 102.97 17.4541C102.771 17.5471 102.599 17.6873 102.467 17.8623C102.333 18.0552 102.238 18.2722 102.187 18.5012C102.129 18.7533 102.1 19.1494 102.101 19.6894C102.101 20.2294 102.13 20.6205 102.187 20.8626C102.238 21.1008 102.333 21.3274 102.467 21.531C102.61 21.6904 102.781 21.8236 102.97 21.9247C103.188 22.0332 103.43 22.0884 103.674 22.0856C103.923 22.0916 104.17 22.0363 104.392 21.9247C104.582 21.8314 104.749 21.6969 104.881 21.531C105.031 21.3347 105.132 21.1056 105.176 20.8626C105.223 20.6147 105.247 20.2285 105.247 19.7039Z" fill="#010204"/>
<path d="M32.0621 31.537C31.9434 32.2004 31.6752 32.6998 31.2575 33.0353C30.8398 33.3707 30.3345 33.5381 29.7416 33.5373C29.4131 33.5448 29.0865 33.4858 28.7814 33.3641C28.5065 33.2474 28.2561 33.0799 28.0432 32.8706C27.8943 32.7256 27.7698 32.5575 27.6747 32.3728C27.5863 32.1941 27.5233 32.004 27.4875 31.8079C27.4473 31.5863 27.4236 31.362 27.4167 31.1368C27.4077 30.894 27.4033 30.6213 27.4033 30.3188C27.4033 30.0162 27.4077 29.7436 27.4167 29.5007C27.4237 29.2754 27.4473 29.0509 27.4875 28.8291C27.5234 28.6332 27.5864 28.4433 27.6747 28.2648C27.7701 28.0802 27.8945 27.9122 28.0432 27.767C28.2563 27.5578 28.5066 27.3904 28.7814 27.2735C29.0866 27.152 29.4131 27.0931 29.7416 27.1002C30.3345 27.1002 30.8398 27.2676 31.2575 27.6023C31.6752 27.9371 31.9434 28.4365 32.0621 29.1006H30.7999C30.7443 28.8586 30.6244 28.6362 30.4529 28.4569C30.2873 28.2873 30.0502 28.2028 29.7416 28.2031C29.5843 28.2005 29.4283 28.2308 29.2834 28.2922C29.1562 28.3468 29.0425 28.4286 28.9503 28.532C28.8903 28.5982 28.8407 28.6733 28.8033 28.7546C28.7589 28.8575 28.7275 28.9657 28.71 29.0764C28.6826 29.2399 28.6647 29.4049 28.6564 29.5705C28.6446 29.769 28.6387 30.0193 28.6387 30.3215C28.6387 30.6237 28.6446 30.874 28.6564 31.0725C28.6646 31.2377 28.6826 31.4023 28.71 31.5654C28.7274 31.6762 28.7588 31.7844 28.8033 31.8873C28.8406 31.9685 28.8902 32.0434 28.9503 32.1094C29.0423 32.213 29.1561 32.2951 29.2834 32.3497C29.4282 32.4114 29.5843 32.4417 29.7416 32.4387C30.0502 32.4387 30.2887 32.3542 30.4571 32.185C30.6314 32.007 30.753 31.7842 30.8085 31.5413L32.0621 31.537Z" fill="#010204"/>
<path d="M33.5732 33.4846V27.1548H34.807V32.3833H37.6785V33.4857L33.5732 33.4846Z" fill="#010204"/>
<path d="M43.683 30.3188C43.683 30.621 43.6788 30.8937 43.6702 31.1368C43.6631 31.3622 43.6378 31.5866 43.5945 31.8079C43.5556 32.0037 43.4912 32.1936 43.403 32.3728C43.3079 32.5575 43.1834 32.7256 43.0345 32.8706C42.8258 33.081 42.578 33.2486 42.305 33.3641C41.9998 33.4858 41.6732 33.5448 41.3448 33.5373C41.0146 33.5447 40.6863 33.4857 40.3792 33.3641C40.1045 33.2494 39.8552 33.0817 39.6454 32.8706C39.4964 32.7256 39.372 32.5575 39.2768 32.3728C39.1884 32.1941 39.1254 32.004 39.0896 31.8079C39.0494 31.5863 39.0258 31.362 39.0188 31.1368C39.0099 30.894 39.0054 30.6213 39.0054 30.3188C39.0054 30.0162 39.0099 29.7436 39.0188 29.5007C39.0258 29.2754 39.0495 29.0509 39.0896 28.8291C39.1255 28.6332 39.1885 28.4433 39.2768 28.2648C39.3722 28.0802 39.4967 27.9122 39.6454 27.767C39.8553 27.5561 40.1047 27.3884 40.3792 27.2735C40.6863 27.1521 41.0146 27.0932 41.3448 27.1002C41.6732 27.0931 41.9997 27.152 42.305 27.2735C42.5779 27.3891 42.8256 27.5568 43.0345 27.767C43.1832 27.9122 43.3076 28.0802 43.403 28.2648C43.4911 28.4438 43.5555 28.6335 43.5945 28.8291C43.6377 29.0506 43.663 29.2752 43.6702 29.5007C43.6788 29.7436 43.683 30.0162 43.683 30.3188ZM42.4493 30.3188C42.4493 30.0162 42.4434 29.7659 42.4316 29.5678C42.4233 29.4022 42.4054 29.2373 42.3779 29.0737C42.3608 28.965 42.3294 28.8589 42.2846 28.7583C42.2464 28.679 42.1969 28.6057 42.1376 28.5405C42.0448 28.4367 41.9313 28.3534 41.8045 28.2959C41.6596 28.2343 41.5038 28.2026 41.3464 28.2026C41.189 28.2026 41.0331 28.2343 40.8883 28.2959C40.7597 28.3548 40.6437 28.4378 40.5466 28.5405C40.4873 28.6057 40.4378 28.679 40.3996 28.7583C40.3548 28.8589 40.3234 28.965 40.3062 29.0737C40.2791 29.2372 40.2627 29.4022 40.2569 29.5678C40.2483 29.7663 40.244 30.0166 40.244 30.3188C40.244 30.621 40.2483 30.8713 40.2569 31.0698C40.2625 31.2336 40.279 31.3969 40.3062 31.5585C40.3236 31.6658 40.355 31.7704 40.3996 31.8696C40.4376 31.949 40.4872 32.0224 40.5466 32.0874C40.6443 32.1906 40.7601 32.275 40.8883 32.3363C41.0323 32.401 41.1885 32.4345 41.3464 32.4345C41.5043 32.4345 41.6604 32.401 41.8045 32.3363C41.931 32.2764 42.0443 32.1917 42.1376 32.0874C42.197 32.0224 42.2465 31.949 42.2846 31.8696C42.3291 31.7704 42.3605 31.6658 42.3779 31.5585C42.4056 31.3968 42.4235 31.2336 42.4316 31.0698C42.4419 30.8713 42.4471 30.621 42.4471 30.3188H42.4493Z" fill="#010204"/>
<path d="M49.8252 31.3148C49.83 31.6297 49.7678 31.942 49.6429 32.231C49.5271 32.4953 49.3577 32.7328 49.1456 32.9284C48.9304 33.1237 48.6799 33.2761 48.4075 33.3774C47.8183 33.5908 47.1728 33.5908 46.5836 33.3774C46.3112 33.2763 46.0606 33.1238 45.8455 32.9284C45.633 32.733 45.4635 32.4955 45.3477 32.231C45.2227 31.942 45.1606 31.6297 45.1653 31.3148V27.1538H46.3991V31.2708C46.3991 31.6381 46.4969 31.9242 46.6925 32.1291C46.8881 32.334 47.1549 32.4363 47.4929 32.4359C47.8308 32.4359 48.099 32.3337 48.2975 32.1291C48.496 31.9246 48.5952 31.6385 48.5952 31.2708V27.1538H49.822L49.8252 31.3148Z" fill="#010204"/>
<path d="M55.9702 30.3192C55.9702 30.5802 55.9673 30.8188 55.9616 31.0348C55.9569 31.234 55.9421 31.433 55.9171 31.6307C55.8957 31.8006 55.8554 31.9676 55.7969 32.1285C55.7396 32.2805 55.6634 32.4247 55.57 32.5577C55.3684 32.8577 55.0924 33.1004 54.7691 33.262C54.4608 33.4104 54.0904 33.4846 53.6576 33.4846H51.3735V27.1548H53.6587C54.0911 27.1548 54.4616 27.229 54.7702 27.3774C55.093 27.5383 55.3686 27.7803 55.57 28.0796C55.6634 28.2125 55.7396 28.3567 55.7969 28.5087C55.8555 28.6696 55.8958 28.8366 55.9171 29.0065C55.942 29.2041 55.9569 29.4029 55.9616 29.602C55.9677 29.8194 55.9705 30.0585 55.9702 30.3192ZM54.7364 30.3192C54.7364 30.0688 54.7335 29.8543 54.7278 29.6755C54.724 29.5208 54.7121 29.3665 54.6924 29.2131C54.6782 29.1035 54.6529 28.9956 54.6168 28.8912C54.5847 28.804 54.5381 28.723 54.4789 28.6514C54.2711 28.3907 53.9629 28.2604 53.5541 28.2604H52.6095V32.386H53.552C53.9614 32.386 54.2697 32.2555 54.4768 31.9944C54.5362 31.923 54.5828 31.8419 54.6146 31.7546C54.6509 31.6493 54.6763 31.5406 54.6903 31.4301C54.71 31.2767 54.7218 31.1223 54.7257 30.9677C54.7314 30.7846 54.7342 30.5684 54.7342 30.3192H54.7364Z" fill="#010204"/>
<path d="M64.6316 31.537C64.5132 32.2004 64.245 32.6998 63.8269 33.0352C63.4089 33.3707 62.9037 33.5381 62.3115 33.5373C61.9829 33.5447 61.6561 33.4858 61.3508 33.3641C61.0762 33.2472 60.826 33.0798 60.6132 32.8706C60.4641 32.7256 60.3395 32.5575 60.2441 32.3728C60.1561 32.194 60.0933 32.0039 60.0575 31.8079C60.017 31.5863 59.9933 31.362 59.9867 31.1368C59.9774 30.894 59.9729 30.6213 59.9732 30.3188C59.9736 30.0162 59.9781 29.7436 59.9867 29.5007C59.9934 29.2754 60.017 29.0509 60.0575 28.8291C60.0934 28.6333 60.1562 28.4434 60.2441 28.2648C60.3397 28.0802 60.4643 27.9121 60.6132 27.767C60.8261 27.5579 61.0763 27.3906 61.3508 27.2735C61.6562 27.152 61.9829 27.0931 62.3115 27.1002C62.9044 27.1002 63.4096 27.2676 63.8269 27.6023C64.2443 27.9371 64.5125 28.4365 64.6316 29.1006H63.3694C63.3136 28.8587 63.1937 28.6364 63.0223 28.4569C62.856 28.2873 62.6189 28.2028 62.311 28.2031C62.1537 28.2004 61.9977 28.2307 61.8529 28.2922C61.7256 28.3469 61.6117 28.4287 61.5192 28.532C61.4595 28.5984 61.4101 28.6734 61.3728 28.7546C61.3283 28.8575 61.297 28.9657 61.2794 29.0764C61.252 29.2399 61.2341 29.4049 61.2258 29.5705C61.2136 29.7689 61.2076 30.0193 61.2076 30.3215C61.2076 30.6237 61.2136 30.874 61.2258 31.0725C61.2341 31.2377 61.252 31.4023 61.2794 31.5654C61.2968 31.6762 61.3282 31.7844 61.3728 31.8873C61.41 31.9683 61.4594 32.0432 61.5192 32.1094C61.6115 32.2129 61.7254 32.2949 61.8529 32.3497C61.9976 32.4114 62.1537 32.4417 62.311 32.4387C62.6189 32.4387 62.8574 32.3542 63.0266 32.185C63.2008 32.0069 63.3224 31.7842 63.3779 31.5413L64.6316 31.537Z" fill="#010204"/>
<path d="M69.6537 33.4846L69.2782 32.364H67.0311L66.6487 33.4846H65.3613L67.6641 27.1548H68.6334L70.9449 33.4846H69.6537ZM68.1791 29.021L67.3793 31.3239H68.9532L68.1791 29.021Z" fill="#010204"/>
<path d="M76.767 30.3193C76.767 30.5804 76.7642 30.8189 76.7584 31.0349C76.752 31.2495 76.7375 31.4501 76.7139 31.6309C76.6927 31.8007 76.6526 31.9677 76.5943 32.1287C76.537 32.2807 76.4608 32.4249 76.3674 32.5578C76.1655 32.8569 75.8898 33.0988 75.567 33.26C75.2591 33.4084 74.8886 33.4826 74.4556 33.4826H72.1704V27.1528H74.4561C74.8888 27.1528 75.2593 27.227 75.5676 27.3754C75.8904 27.5365 76.1662 27.7784 76.3679 28.0776C76.4613 28.2105 76.5375 28.3547 76.5948 28.5067C76.6532 28.6677 76.6933 28.8346 76.7144 29.0045C76.7381 29.1853 76.7525 29.3838 76.759 29.6C76.7654 29.8161 76.767 30.0586 76.767 30.3193ZM75.5332 30.3193C75.5332 30.0704 75.5332 29.8558 75.5247 29.6756C75.5208 29.521 75.509 29.3666 75.4893 29.2132C75.4751 29.1036 75.4497 28.9958 75.4136 28.8913C75.3816 28.8043 75.3351 28.7233 75.2763 28.6516C75.0689 28.3909 74.7606 28.2605 74.3515 28.2605H73.4085V32.3862H74.3488C74.7576 32.3862 75.0658 32.2556 75.2736 31.9946C75.3327 31.923 75.3791 31.8419 75.4109 31.7548C75.4472 31.6495 75.4726 31.5407 75.4866 31.4302C75.5063 31.2768 75.5181 31.1225 75.522 30.9678C75.5289 30.7833 75.5289 30.5682 75.5289 30.3193H75.5332Z" fill="#010204"/>
<path d="M32.0621 31.537C31.9434 32.2004 31.6752 32.6998 31.2575 33.0353C30.8398 33.3707 30.3345 33.5381 29.7416 33.5373C29.4131 33.5448 29.0865 33.4858 28.7814 33.3641C28.5065 33.2474 28.2561 33.0799 28.0432 32.8706C27.8943 32.7256 27.7698 32.5575 27.6747 32.3728C27.5863 32.1941 27.5233 32.004 27.4875 31.8079C27.4473 31.5863 27.4236 31.362 27.4167 31.1368C27.4077 30.894 27.4033 30.6213 27.4033 30.3188C27.4033 30.0162 27.4077 29.7436 27.4167 29.5007C27.4237 29.2754 27.4473 29.0509 27.4875 28.8291C27.5234 28.6332 27.5864 28.4433 27.6747 28.2648C27.7701 28.0802 27.8945 27.9122 28.0432 27.767C28.2563 27.5578 28.5066 27.3904 28.7814 27.2735C29.0866 27.152 29.4131 27.0931 29.7416 27.1002C30.3345 27.1002 30.8398 27.2676 31.2575 27.6023C31.6752 27.9371 31.9434 28.4365 32.0621 29.1006H30.7999C30.7443 28.8586 30.6244 28.6362 30.4529 28.4569C30.2873 28.2873 30.0502 28.2028 29.7416 28.2031C29.5843 28.2005 29.4283 28.2308 29.2834 28.2922C29.1562 28.3468 29.0425 28.4286 28.9503 28.532C28.8903 28.5982 28.8407 28.6733 28.8033 28.7546C28.7589 28.8575 28.7275 28.9657 28.71 29.0764C28.6826 29.2399 28.6647 29.4049 28.6564 29.5705C28.6446 29.769 28.6387 30.0193 28.6387 30.3215C28.6387 30.6237 28.6446 30.874 28.6564 31.0725C28.6646 31.2377 28.6826 31.4023 28.71 31.5654C28.7274 31.6762 28.7588 31.7844 28.8033 31.8873C28.8406 31.9685 28.8902 32.0434 28.9503 32.1094C29.0423 32.213 29.1561 32.2951 29.2834 32.3497C29.4282 32.4114 29.5843 32.4417 29.7416 32.4387C30.0502 32.4387 30.2887 32.3542 30.4571 32.185C30.6314 32.007 30.753 31.7842 30.8085 31.5413L32.0621 31.537Z" fill="#010204"/>
<path d="M33.5732 33.4846V27.1548H34.807V32.3833H37.6785V33.4857L33.5732 33.4846Z" fill="#010204"/>
<path d="M43.683 30.3188C43.683 30.621 43.6788 30.8937 43.6702 31.1368C43.6631 31.3622 43.6378 31.5866 43.5945 31.8079C43.5556 32.0037 43.4912 32.1936 43.403 32.3728C43.3079 32.5575 43.1834 32.7256 43.0345 32.8706C42.8258 33.081 42.578 33.2486 42.305 33.3641C41.9998 33.4858 41.6732 33.5448 41.3448 33.5373C41.0146 33.5447 40.6863 33.4857 40.3792 33.3641C40.1045 33.2494 39.8552 33.0817 39.6454 32.8706C39.4964 32.7256 39.372 32.5575 39.2768 32.3728C39.1884 32.1941 39.1254 32.004 39.0896 31.8079C39.0494 31.5863 39.0258 31.362 39.0188 31.1368C39.0099 30.894 39.0054 30.6213 39.0054 30.3188C39.0054 30.0162 39.0099 29.7436 39.0188 29.5007C39.0258 29.2754 39.0495 29.0509 39.0896 28.8291C39.1255 28.6332 39.1885 28.4433 39.2768 28.2648C39.3722 28.0802 39.4967 27.9122 39.6454 27.767C39.8553 27.5561 40.1047 27.3884 40.3792 27.2735C40.6863 27.1521 41.0146 27.0932 41.3448 27.1002C41.6732 27.0931 41.9997 27.152 42.305 27.2735C42.5779 27.3891 42.8256 27.5568 43.0345 27.767C43.1832 27.9122 43.3076 28.0802 43.403 28.2648C43.4911 28.4438 43.5555 28.6335 43.5945 28.8291C43.6377 29.0506 43.663 29.2752 43.6702 29.5007C43.6788 29.7436 43.683 30.0162 43.683 30.3188ZM42.4493 30.3188C42.4493 30.0162 42.4434 29.7659 42.4316 29.5678C42.4233 29.4022 42.4054 29.2373 42.3779 29.0737C42.3608 28.965 42.3294 28.8589 42.2846 28.7583C42.2464 28.679 42.1969 28.6057 42.1376 28.5405C42.0448 28.4367 41.9313 28.3534 41.8045 28.2959C41.6596 28.2343 41.5038 28.2026 41.3464 28.2026C41.189 28.2026 41.0331 28.2343 40.8883 28.2959C40.7597 28.3548 40.6437 28.4378 40.5466 28.5405C40.4873 28.6057 40.4378 28.679 40.3996 28.7583C40.3548 28.8589 40.3234 28.965 40.3062 29.0737C40.2791 29.2372 40.2627 29.4022 40.2569 29.5678C40.2483 29.7663 40.244 30.0166 40.244 30.3188C40.244 30.621 40.2483 30.8713 40.2569 31.0698C40.2625 31.2336 40.279 31.3969 40.3062 31.5585C40.3236 31.6658 40.355 31.7704 40.3996 31.8696C40.4376 31.949 40.4872 32.0224 40.5466 32.0874C40.6443 32.1906 40.7601 32.275 40.8883 32.3363C41.0323 32.401 41.1885 32.4345 41.3464 32.4345C41.5043 32.4345 41.6604 32.401 41.8045 32.3363C41.931 32.2764 42.0443 32.1917 42.1376 32.0874C42.197 32.0224 42.2465 31.949 42.2846 31.8696C42.3291 31.7704 42.3605 31.6658 42.3779 31.5585C42.4056 31.3968 42.4235 31.2336 42.4316 31.0698C42.4419 30.8713 42.4471 30.621 42.4471 30.3188H42.4493Z" fill="#010204"/>
<path d="M49.8252 31.3148C49.83 31.6297 49.7678 31.942 49.6429 32.231C49.5271 32.4953 49.3577 32.7328 49.1456 32.9284C48.9304 33.1237 48.6799 33.2761 48.4075 33.3774C47.8183 33.5908 47.1728 33.5908 46.5836 33.3774C46.3112 33.2763 46.0606 33.1238 45.8455 32.9284C45.633 32.733 45.4635 32.4955 45.3477 32.231C45.2227 31.942 45.1606 31.6297 45.1653 31.3148V27.1538H46.3991V31.2708C46.3991 31.6381 46.4969 31.9242 46.6925 32.1291C46.8881 32.334 47.1549 32.4363 47.4929 32.4359C47.8308 32.4359 48.099 32.3337 48.2975 32.1291C48.496 31.9246 48.5952 31.6385 48.5952 31.2708V27.1538H49.822L49.8252 31.3148Z" fill="#010204"/>
<path d="M55.9702 30.3192C55.9702 30.5802 55.9673 30.8188 55.9616 31.0348C55.9569 31.234 55.9421 31.433 55.9171 31.6307C55.8957 31.8006 55.8554 31.9676 55.7969 32.1285C55.7396 32.2805 55.6634 32.4247 55.57 32.5577C55.3684 32.8577 55.0924 33.1004 54.7691 33.262C54.4608 33.4104 54.0904 33.4846 53.6576 33.4846H51.3735V27.1548H53.6587C54.0911 27.1548 54.4616 27.229 54.7702 27.3774C55.093 27.5383 55.3686 27.7803 55.57 28.0796C55.6634 28.2125 55.7396 28.3567 55.7969 28.5087C55.8555 28.6696 55.8958 28.8366 55.9171 29.0065C55.942 29.2041 55.9569 29.4029 55.9616 29.602C55.9677 29.8194 55.9705 30.0585 55.9702 30.3192ZM54.7364 30.3192C54.7364 30.0688 54.7335 29.8543 54.7278 29.6755C54.724 29.5208 54.7121 29.3665 54.6924 29.2131C54.6782 29.1035 54.6529 28.9956 54.6168 28.8912C54.5847 28.804 54.5381 28.723 54.4789 28.6514C54.2711 28.3907 53.9629 28.2604 53.5541 28.2604H52.6095V32.386H53.552C53.9614 32.386 54.2697 32.2555 54.4768 31.9944C54.5362 31.923 54.5828 31.8419 54.6146 31.7546C54.6509 31.6493 54.6763 31.5406 54.6903 31.4301C54.71 31.2767 54.7218 31.1223 54.7257 30.9677C54.7314 30.7846 54.7342 30.5684 54.7342 30.3192H54.7364Z" fill="#010204"/>
<path d="M64.6316 31.537C64.5132 32.2004 64.245 32.6998 63.8269 33.0352C63.4089 33.3707 62.9037 33.5381 62.3115 33.5373C61.9829 33.5447 61.6561 33.4858 61.3508 33.3641C61.0762 33.2472 60.826 33.0798 60.6132 32.8706C60.4641 32.7256 60.3395 32.5575 60.2441 32.3728C60.1561 32.194 60.0933 32.0039 60.0575 31.8079C60.017 31.5863 59.9933 31.362 59.9867 31.1368C59.9774 30.894 59.9729 30.6213 59.9732 30.3188C59.9736 30.0162 59.9781 29.7436 59.9867 29.5007C59.9934 29.2754 60.017 29.0509 60.0575 28.8291C60.0934 28.6333 60.1562 28.4434 60.2441 28.2648C60.3397 28.0802 60.4643 27.9121 60.6132 27.767C60.8261 27.5579 61.0763 27.3906 61.3508 27.2735C61.6562 27.152 61.9829 27.0931 62.3115 27.1002C62.9044 27.1002 63.4096 27.2676 63.8269 27.6023C64.2443 27.9371 64.5125 28.4365 64.6316 29.1006H63.3694C63.3136 28.8587 63.1937 28.6364 63.0223 28.4569C62.856 28.2873 62.6189 28.2028 62.311 28.2031C62.1537 28.2004 61.9977 28.2307 61.8529 28.2922C61.7256 28.3469 61.6117 28.4287 61.5192 28.532C61.4595 28.5984 61.4101 28.6734 61.3728 28.7546C61.3283 28.8575 61.297 28.9657 61.2794 29.0764C61.252 29.2399 61.2341 29.4049 61.2258 29.5705C61.2136 29.7689 61.2076 30.0193 61.2076 30.3215C61.2076 30.6237 61.2136 30.874 61.2258 31.0725C61.2341 31.2377 61.252 31.4023 61.2794 31.5654C61.2968 31.6762 61.3282 31.7844 61.3728 31.8873C61.41 31.9683 61.4594 32.0432 61.5192 32.1094C61.6115 32.2129 61.7254 32.2949 61.8529 32.3497C61.9976 32.4114 62.1537 32.4417 62.311 32.4387C62.6189 32.4387 62.8574 32.3542 63.0266 32.185C63.2008 32.0069 63.3224 31.7842 63.3779 31.5413L64.6316 31.537Z" fill="#010204"/>
<path d="M69.6537 33.4846L69.2782 32.364H67.0311L66.6487 33.4846H65.3613L67.6641 27.1548H68.6334L70.9449 33.4846H69.6537ZM68.1791 29.021L67.3793 31.3239H68.9532L68.1791 29.021Z" fill="#010204"/>
<path d="M76.767 30.3193C76.767 30.5804 76.7642 30.8189 76.7584 31.0349C76.752 31.2495 76.7375 31.4501 76.7139 31.6309C76.6927 31.8007 76.6526 31.9677 76.5943 32.1287C76.537 32.2807 76.4608 32.4249 76.3674 32.5578C76.1655 32.8569 75.8898 33.0988 75.567 33.26C75.2591 33.4084 74.8886 33.4826 74.4556 33.4826H72.1704V27.1528H74.4561C74.8888 27.1528 75.2593 27.227 75.5676 27.3754C75.8904 27.5365 76.1662 27.7784 76.3679 28.0776C76.4613 28.2105 76.5375 28.3547 76.5948 28.5067C76.6532 28.6677 76.6933 28.8346 76.7144 29.0045C76.7381 29.1853 76.7525 29.3838 76.759 29.6C76.7654 29.8161 76.767 30.0586 76.767 30.3193ZM75.5332 30.3193C75.5332 30.0704 75.5332 29.8558 75.5247 29.6756C75.5208 29.521 75.509 29.3666 75.4893 29.2132C75.4751 29.1036 75.4497 28.9958 75.4136 28.8913C75.3816 28.8043 75.3351 28.7233 75.2763 28.6516C75.0689 28.3909 74.7606 28.2605 74.3515 28.2605H73.4085V32.3862H74.3488C74.7576 32.3862 75.0658 32.2556 75.2736 31.9946C75.3327 31.923 75.3791 31.8419 75.4109 31.7548C75.4472 31.6495 75.4726 31.5407 75.4866 31.4302C75.5063 31.2768 75.5181 31.1225 75.522 30.9678C75.5289 30.7833 75.5289 30.5682 75.5289 30.3193H75.5332Z" fill="#010204"/>
<path d="M15.5345 33.4943C15.5345 33.4943 13.855 29.8938 14.7519 24.7967C15.9223 18.1499 27.1224 12.7202 27.1224 12.7202C11.6197 17.5872 5.47656 23.7099 15.5345 33.4943Z" fill="#C70A1A"/>
<path d="M15.5339 33.4941C15.5339 33.4941 12.7316 27.9121 14.3226 21.8752C16.5219 13.5069 30.3784 7.63086 30.3784 7.63086C9.87725 11.7528 0.863155 22.4395 15.5339 33.4941Z" fill="#9E0F05"/>
<path d="M15.5354 33.4958C14.4089 31.8281 9.83648 26.0583 10.8685 19.3921C12.1967 10.8093 33.0261 2.54834 33.0261 2.54834C7.08139 8.90284 -11.5621 20.4242 15.5387 33.5001" fill="#ED0000"/>
</svg>
