<svg width="16" height="16" viewBox="0 0 16 16" fill="none" xmlns="http://www.w3.org/2000/svg">
<path d="M11.5 12.5C11.5 12.5 12.5 8.49997 9.5 5.49997C6.5 2.49997 3.5 3.59997 3.5 3.59997" stroke="#1D2021" stroke-miterlimit="10"/>
<path d="M4 5C4.82843 5 5.5 4.32843 5.5 3.5C5.5 2.67157 4.82843 2 4 2C3.17157 2 2.5 2.67157 2.5 3.5C2.5 4.32843 3.17157 5 4 5Z" fill="#FFD163"/>
<path d="M4 2.5C4.6 2.5 5 2.9 5 3.5C5 4.1 4.6 4.5 4 4.5C3.4 4.5 3 4.1 3 3.5C3 2.9 3.4 2.5 4 2.5ZM4 1.5C2.9 1.5 2 2.4 2 3.5C2 4.6 2.9 5.5 4 5.5C5.1 5.5 6 4.6 6 3.5C6 2.4 5.1 1.5 4 1.5Z" fill="#1D2021"/>
<path d="M10 8C10.8284 8 11.5 7.32843 11.5 6.5C11.5 5.67157 10.8284 5 10 5C9.17157 5 8.5 5.67157 8.5 6.5C8.5 7.32843 9.17157 8 10 8Z" fill="#FFD163"/>
<path d="M10 5.5C10.6 5.5 11 5.9 11 6.5C11 7.1 10.6 7.5 10 7.5C9.4 7.5 9 7.1 9 6.5C9 5.9 9.4 5.5 10 5.5ZM10 4.5C8.9 4.5 8 5.4 8 6.5C8 7.6 8.9 8.5 10 8.5C11.1 8.5 12 7.6 12 6.5C12 5.4 11.1 4.5 10 4.5Z" fill="#1D2021"/>
<path d="M11.5 14C12.3284 14 13 13.3284 13 12.5C13 11.6716 12.3284 11 11.5 11C10.6716 11 10 11.6716 10 12.5C10 13.3284 10.6716 14 11.5 14Z" fill="#FFD163"/>
<path d="M11.5 11.5C12.1 11.5 12.5 11.9 12.5 12.5C12.5 13.1 12.1 13.5 11.5 13.5C10.9 13.5 10.5 13.1 10.5 12.5C10.5 11.9 10.9 11.5 11.5 11.5ZM11.5 10.5C10.4 10.5 9.5 11.4 9.5 12.5C9.5 13.6 10.4 14.5 11.5 14.5C12.6 14.5 13.5 13.6 13.5 12.5C13.5 11.4 12.6 10.5 11.5 10.5Z" fill="#1D2021"/>
</svg>
