<svg width="16" height="16" viewBox="0 0 16 16" fill="none" xmlns="http://www.w3.org/2000/svg">
<path d="M13 13C13 6 9 1.5 3 1.5" stroke="#1D2021" stroke-miterlimit="10"/>
<path d="M5.5 4.29995H7L5.9 6.49995C5.9 6.69995 5.8 8.29995 5.8 8.99995H4.6C4.6 8.79995 4.5 8.49995 4.5 8.29995C4 8.69995 3.5 8.99995 2.9 8.99995C2.3 8.99995 1.9 8.79995 1.5 8.49995C1.2 8.19995 1 7.69995 1 7.09995C1 6.29995 1.2 5.69995 1.7 5.09995C2.2 4.49995 2.8 4.19995 3.6 4.19995C4.2 4.19995 4.8 4.39995 5.2 4.89995L5.5 4.29995ZM2.2 6.79995C2.2 7.09995 2.3 7.39995 2.4 7.49995C2.5 7.59995 2.8 7.69995 3 7.69995C3.3 7.69995 3.6 7.49995 3.8 7.19995C4.1 6.99995 4.2 6.59995 4.2 6.19995C4.2 5.89995 4.1 5.69995 4 5.59995C3.8 5.39995 3.6 5.29995 3.4 5.29995C3 5.29995 2.8 5.49995 2.5 5.79995C2.3 6.09995 2.2 6.39995 2.2 6.79995Z" fill="#1D2021"/>
<path d="M9 15L6 12.5L9 10V15Z" fill="#008CDC"/>
<path d="M12 12.5H8" stroke="#008CDC" stroke-miterlimit="10"/>
<path d="M3 14.5C3.82843 14.5 4.5 13.8284 4.5 13C4.5 12.1716 3.82843 11.5 3 11.5C2.17157 11.5 1.5 12.1716 1.5 13C1.5 13.8284 2.17157 14.5 3 14.5Z" fill="#FFD163"/>
<path d="M3 12C3.6 12 4 12.4 4 13C4 13.6 3.6 14 3 14C2.4 14 2 13.6 2 13C2 12.4 2.4 12 3 12ZM3 11C1.9 11 1 11.9 1 13C1 14.1 1.9 15 3 15C4.1 15 5 14.1 5 13C5 11.9 4.1 11 3 11Z" fill="#1D2021"/>
<path d="M13 14.5C13.8284 14.5 14.5 13.8284 14.5 13C14.5 12.1716 13.8284 11.5 13 11.5C12.1716 11.5 11.5 12.1716 11.5 13C11.5 13.8284 12.1716 14.5 13 14.5Z" fill="#FFD163"/>
<path d="M13 12C13.6 12 14 12.4 14 13C14 13.6 13.6 14 13 14C12.4 14 12 13.6 12 13C12 12.4 12.4 12 13 12ZM13 11C11.9 11 11 11.9 11 13C11 14.1 11.9 15 13 15C14.1 15 15 14.1 15 13C15 11.9 14.1 11 13 11Z" fill="#1D2021"/>
</svg>
