<svg width="16" height="16" viewBox="0 0 16 16" fill="none" xmlns="http://www.w3.org/2000/svg">
<g clip-path="url(#clip0_3476_4827)">
<path d="M12 8V4H8L12 8Z" fill="#008CDC"/>
<path d="M4 8V12H8L4 8Z" fill="#008CDC"/>
<path d="M8.00078 14.7C11.7011 14.7 14.7008 11.7004 14.7008 8.00005C14.7008 4.29974 11.7011 1.30005 8.00078 1.30005C4.30047 1.30005 1.30078 4.29974 1.30078 8.00005C1.30078 11.7004 4.30047 14.7 8.00078 14.7Z" stroke="#1D2021" stroke-miterlimit="10"/>
<path d="M8 9.5C8.82843 9.5 9.5 8.82843 9.5 8C9.5 7.17157 8.82843 6.5 8 6.5C7.17157 6.5 6.5 7.17157 6.5 8C6.5 8.82843 7.17157 9.5 8 9.5Z" fill="#FFD163"/>
<path d="M8 7C8.6 7 9 7.4 9 8C9 8.6 8.6 9 8 9C7.4 9 7 8.6 7 8C7 7.4 7.5 7 8 7ZM8 6C6.9 6 6 6.9 6 8C6 9.1 6.9 10 8 10C9.1 10 10 9.1 10 8C10 6.9 9.1 6 8 6Z" fill="#1D2021"/>
</g>
<defs>
<clipPath id="clip0_3476_4827">
<rect width="16" height="16" fill="white"/>
</clipPath>
</defs>
</svg>
