<svg width="16" height="16" viewBox="0 0 16 16" fill="none" xmlns="http://www.w3.org/2000/svg">
<path d="M7.5 13C9.98528 13 12 10.9853 12 8.5C12 6.01472 9.98528 4 7.5 4C5.01472 4 3 6.01472 3 8.5C3 10.9853 5.01472 13 7.5 13Z" stroke="#1D2021" stroke-miterlimit="10"/>
<path d="M8 14.5C8.82843 14.5 9.5 13.8284 9.5 13C9.5 12.1716 8.82843 11.5 8 11.5C7.17157 11.5 6.5 12.1716 6.5 13C6.5 13.8284 7.17157 14.5 8 14.5Z" fill="#FFD163"/>
<path d="M8 12C8.6 12 9 12.4 9 13C9 13.6 8.6 14 8 14C7.4 14 7 13.6 7 13C7 12.4 7.4 12 8 12ZM8 11C6.9 11 6 11.9 6 13C6 14.1 6.9 15 8 15C9.1 15 10 14.1 10 13C10 11.9 9.1 11 8 11Z" fill="#1D2021"/>
<path d="M8 5.5C8.82843 5.5 9.5 4.82843 9.5 4C9.5 3.17157 8.82843 2.5 8 2.5C7.17157 2.5 6.5 3.17157 6.5 4C6.5 4.82843 7.17157 5.5 8 5.5Z" fill="#FFD163"/>
<path d="M8 3C8.6 3 9 3.4 9 4C9 4.6 8.6 5 8 5C7.4 5 7 4.6 7 4C7 3.4 7.4 3 8 3ZM8 2C6.9 2 6 2.9 6 4C6 5.1 6.9 6 8 6C9.1 6 10 5.1 10 4C10 2.9 9.1 2 8 2Z" fill="#1D2021"/>
<path d="M12 9.5C12.8284 9.5 13.5 8.82843 13.5 8C13.5 7.17157 12.8284 6.5 12 6.5C11.1716 6.5 10.5 7.17157 10.5 8C10.5 8.82843 11.1716 9.5 12 9.5Z" fill="#FFD163"/>
<path d="M12 7C12.6 7 13 7.4 13 8C13 8.6 12.6 9 12 9C11.4 9 11 8.6 11 8C11 7.4 11.4 7 12 7ZM12 6C10.9 6 10 6.9 10 8C10 9.1 10.9 10 12 10C13.1 10 14 9.1 14 8C14 6.9 13.1 6 12 6Z" fill="#1D2021"/>
</svg>
