<svg width="16" height="16" viewBox="0 0 16 16" fill="none" xmlns="http://www.w3.org/2000/svg">
<g clip-path="url(#clip0_3476_4823)">
<path d="M5.5 1C5.5 6 3.5 9 -0.5 9" stroke="#1D2021" stroke-miterlimit="10"/>
<path d="M15.5 14C11.5 12 11.5 6 15.5 4" stroke="#1D2021" stroke-miterlimit="10"/>
<path d="M8 14C10.7614 14 13 11.7614 13 9C13 6.23858 10.7614 4 8 4C5.23858 4 3 6.23858 3 9C3 11.7614 5.23858 14 8 14Z" stroke="#1D2021" stroke-miterlimit="10"/>
<path d="M8 10.5C8.82843 10.5 9.5 9.82843 9.5 9C9.5 8.17157 8.82843 7.5 8 7.5C7.17157 7.5 6.5 8.17157 6.5 9C6.5 9.82843 7.17157 10.5 8 10.5Z" fill="#FFD163"/>
<path d="M8 8C8.6 8 9 8.4 9 9C9 9.6 8.6 10 8 10C7.4 10 7 9.6 7 9C7 8.4 7.4 8 8 8ZM8 7C6.9 7 6 7.9 6 9C6 10.1 6.9 11 8 11C9.1 11 10 10.1 10 9C10 7.9 9.1 7 8 7Z" fill="#1D2021"/>
<path d="M3 6.5C3.82843 6.5 4.5 5.82843 4.5 5C4.5 4.17157 3.82843 3.5 3 3.5C2.17157 3.5 1.5 4.17157 1.5 5C1.5 5.82843 2.17157 6.5 3 6.5Z" fill="white"/>
<path d="M3 4C3.6 4 4 4.4 4 5C4 5.6 3.6 6 3 6C2.4 6 2 5.6 2 5C2 4.4 2.4 4 3 4ZM3 3C1.9 3 1 3.9 1 5C1 6.1 1.9 7 3 7C4.1 7 5 6.1 5 5C5 3.9 4.1 3 3 3Z" fill="#1D2021"/>
<path d="M13 10.5C13.8284 10.5 14.5 9.82843 14.5 9C14.5 8.17157 13.8284 7.5 13 7.5C12.1716 7.5 11.5 8.17157 11.5 9C11.5 9.82843 12.1716 10.5 13 10.5Z" fill="white"/>
<path d="M13 8C13.6 8 14 8.4 14 9C14 9.6 13.6 10 13 10C12.4 10 12 9.6 12 9C12 8.4 12.4 8 13 8ZM13 7C11.9 7 11 7.9 11 9C11 10.1 11.9 11 13 11C14.1 11 15 10.1 15 9C15 7.9 14.1 7 13 7Z" fill="#1D2021"/>
</g>
<defs>
<clipPath id="clip0_3476_4823">
<rect width="16" height="16" fill="white"/>
</clipPath>
</defs>
</svg>
