<svg width="16" height="16" viewBox="0 0 16 16" fill="none" xmlns="http://www.w3.org/2000/svg">
<path d="M8 3C10.8 3 13 5.2 13 8C13 10.8 10.8 13 8 13C5.2 13 3 10.8 3 8C3 5.2 5.2 3 8 3ZM8 2C4.6 2 2 4.6 2 8C2 11.4 4.6 14 8 14C11.4 14 14 11.4 14 8C14 4.6 11.4 2 8 2Z" fill="#1D2021"/>
<path d="M8 4.5C8.82843 4.5 9.5 3.82843 9.5 3C9.5 2.17157 8.82843 1.5 8 1.5C7.17157 1.5 6.5 2.17157 6.5 3C6.5 3.82843 7.17157 4.5 8 4.5Z" fill="#FFD163"/>
<path d="M8 2C8.6 2 9 2.4 9 3C9 3.6 8.6 4 8 4C7.4 4 7 3.6 7 3C7 2.4 7.4 2 8 2ZM8 1C6.9 1 6 1.9 6 3C6 4.1 6.9 5 8 5C9.1 5 10 4.1 10 3C10 1.9 9.1 1 8 1Z" fill="#1D2021"/>
<path d="M8 14.5C8.82843 14.5 9.5 13.8284 9.5 13C9.5 12.1716 8.82843 11.5 8 11.5C7.17157 11.5 6.5 12.1716 6.5 13C6.5 13.8284 7.17157 14.5 8 14.5Z" fill="#FFD163"/>
<path d="M8 12C8.6 12 9 12.4 9 13C9 13.6 8.6 14 8 14C7.4 14 7 13.6 7 13C7 12.4 7.4 12 8 12ZM8 11C6.9 11 6 11.9 6 13C6 14.1 6.9 15 8 15C9.1 15 10 14.1 10 13C10 11.9 9.1 11 8 11Z" fill="#1D2021"/>
</svg>
