<svg width="16" height="16" viewBox="0 0 16 16" fill="none" xmlns="http://www.w3.org/2000/svg">
<g clip-path="url(#clip0_3476_4812)">
<path d="M2 3V2C2 2 2 0 4 0H6V1H4.1C4.1 1 3 1 3 2V3H5.2L2.6 6L0 3H2Z" fill="#39A935"/>
<path d="M16 1H9V6H16V1Z" fill="#B5C3D0"/>
<path d="M15 1V5H9V1H15ZM16 0H8V6H16V0Z" fill="#1D2021"/>
<path d="M16 0H15V1H16V0Z" fill="#008CDC"/>
<path d="M9 5H8V6H9V5Z" fill="#008CDC"/>
<path d="M9 0H8V1H9V0Z" fill="#008CDC"/>
<path d="M16 5H15V6H16V5Z" fill="#008CDC"/>
<path d="M12.94 11.49C13.11 11.37 13.25 11.21 13.38 11.05H13.35C13.69 10.62 13.9 10.08 13.9 9.47C13.9 8.11 12.79 7 11.42 7C10.61 7 9.89 7.39 9.44 7.99C8.98 7.39 8.26 7 7.45 7C6.65 7 5.91 7.42 5.46 8.08C5.01 7.48 4.29 7.1 3.48 7.1C2.11 7.1 1 8.21 1 9.57C1 10.13 1 11 2.09 11.55C1.49 12 1.1 12.72 1.1 13.53C1.1 14.89 2.21 16 3.58 16C4.39 16 5.11 15.61 5.56 15.01C6.02 15.61 6.74 16 7.55 16C8.39 16 9.1 15.62 9.55 15C10.01 15.61 10.72 16 11.52 16C12.89 16 14 14.89 14 13.53C14 12.67 13.6 11.94 12.94 11.49ZM11.52 15.01C10.65 15.01 10.1 14.27 10.03 13.58C10 13.33 9.79 13.13 9.54 13.13C9.3 13.09 9.07 13.33 9.05 13.58C8.97 14.43 8.37 15.01 7.56 15.01C6.74 15.01 6.07 14.34 6.07 13.53C6.07 13.26 5.85 13.04 5.57 13.04C5.3 13.04 5.07 13.26 5.07 13.53C5.07 14.35 4.4 15.01 3.58 15.01C2.76 15.01 2.09 14.34 2.09 13.53C2.09 12.71 2.76 12.05 3.58 12.05H3.68C3.95 12.05 4.18 11.83 4.18 11.56C4.18 11.29 3.96 11.07 3.68 11.07H3.58H3.48C2.66 11.07 1.99 10.4 1.99 9.59C1.99 8.77 2.66 8.11 3.48 8.11C4.3 8.11 4.97 8.78 4.97 9.69C4.97 9.96 5.19 10.14 5.47 10.14C5.75 10.14 5.97 9.87 5.97 9.6C5.97 8.76 6.67 8.02 7.46 8.02C8.28 8.02 8.95 8.69 8.95 9.5V9.6C8.95 9.87 9.17 10.09 9.45 10.09C9.72 10.09 9.95 9.87 9.95 9.6V9.5C9.95 8.68 10.62 8.02 11.44 8.02C12.26 8.02 12.93 8.69 12.93 9.5C12.93 10.35 12.33 10.98 11.54 10.98C11.45 10.98 11.02 11.02 11.14 11.57C11.2 11.82 11.34 12.04 11.59 12.06C12.45 12.14 13.02 12.73 13.02 13.55C13.01 14.35 12.34 15.01 11.52 15.01Z" fill="#1D2021"/>
</g>
<defs>
<clipPath id="clip0_3476_4812">
<rect width="16" height="16" fill="white"/>
</clipPath>
</defs>
</svg>
