<svg width="16" height="16" viewBox="0 0 16 16" fill="none" xmlns="http://www.w3.org/2000/svg">
<path d="M12.9989 2.10004C18.1989 4.50004 8.29889 17.8 2.59889 14.1C-1.70111 11.3 7.29889 -0.399956 12.9989 2.10004Z" stroke="#1D2021" stroke-width="1.11" stroke-miterlimit="10"/>
<path d="M8.5 6V11" stroke="#1D2021" stroke-miterlimit="10"/>
<path d="M11 8.5H6" stroke="#1D2021" stroke-miterlimit="10"/>
<path d="M13 4.5C13.8284 4.5 14.5 3.82843 14.5 3C14.5 2.17157 13.8284 1.5 13 1.5C12.1716 1.5 11.5 2.17157 11.5 3C11.5 3.82843 12.1716 4.5 13 4.5Z" fill="#FFD163"/>
<path d="M13 2C13.6 2 14 2.4 14 3C14 3.6 13.6 4 13 4C12.4 4 12 3.6 12 3C12 2.4 12.4 2 13 2ZM13 1C11.9 1 11 1.9 11 3C11 4.1 11.9 5 13 5C14.1 5 15 4.1 15 3C15 1.9 14.1 1 13 1Z" fill="#1D2021"/>
<path d="M5 6.5C5.82843 6.5 6.5 5.82843 6.5 5C6.5 4.17157 5.82843 3.5 5 3.5C4.17157 3.5 3.5 4.17157 3.5 5C3.5 5.82843 4.17157 6.5 5 6.5Z" fill="#FFD163"/>
<path d="M5 4C5.6 4 6 4.4 6 5C6 5.6 5.6 6 5 6C4.4 6 4 5.6 4 5C4 4.4 4.4 4 5 4ZM5 3C3.9 3 3 3.9 3 5C3 6.1 3.9 7 5 7C6.1 7 7 6.1 7 5C7 3.9 6.1 3 5 3Z" fill="#1D2021"/>
<path d="M3 14.5C3.82843 14.5 4.5 13.8284 4.5 13C4.5 12.1716 3.82843 11.5 3 11.5C2.17157 11.5 1.5 12.1716 1.5 13C1.5 13.8284 2.17157 14.5 3 14.5Z" fill="#FFD163"/>
<path d="M3 12C3.6 12 4 12.4 4 13C4 13.6 3.6 14 3 14C2.4 14 2 13.6 2 13C2 12.4 2.4 12 3 12ZM3 11C1.9 11 1 11.9 1 13C1 14.1 1.9 15 3 15C4.1 15 5 14.1 5 13C5 11.9 4.1 11 3 11Z" fill="#1D2021"/>
</svg>
