<svg width="16" height="16" viewBox="0 0 16 16" fill="none" xmlns="http://www.w3.org/2000/svg">
<path d="M12.6016 2.30004C17.5016 4.50004 8.30158 16.8 3.00158 13.4C-0.898422 10.8 7.40158 3.73721e-05 12.6016 2.30004Z" stroke="#1D2021" stroke-miterlimit="10"/>
<path d="M8 9.5C8.82843 9.5 9.5 8.82843 9.5 8C9.5 7.17157 8.82843 6.5 8 6.5C7.17157 6.5 6.5 7.17157 6.5 8C6.5 8.82843 7.17157 9.5 8 9.5Z" fill="#FFD163"/>
<path d="M8 7C8.6 7 9 7.4 9 8C9 8.6 8.6 9 8 9C7.4 9 7 8.6 7 8C7 7.4 7.4 7 8 7ZM8 6C6.9 6 6 6.9 6 8C6 9.1 6.9 10 8 10C9.1 10 10 9.1 10 8C10 6.9 9.1 6 8 6Z" fill="#1D2021"/>
<path d="M13 3.5C13.8284 3.5 14.5 2.82843 14.5 2C14.5 1.17157 13.8284 0.5 13 0.5C12.1716 0.5 11.5 1.17157 11.5 2C11.5 2.82843 12.1716 3.5 13 3.5Z" fill="#FFD163"/>
<path d="M13 1C13.6 1 14 1.4 14 2C14 2.6 13.6 3 13 3C12.4 3 12 2.6 12 2C12 1.4 12.4 1 13 1ZM13 0C11.9 0 11 0.9 11 2C11 3.1 11.9 4 13 4C14.1 4 15 3.1 15 2C15 0.9 14.1 0 13 0Z" fill="#1D2021"/>
<path d="M5 5.5C5.82843 5.5 6.5 4.82843 6.5 4C6.5 3.17157 5.82843 2.5 5 2.5C4.17157 2.5 3.5 3.17157 3.5 4C3.5 4.82843 4.17157 5.5 5 5.5Z" fill="#FFD163"/>
<path d="M5 3C5.6 3 6 3.4 6 4C6 4.6 5.6 5 5 5C4.4 5 4 4.6 4 4C4 3.4 4.4 3 5 3ZM5 2C3.9 2 3 2.9 3 4C3 5.1 3.9 6 5 6C6.1 6 7 5.1 7 4C7 2.9 6.1 2 5 2Z" fill="#1D2021"/>
</svg>
