<svg width="16" height="16" viewBox="0 0 16 16" fill="none" xmlns="http://www.w3.org/2000/svg">
<path d="M12.4992 3.5L3.69922 12.3" stroke="#1D2021" stroke-miterlimit="10"/>
<path d="M3 14.5C3.82843 14.5 4.5 13.8284 4.5 13C4.5 12.1716 3.82843 11.5 3 11.5C2.17157 11.5 1.5 12.1716 1.5 13C1.5 13.8284 2.17157 14.5 3 14.5Z" fill="#FFD163"/>
<path d="M3 12C3.6 12 4 12.4 4 13C4 13.6 3.6 14 3 14C2.4 14 2 13.6 2 13C2 12.4 2.4 12 3 12ZM3 11C1.9 11 1 11.9 1 13C1 14.1 1.9 15 3 15C4.1 15 5 14.1 5 13C5 11.9 4.1 11 3 11Z" fill="#1D2021"/>
<path d="M13 4.5C13.8284 4.5 14.5 3.82843 14.5 3C14.5 2.17157 13.8284 1.5 13 1.5C12.1716 1.5 11.5 2.17157 11.5 3C11.5 3.82843 12.1716 4.5 13 4.5Z" fill="#FFD163"/>
<path d="M13 2C13.6 2 14 2.4 14 3C14 3.6 13.6 4 13 4C12.4 4 12 3.6 12 3C12 2.4 12.4 2 13 2ZM13 1C11.9 1 11 1.9 11 3C11 4.1 11.9 5 13 5C14.1 5 15 4.1 15 3C15 1.9 14.1 1 13 1Z" fill="#1D2021"/>
</svg>
