<svg width="16" height="16" viewBox="0 0 16 16" fill="none" xmlns="http://www.w3.org/2000/svg">
<path d="M7 3L13 9" stroke="#1D2021" stroke-miterlimit="10"/>
<path d="M3 7L9 13" stroke="#1D2021" stroke-miterlimit="10"/>
<path d="M6 5H5V6H6V5Z" fill="#1D2021"/>
<path d="M8 7H7V8H8V7Z" fill="#1D2021"/>
<path d="M9 8H8V9H9V8Z" fill="#1D2021"/>
<path d="M11 10H10V11H11V10Z" fill="#1D2021"/>
<path d="M13 14.5C13.8284 14.5 14.5 13.8284 14.5 13C14.5 12.1716 13.8284 11.5 13 11.5C12.1716 11.5 11.5 12.1716 11.5 13C11.5 13.8284 12.1716 14.5 13 14.5Z" fill="#FFD163"/>
<path d="M13 12C13.6 12 14 12.4 14 13C14 13.6 13.6 14 13 14C12.4 14 12 13.6 12 13C12 12.4 12.4 12 13 12ZM13 11C11.9 11 11 11.9 11 13C11 14.1 11.9 15 13 15C14.1 15 15 14.1 15 13C15 11.9 14.1 11 13 11Z" fill="#1D2021"/>
<path d="M3 4.5C3.82843 4.5 4.5 3.82843 4.5 3C4.5 2.17157 3.82843 1.5 3 1.5C2.17157 1.5 1.5 2.17157 1.5 3C1.5 3.82843 2.17157 4.5 3 4.5Z" fill="#FFD163"/>
<path d="M3 2C3.6 2 4 2.4 4 3C4 3.6 3.6 4 3 4C2.4 4 2 3.6 2 3C2 2.4 2.4 2 3 2ZM3 1C1.9 1 1 1.9 1 3C1 4.1 1.9 5 3 5C4.1 5 5 4.1 5 3C5 1.9 4.1 1 3 1Z" fill="#1D2021"/>
</svg>
