<svg width="16" height="16" viewBox="0 0 16 16" fill="none" xmlns="http://www.w3.org/2000/svg">
<g clip-path="url(#clip0_3476_4846)">
<path d="M9.5 15.5L7 14" stroke="#1D2021" stroke-miterlimit="10"/>
<path d="M15.5 13.5L13 12" stroke="#1D2021" stroke-miterlimit="10"/>
<path d="M0.5 12.5L3.5 11.5" stroke="#1D2021" stroke-miterlimit="10"/>
<path d="M4.5 15.5L9 14" stroke="#1D2021" stroke-miterlimit="10"/>
<path d="M12 13L15.5 11.5" stroke="#1D2021" stroke-miterlimit="10"/>
<path d="M14 12L8 14H6.9L2 12V7L7 10H8L14 8V12Z" fill="#B5C3D0"/>
<path d="M2.5 10.1001V11.8001L7.5 14.5001L13.5 12.4001V10.7001" stroke="#1D2021" stroke-miterlimit="10"/>
<path d="M13.5 7.9L7.5 10L2.5 7.4L8.5 5L13.5 7.9Z" fill="#8DA3B7"/>
<path d="M3 7H2V9H3V7Z" fill="#1D2021"/>
<path d="M8 10H7V12H8V10Z" fill="#1D2021"/>
<path d="M8 13H7V14H8V13Z" fill="#1D2021"/>
<path d="M14 8H13V10H14V8Z" fill="#1D2021"/>
<path d="M13.5 8.0001V7.8001L8.5 5.1001L2.5 7.2001V8.0001" stroke="#1D2021" stroke-miterlimit="10"/>
<path d="M2.5 7.5L7.5 10" stroke="#1D2021" stroke-miterlimit="10" stroke-linecap="round" stroke-linejoin="round"/>
<path d="M13.5 8L7.5 10" stroke="#1D2021" stroke-miterlimit="10" stroke-linecap="round" stroke-linejoin="round"/>
<path d="M5 3H7V4H8V3H10L7.5 0L5 3Z" fill="#008CDC"/>
</g>
<defs>
<clipPath id="clip0_3476_4846">
<rect width="16" height="16" fill="white"/>
</clipPath>
</defs>
</svg>
