<svg width="16" height="16" viewBox="0 0 16 16" fill="none" xmlns="http://www.w3.org/2000/svg">
<g clip-path="url(#clip0_3476_4707)">
<path d="M10 1.4L14.6 6L6 14.6L1.4 10L10 1.4ZM10 0L0 10L6 16L16 6L10 0Z" fill="#1D2021"/>
<path d="M14 7.5C14.8284 7.5 15.5 6.82843 15.5 6C15.5 5.17157 14.8284 4.5 14 4.5C13.1716 4.5 12.5 5.17157 12.5 6C12.5 6.82843 13.1716 7.5 14 7.5Z" fill="#FFD163"/>
<path d="M14 5C14.6 5 15 5.4 15 6C15 6.6 14.6 7 14 7C13.4 7 13 6.6 13 6C13 5.4 13.4 5 14 5ZM14 4C12.9 4 12 4.9 12 6C12 7.1 12.9 8 14 8C15.1 8 16 7.1 16 6C16 4.9 15.1 4 14 4Z" fill="#1D2021"/>
<path d="M2 11.5C2.82843 11.5 3.5 10.8284 3.5 10C3.5 9.17157 2.82843 8.5 2 8.5C1.17157 8.5 0.5 9.17157 0.5 10C0.5 10.8284 1.17157 11.5 2 11.5Z" fill="#FFD163"/>
<path d="M2 9C2.6 9 3 9.4 3 10C3 10.6 2.6 11 2 11C1.4 11 1 10.6 1 10C1 9.4 1.4 9 2 9ZM2 8C0.9 8 0 8.9 0 10C0 11.1 0.9 12 2 12C3.1 12 4 11.1 4 10C4 8.9 3.1 8 2 8Z" fill="#1D2021"/>
<path d="M6 15.5C6.82843 15.5 7.5 14.8284 7.5 14C7.5 13.1716 6.82843 12.5 6 12.5C5.17157 12.5 4.5 13.1716 4.5 14C4.5 14.8284 5.17157 15.5 6 15.5Z" fill="#FFD163"/>
<path d="M6 13C6.6 13 7 13.4 7 14C7 14.6 6.6 15 6 15C5.4 15 5 14.6 5 14C5 13.4 5.4 13 6 13ZM6 12C4.9 12 4 12.9 4 14C4 15.1 4.9 16 6 16C7.1 16 8 15.1 8 14C8 12.9 7.1 12 6 12Z" fill="#1D2021"/>
</g>
<defs>
<clipPath id="clip0_3476_4707">
<rect width="16" height="16" fill="white"/>
</clipPath>
</defs>
</svg>
