<svg width="16" height="16" viewBox="0 0 16 16" fill="none" xmlns="http://www.w3.org/2000/svg">
<path d="M14 4V12H2V4H14ZM15 3H1V13H15V3Z" fill="#1D2021"/>
<path d="M8 9.5C8.82843 9.5 9.5 8.82843 9.5 8C9.5 7.17157 8.82843 6.5 8 6.5C7.17157 6.5 6.5 7.17157 6.5 8C6.5 8.82843 7.17157 9.5 8 9.5Z" fill="#FFD163"/>
<path d="M8 7C8.6 7 9 7.4 9 8C9 8.6 8.6 9 8 9C7.4 9 7 8.6 7 8C7 7.4 7.4 7 8 7ZM8 6C6.9 6 6 6.9 6 8C6 9.1 6.9 10 8 10C9.1 10 10 9.1 10 8C10 6.9 9.1 6 8 6Z" fill="#1D2021"/>
<path d="M14 13.5C14.8284 13.5 15.5 12.8284 15.5 12C15.5 11.1716 14.8284 10.5 14 10.5C13.1716 10.5 12.5 11.1716 12.5 12C12.5 12.8284 13.1716 13.5 14 13.5Z" fill="#FFD163"/>
<path d="M14 11C14.6 11 15 11.4 15 12C15 12.6 14.6 13 14 13C13.4 13 13 12.6 13 12C13 11.4 13.4 11 14 11ZM14 10C12.9 10 12 10.9 12 12C12 13.1 12.9 14 14 14C15.1 14 16 13.1 16 12C16 10.9 15.1 10 14 10Z" fill="#1D2021"/>
</svg>
