<svg width="16" height="16" viewBox="0 0 16 16" fill="none" xmlns="http://www.w3.org/2000/svg">
<path d="M13 5V12H3V5H13ZM14 4H2V13H14V4Z" fill="#1D2021"/>
<path d="M3 5.5C3.82843 5.5 4.5 4.82843 4.5 4C4.5 3.17157 3.82843 2.5 3 2.5C2.17157 2.5 1.5 3.17157 1.5 4C1.5 4.82843 2.17157 5.5 3 5.5Z" fill="#FFD163"/>
<path d="M3 3C3.6 3 4 3.4 4 4C4 4.6 3.6 5 3 5C2.4 5 2 4.6 2 4C2 3.4 2.4 3 3 3ZM3 2C1.9 2 1 2.9 1 4C1 5.1 1.9 6 3 6C4.1 6 5 5.1 5 4C5 2.9 4.1 2 3 2Z" fill="#1D2021"/>
<path d="M13 13.5C13.8284 13.5 14.5 12.8284 14.5 12C14.5 11.1716 13.8284 10.5 13 10.5C12.1716 10.5 11.5 11.1716 11.5 12C11.5 12.8284 12.1716 13.5 13 13.5Z" fill="#FFD163"/>
<path d="M13 11C13.6 11 14 11.4 14 12C14 12.6 13.6 13 13 13C12.4 13 12 12.6 12 12C12 11.4 12.4 11 13 11ZM13 10C11.9 10 11 10.9 11 12C11 13.1 11.9 14 13 14C14.1 14 15 13.1 15 12C15 10.9 14.1 10 13 10Z" fill="#1D2021"/>
</svg>
