<svg width="16" height="16" viewBox="0 0 16 16" fill="none" xmlns="http://www.w3.org/2000/svg">
<g clip-path="url(#clip0_3476_4705)">
<path d="M9.9 1.4L1.4 9.1L6.1 14.6L14.6 6.9L9.9 1.4ZM16 7L6 16L0 9L10 0L16 7Z" fill="#1D2021"/>
<path d="M8 9.5C7.17157 9.5 6.5 8.82843 6.5 8C6.5 7.17157 7.17157 6.5 8 6.5C8.82843 6.5 9.5 7.17157 9.5 8C9.5 8.82843 8.82843 9.5 8 9.5Z" fill="#FFD163"/>
<path d="M8 7C8.6 7 9 7.4 9 8C9 8.6 8.6 9 8 9C7.4 9 7 8.6 7 8C7 7.4 7.4 7 8 7ZM8 6C6.9 6 6 6.9 6 8C6 9.1 6.9 10 8 10C9.1 10 10 9.1 10 8C10 6.9 9.1 6 8 6Z" fill="#1D2021"/>
<path d="M5 5.5C4.17157 5.5 3.5 4.82843 3.5 4C3.5 3.17157 4.17157 2.5 5 2.5C5.82843 2.5 6.5 3.17157 6.5 4C6.5 4.82843 5.82843 5.5 5 5.5Z" fill="#FFD163"/>
<path d="M5 3C5.6 3 6 3.4 6 4C6 4.6 5.6 5 5 5C4.4 5 4 4.6 4 4C4 3.4 4.4 3 5 3ZM5 2C3.9 2 3 2.9 3 4C3 5.1 3.9 6 5 6C6.1 6 7 5.1 7 4C7 2.9 6.1 2 5 2Z" fill="#1D2021"/>
<path d="M2 10.5C1.17157 10.5 0.5 9.82843 0.5 9C0.5 8.17157 1.17157 7.5 2 7.5C2.82843 7.5 3.5 8.17157 3.5 9C3.5 9.82843 2.82843 10.5 2 10.5Z" fill="#FFD163"/>
<path d="M2 8C2.6 8 3 8.4 3 9C3 9.6 2.6 10 2 10C1.4 10 1 9.6 1 9C1 8.4 1.4 8 2 8ZM2 7C0.9 7 0 7.9 0 9C0 10.1 0.9 11 2 11C3.1 11 4 10.1 4 9C4 7.9 3.1 7 2 7Z" fill="#1D2021"/>
</g>
<defs>
<clipPath id="clip0_3476_4705">
<rect width="16" height="16" fill="white"/>
</clipPath>
</defs>
</svg>
