<svg width="16" height="16" viewBox="0 0 16 16" fill="none" xmlns="http://www.w3.org/2000/svg">
<path d="M3.5 12.5C3.5 12.5 3.8 3.1 8.4 8.6C13.5 14.6 12.4 3.5 12.4 3.5" stroke="#1D2021" stroke-miterlimit="10"/>
<path d="M12.4023 5.1001C13.2308 5.1001 13.9023 4.42852 13.9023 3.6001C13.9023 2.77167 13.2308 2.1001 12.4023 2.1001C11.5739 2.1001 10.9023 2.77167 10.9023 3.6001C10.9023 4.42852 11.5739 5.1001 12.4023 5.1001Z" fill="#FFD163"/>
<path d="M12.4023 2.6001C13.0023 2.6001 13.4023 3.0001 13.4023 3.6001C13.4023 4.2001 13.0023 4.6001 12.4023 4.6001C11.8023 4.6001 11.4023 4.2001 11.4023 3.6001C11.4023 3.0001 11.8023 2.6001 12.4023 2.6001ZM12.4023 1.6001C11.3023 1.6001 10.4023 2.5001 10.4023 3.6001C10.4023 4.7001 11.3023 5.6001 12.4023 5.6001C13.5023 5.6001 14.4023 4.7001 14.4023 3.6001C14.4023 2.5001 13.5023 1.6001 12.4023 1.6001Z" fill="#1D2021"/>
<path d="M3.60156 13.9001C4.42999 13.9001 5.10156 13.2286 5.10156 12.4001C5.10156 11.5717 4.42999 10.9001 3.60156 10.9001C2.77314 10.9001 2.10156 11.5717 2.10156 12.4001C2.10156 13.2286 2.77314 13.9001 3.60156 13.9001Z" fill="#FFD163"/>
<path d="M3.60156 11.4001C4.20156 11.4001 4.60156 11.8001 4.60156 12.4001C4.60156 13.0001 4.20156 13.4001 3.60156 13.4001C3.00156 13.4001 2.60156 13.0001 2.60156 12.4001C2.60156 11.8001 3.00156 11.4001 3.60156 11.4001ZM3.60156 10.4001C2.50156 10.4001 1.60156 11.3001 1.60156 12.4001C1.60156 13.5001 2.50156 14.4001 3.60156 14.4001C4.70156 14.4001 5.60156 13.5001 5.60156 12.4001C5.60156 11.3001 4.70156 10.4001 3.60156 10.4001Z" fill="#1D2021"/>
</svg>
