<svg width="20" height="22" viewBox="0 0 20 22" fill="none" xmlns="http://www.w3.org/2000/svg">
<path fill-rule="evenodd" clip-rule="evenodd" d="M9.99951 3.65381C14.0563 3.65405 17.3459 6.9427 17.3462 10.9995C17.3459 15.0563 14.0563 18.3459 9.99951 18.3462C5.9427 18.3459 2.65405 15.0563 2.65381 10.9995C2.65405 6.9427 5.9427 3.65405 9.99951 3.65381ZM9.99951 17.3452C9.97565 17.3452 9.95189 17.3444 9.92822 17.3442L9.99951 17.3452ZM9.99951 4.65381C6.49499 4.65405 3.65405 7.49499 3.65381 10.9995L3.66162 11.3267C3.73752 12.8214 4.33113 14.1788 5.26611 15.2251L7.48975 14.23C7.951 14.1144 8.18213 13.6523 8.18213 13.1909V12.6118C8.18213 12.382 8.18173 12.1525 8.06689 12.0376L7.83643 11.5767C7.49035 10.8845 7.25938 10.0766 7.25928 9.26904V8.92236C7.25933 8.23027 7.37415 7.65247 7.72021 7.07568C8.18176 6.26824 8.98971 5.80718 9.9126 5.80713C10.8357 5.80713 11.6444 6.26801 12.106 7.07568C12.452 7.65245 12.5659 8.34554 12.5659 8.92236V9.26904C12.5658 10.0766 12.3358 10.8845 11.9897 11.5767L11.7583 12.0376C11.6435 12.2672 11.6431 12.383 11.6431 12.6118V13.1909C11.6431 13.6523 11.8742 13.9992 12.3354 14.23L14.7036 15.2554C15.6545 14.2049 16.2608 12.8361 16.3374 11.3267L16.3462 10.9995C16.346 7.60455 13.6794 4.83187 10.3267 4.66162L9.99951 4.65381Z" fill="#CFCFCF"/>
</svg>
