<svg width="20" height="20" viewBox="0 0 20 20" fill="none" xmlns="http://www.w3.org/2000/svg">
<path d="M17.1827 11.1899V8.81009L15.4322 8.43832C15.3153 8.0295 15.1515 7.63561 14.9439 7.26452L15.9203 5.76311L14.2372 4.08003L12.7358 5.0564C12.3649 4.84819 11.9708 4.6846 11.5615 4.56902L11.1897 2.81708H8.80991L8.43814 4.56759C8.02932 4.68445 7.63542 4.84828 7.26434 5.05586L5.76292 4.0795L4.07985 5.7626L5.05622 7.26401C4.84863 7.6351 4.6848 8.029 4.56794 8.43782L2.81689 8.81009V11.1899L4.56883 11.5617C4.68406 11.9707 4.84724 12.3647 5.055 12.7355L4.07863 14.2369L5.76171 15.92L7.26312 14.9436C7.63421 15.1512 8.02811 15.315 8.43692 15.4319L8.80991 17.1829H11.1897L11.5615 15.431C11.9703 15.3148 12.3641 15.1517 12.7353 14.9448L14.2367 15.9212L15.9198 14.2381L14.9434 12.7367C15.1508 12.3652 15.3144 11.9709 15.4308 11.5617L17.1827 11.1899ZM10.0009 13.0976C8.29011 13.0982 6.9028 11.7118 6.9022 10.001C6.90161 8.29029 8.28798 6.90298 9.99875 6.90239C11.7095 6.90179 13.0968 8.28816 13.0974 9.99893C13.0977 11.7096 11.7115 13.0967 10.0009 13.0976Z" fill="#CFCFCF"/>
</svg>
