<svg width="20" height="20" viewBox="0 0 20 20" fill="none" xmlns="http://www.w3.org/2000/svg">
<path fill-rule="evenodd" clip-rule="evenodd" d="M9.99951 2.65381C14.0563 2.65405 17.3459 5.9427 17.3462 9.99951C17.3459 14.0563 14.0563 17.3459 9.99951 17.3462C5.9427 17.3459 2.65405 14.0563 2.65381 9.99951C2.65405 5.9427 5.9427 2.65405 9.99951 2.65381ZM9.99951 16.3452C9.97565 16.3452 9.95189 16.3444 9.92822 16.3442L9.99951 16.3452ZM9.99951 3.65381C6.49499 3.65405 3.65405 6.49499 3.65381 9.99951L3.66162 10.3267C3.73752 11.8214 4.33113 13.1788 5.26611 14.2251L7.48975 13.23C7.951 13.1144 8.18213 12.6523 8.18213 12.1909V11.6118C8.18213 11.382 8.18173 11.1525 8.06689 11.0376L7.83643 10.5767C7.49035 9.8845 7.25938 9.07656 7.25928 8.26904V7.92236C7.25933 7.23027 7.37415 6.65247 7.72021 6.07568C8.18176 5.26824 8.98971 4.80718 9.9126 4.80713C10.8357 4.80713 11.6444 5.26801 12.106 6.07568C12.452 6.65245 12.5659 7.34554 12.5659 7.92236V8.26904C12.5658 9.07656 12.3358 9.8845 11.9897 10.5767L11.7583 11.0376C11.6435 11.2672 11.6431 11.383 11.6431 11.6118V12.1909C11.6431 12.6523 11.8742 12.9992 12.3354 13.23L14.7036 14.2554C15.6545 13.2049 16.2608 11.8361 16.3374 10.3267L16.3462 9.99951C16.346 6.60455 13.6794 3.83187 10.3267 3.66162L9.99951 3.65381Z" fill="#CFCFCF"/>
</svg>
