<svg width="20" height="20" viewBox="0 0 20 20" fill="none" xmlns="http://www.w3.org/2000/svg">
<path fill-rule="evenodd" clip-rule="evenodd" d="M15.9781 5.9263C16.1379 5.9263 16.2935 5.90782 16.4427 5.87289V8.03039C16.2935 7.99545 16.1379 7.97698 15.9781 7.97698C15.7875 7.97698 15.6029 8.00328 15.4279 8.05244V5.85084C15.6029 5.9 15.7875 5.9263 15.9781 5.9263ZM13.9923 9.58566H11.1511L15.0399 5.69687C14.7344 5.53731 14.4746 5.30228 14.2852 5.01651L10.4336 8.86813V5.86062C10.2694 5.90348 10.0971 5.9263 9.91949 5.9263C9.74672 5.9263 9.579 5.90471 9.41885 5.86409V8.86813L5.65399 5.10327C5.44964 5.37926 5.17697 5.60159 4.86095 5.74526L8.70134 9.58566H6.00766C6.03628 9.72141 6.05134 9.86216 6.05134 10.0064C6.05134 10.2131 6.02045 10.4125 5.96304 10.6004H8.70134L4.98536 14.3164C5.28814 14.48 5.54461 14.7183 5.73006 15.0067L9.41885 11.3179V14.1357C9.579 14.0951 9.74672 14.0735 9.91949 14.0735C10.0971 14.0735 10.2694 14.0963 10.4336 14.1392V11.3179L13.9835 14.8678C14.1953 14.5966 14.4745 14.3807 14.7959 14.2452L11.1511 10.6004H14.037C13.9796 10.4125 13.9487 10.2131 13.9487 10.0064C13.9487 9.86216 13.9637 9.72141 13.9923 9.58566ZM15.4279 11.9604V14.0926C15.4794 14.0886 15.5313 14.0866 15.5837 14.0866C15.8907 14.0866 16.1818 14.1548 16.4427 14.2769V11.9824C16.2935 12.0174 16.1379 12.0359 15.9781 12.0359C15.7875 12.0359 15.6029 12.0096 15.4279 11.9604ZM13.9487 3.89685C13.9487 4.14078 13.9917 4.37465 14.0706 4.5913H11.827C11.9059 4.37465 11.949 4.14078 11.949 3.89685C11.949 3.78787 11.9404 3.6809 11.9238 3.57657H13.9738C13.9573 3.6809 13.9487 3.78787 13.9487 3.89685ZM8.01197 4.5913C7.93307 4.37465 7.89003 4.14078 7.89003 3.89685C7.89003 3.78787 7.89863 3.6809 7.91516 3.57657H6.02621C6.04274 3.6809 6.05134 3.78787 6.05134 3.89685C6.05134 4.14078 6.0083 4.37465 5.92941 4.5913H8.01197ZM4.02188 5.9263C4.15973 5.9263 4.29436 5.91256 4.4245 5.88636V8.01692C4.29436 7.99072 4.15973 7.97698 4.02188 7.97698C3.80856 7.97698 3.60293 8.0099 3.40977 8.07092V5.83236C3.60293 5.89338 3.80856 5.9263 4.02188 5.9263ZM3.40977 11.9419V14.1674C3.60293 14.1064 3.80856 14.0735 4.02188 14.0735C4.15973 14.0735 4.29436 14.0872 4.4245 14.1134V11.996C4.29436 12.0221 4.15973 12.0359 4.02188 12.0359C3.80856 12.0359 3.60293 12.003 3.40977 11.9419ZM7.95374 16.6095H5.98762C6.02922 16.4476 6.05134 16.2779 6.05134 16.1029C6.05134 15.9275 6.02906 15.7572 5.98718 15.5947H7.9542C7.91232 15.7572 7.89003 15.9275 7.89003 16.1029C7.89003 16.2779 7.91216 16.4476 7.95374 16.6095ZM11.8853 16.6095H13.6146C13.5752 16.4515 13.5543 16.2863 13.5543 16.1161C13.5543 15.9359 13.5778 15.7611 13.6218 15.5947H11.8848C11.9267 15.7572 11.949 15.9275 11.949 16.1029C11.949 16.2779 11.9269 16.4476 11.8853 16.6095Z" fill="#CFCFCF"/>
<path d="M4.02209 11.5285C4.86272 11.5285 5.54418 10.847 5.54418 10.0064C5.54418 9.16578 4.86272 8.48432 4.02209 8.48432C3.18146 8.48432 2.5 9.16578 2.5 10.0064C2.5 10.847 3.18146 11.5285 4.02209 11.5285Z" fill="#CFCFCF"/>
<path d="M4.02209 17.625C4.86272 17.625 5.54418 16.9437 5.54418 16.1029C5.54418 15.2623 4.86272 14.5809 4.02209 14.5809C3.18146 14.5809 2.5 15.2623 2.5 16.1029C2.5 16.9437 3.18146 17.625 4.02209 17.625Z" fill="#CFCFCF"/>
<path d="M9.91913 5.41892C10.7598 5.41892 11.4412 4.73746 11.4412 3.89683C11.4412 3.0562 10.7598 2.37474 9.91913 2.37474C9.0785 2.37474 8.39704 3.0562 8.39704 3.89683C8.39704 4.73746 9.0785 5.41892 9.91913 5.41892Z" fill="#CFCFCF"/>
<path d="M9.91913 17.625C10.7598 17.625 11.4412 16.9437 11.4412 16.1029C11.4412 15.2623 10.7598 14.5809 9.91913 14.5809C9.0785 14.5809 8.39704 15.2623 8.39704 16.1029C8.39704 16.9437 9.0785 17.625 9.91913 17.625Z" fill="#CFCFCF"/>
<path d="M15.9778 5.41892C16.8185 5.41892 17.4999 4.73746 17.4999 3.89683C17.4999 3.0562 16.8185 2.37474 15.9778 2.37474C15.1372 2.37474 14.4557 3.0562 14.4557 3.89683C14.4557 4.73746 15.1372 5.41892 15.9778 5.41892Z" fill="#CFCFCF"/>
<path d="M15.9778 11.5285C16.8185 11.5285 17.4999 10.847 17.4999 10.0064C17.4999 9.16578 16.8185 8.48432 15.9778 8.48432C15.1372 8.48432 14.4557 9.16578 14.4557 10.0064C14.4557 10.847 15.1372 11.5285 15.9778 11.5285Z" fill="#CFCFCF"/>
<path d="M15.5839 17.625C16.4245 17.625 17.106 16.9437 17.106 16.1029C17.106 15.2623 16.4245 14.5809 15.5839 14.5809C14.7433 14.5809 14.0618 15.2623 14.0618 16.1029C14.0618 16.9437 14.7433 17.625 15.5839 17.625Z" fill="#CFCFCF"/>
<path d="M9.92635 11.295C10.5901 11.295 11.1282 10.7569 11.1282 10.0931C11.1282 9.42941 10.5901 8.89133 9.92635 8.89133C9.26261 8.89133 8.72454 9.42941 8.72454 10.0931C8.72454 10.7569 9.26261 11.295 9.92635 11.295Z" fill="#CFCFCF"/>
<path d="M4.02209 5.41896C4.86272 5.41896 5.54418 4.7375 5.54418 3.89688C5.54418 3.05624 4.86272 2.37478 4.02209 2.37478C3.18146 2.37478 2.5 3.05624 2.5 3.89688C2.5 4.7375 3.18146 5.41896 4.02209 5.41896Z" fill="#CFCFCF"/>
</svg>
