<svg width="20" height="21" viewBox="0 0 20 21" fill="none" xmlns="http://www.w3.org/2000/svg">
<g clip-path="url(#clip0_7615_617)">
<path d="M15.4003 12.9999L15.5203 12.6624C16.1203 12.2124 16.6003 11.5374 16.6003 10.7499V9.62495C16.6003 8.38746 15.5203 7.37497 14.2004 7.37497C12.8804 7.37497 11.8004 8.38746 11.8004 9.62495V10.7499C11.8004 11.5374 12.2804 12.2124 12.8804 12.6624L13.0004 12.9999L9.40039 15.2499C9.40039 15.2499 10.6004 17.4999 14.2004 17.4999C17.8003 17.4999 19.0003 15.2499 19.0003 15.2499L15.4003 12.9999Z" fill="#CFCFCF"/>
<path d="M10.5999 11.8749L6.99995 9.62495L7.11995 9.28746C7.71994 8.83746 8.19994 8.16246 8.19994 7.37497V6.24998C8.19994 5.01249 7.11995 4 5.79996 4C4.47997 4 3.39998 5.01249 3.39998 6.24998V7.37497C3.39998 8.16246 3.87998 8.83746 4.47997 9.28746L4.59997 9.62495L1 11.8749C1 11.8749 2.19999 14.1249 5.79996 14.1249C9.39993 14.1249 10.5999 11.8749 10.5999 11.8749Z" fill="#CFCFCF"/>
</g>
<defs>
<clipPath id="clip0_7615_617">
<rect width="20" height="20" fill="white" transform="translate(0 0.25)"/>
</clipPath>
</defs>
</svg>
